<svg version="1.1" viewBox="0.0 0.0 960.0 540.0" fill="none" stroke="none" stroke-linecap="square" stroke-miterlimit="10" xmlns:xlink="http://www.w3.org/1999/xlink" xmlns="http://www.w3.org/2000/svg"><clipPath id="p.0"><path d="m0 0l960.0 0l0 540.0l-960.0 0l0 -540.0z" clip-rule="nonzero"/></clipPath><g clip-path="url(#p.0)"><path fill="#ffffff" d="m0 0l960.0 0l0 540.0l-960.0 0z" fill-rule="evenodd"/><path fill="#000000" fill-opacity="0.0" d="m737.60657 32.6874l0 0c0 -15.107378 12.247009 -27.354328 27.35437 -27.354328l0 0c7.254822 0 14.212463 2.8819656 19.342407 8.011898c5.129944 5.1299314 8.011902 12.087613 8.011902 19.34243l0 0c0 15.10738 -12.246948 27.354332 -27.35431 27.354332l0 0c-15.107361 0 -27.35437 -12.246952 -27.35437 -27.354332z" fill-rule="evenodd"/><path stroke="#000000" stroke-width="2.0" stroke-linejoin="round" stroke-linecap="butt" d="m737.60657 32.6874l0 0c0 -15.107378 12.247009 -27.354328 27.35437 -27.354328l0 0c7.254822 0 14.212463 2.8819656 19.342407 8.011898c5.129944 5.1299314 8.011902 12.087613 8.011902 19.34243l0 0c0 15.10738 -12.246948 27.354332 -27.35431 27.354332l0 0c-15.107361 0 -27.35437 -12.246952 -27.35437 -27.354332z" fill-rule="evenodd"/><path fill="#000000" fill-opacity="0.0" d="m195.9199 183.70834l0 0c0 -15.107376 12.246948 -27.35434 27.35434 -27.35434l0 0c7.2548065 0 14.212494 2.8819733 19.342422 8.011902c5.1299286 5.1299286 8.011902 12.087616 8.011902 19.342438l0 0c0 15.107376 -12.246948 27.354324 -27.354324 27.354324l0 0c-15.107391 0 -27.35434 -12.246948 -27.35434 -27.354324z" fill-rule="evenodd"/><path stroke="#000000" stroke-width="2.0" stroke-linejoin="round" stroke-linecap="butt" d="m195.9199 183.70834l0 0c0 -15.107376 12.246948 -27.35434 27.35434 -27.35434l0 0c7.2548065 0 14.212494 2.8819733 19.342422 8.011902c5.1299286 5.1299286 8.011902 12.087616 8.011902 19.342438l0 0c0 15.107376 -12.246948 27.354324 -27.354324 27.354324l0 0c-15.107391 0 -27.35434 -12.246948 -27.35434 -27.354324z" fill-rule="evenodd"/><path fill="#000000" fill-opacity="0.0" d="m259.6851 183.70834l0 0c0 -15.107376 12.246948 -27.35434 27.35434 -27.35434l0 0c7.254822 0 14.212494 2.8819733 19.342438 8.011902c5.129944 5.1299286 8.011902 12.087616 8.011902 19.342438l0 0c0 15.107376 -12.246948 27.354324 -27.35434 27.354324l0 0c-15.107391 0 -27.35434 -12.246948 -27.35434 -27.354324z" fill-rule="evenodd"/><path stroke="#000000" stroke-width="2.0" stroke-linejoin="round" stroke-linecap="butt" d="m259.6851 183.70834l0 0c0 -15.107376 12.246948 -27.35434 27.35434 -27.35434l0 0c7.254822 0 14.212494 2.8819733 19.342438 8.011902c5.129944 5.1299286 8.011902 12.087616 8.011902 19.342438l0 0c0 15.107376 -12.246948 27.354324 -27.35434 27.354324l0 0c-15.107391 0 -27.35434 -12.246948 -27.35434 -27.354324z" fill-rule="evenodd"/><path fill="#000000" fill-opacity="0.0" d="m322.56503 183.70834l0 0c0 -15.107376 12.246979 -27.35434 27.35434 -27.35434l0 0c7.254822 0 14.212494 2.8819733 19.342438 8.011902c5.129944 5.1299286 8.011902 12.087616 8.011902 19.342438l0 0c0 15.107376 -12.246948 27.354324 -27.35434 27.354324l0 0c-15.107361 0 -27.35434 -12.246948 -27.35434 -27.354324z" fill-rule="evenodd"/><path stroke="#859900" stroke-width="2.0" stroke-linejoin="round" stroke-linecap="butt" stroke-dasharray="8.0,6.0" d="m322.56503 183.70834l0 0c0 -15.107376 12.246979 -27.35434 27.35434 -27.35434l0 0c7.254822 0 14.212494 2.8819733 19.342438 8.011902c5.129944 5.1299286 8.011902 12.087616 8.011902 19.342438l0 0c0 15.107376 -12.246948 27.354324 -27.35434 27.354324l0 0c-15.107361 0 -27.35434 -12.246948 -27.35434 -27.354324z" fill-rule="evenodd"/><path fill="#000000" fill-opacity="0.0" d="m7.6760755 183.70834l0 0c0 -15.107376 12.246952 -27.35434 27.354332 -27.35434l0 0c7.254818 0 14.212502 2.8819733 19.342434 8.011902c5.1299286 5.1299286 8.011894 12.087616 8.011894 19.342438l0 0c0 15.107376 -12.246948 27.354324 -27.354328 27.354324l0 0c-15.10738 0 -27.354332 -12.246948 -27.354332 -27.354324z" fill-rule="evenodd"/><path stroke="#859900" stroke-width="2.0" stroke-linejoin="round" stroke-linecap="butt" stroke-dasharray="8.0,6.0" d="m7.6760755 183.70834l0 0c0 -15.107376 12.246952 -27.35434 27.354332 -27.35434l0 0c7.254818 0 14.212502 2.8819733 19.342434 8.011902c5.1299286 5.1299286 8.011894 12.087616 8.011894 19.342438l0 0c0 15.107376 -12.246948 27.354324 -27.354328 27.354324l0 0c-15.10738 0 -27.354332 -12.246948 -27.354332 -27.354324z" fill-rule="evenodd"/><path fill="#000000" fill-opacity="0.0" d="m69.43999 183.70834l0 0c0 -15.107376 12.246948 -27.35434 27.354332 -27.35434l0 0c7.254822 0 14.212502 2.8819733 19.34243 8.011902c5.129936 5.1299286 8.011902 12.087616 8.011902 19.342438l0 0c0 15.107376 -12.246956 27.354324 -27.354332 27.354324l0 0c-15.107384 0 -27.354332 -12.246948 -27.354332 -27.354324z" fill-rule="evenodd"/><path stroke="#000000" stroke-width="2.0" stroke-linejoin="round" stroke-linecap="butt" d="m69.43999 183.70834l0 0c0 -15.107376 12.246948 -27.35434 27.354332 -27.35434l0 0c7.254822 0 14.212502 2.8819733 19.34243 8.011902c5.129936 5.1299286 8.011902 12.087616 8.011902 19.342438l0 0c0 15.107376 -12.246956 27.354324 -27.354332 27.354324l0 0c-15.107384 0 -27.354332 -12.246948 -27.354332 -27.354324z" fill-rule="evenodd"/><path fill="#000000" fill-opacity="0.0" d="m132.31993 183.70834l0 0c0 -15.107376 12.246948 -27.35434 27.354324 -27.35434l0 0c7.254822 0 14.212509 2.8819733 19.342438 8.011902c5.1299286 5.1299286 8.011902 12.087616 8.011902 19.342438l0 0c0 15.107376 -12.246948 27.354324 -27.35434 27.354324l0 0c-15.107376 0 -27.354324 -12.246948 -27.354324 -27.354324z" fill-rule="evenodd"/><path stroke="#859900" stroke-width="2.0" stroke-linejoin="round" stroke-linecap="butt" stroke-dasharray="8.0,6.0" d="m132.31993 183.70834l0 0c0 -15.107376 12.246948 -27.35434 27.354324 -27.35434l0 0c7.254822 0 14.212509 2.8819733 19.342438 8.011902c5.1299286 5.1299286 8.011902 12.087616 8.011902 19.342438l0 0c0 15.107376 -12.246948 27.354324 -27.35434 27.354324l0 0c-15.107376 0 -27.354324 -12.246948 -27.354324 -27.354324z" fill-rule="evenodd"/><path fill="#000000" fill-opacity="0.0" d="m386.13223 183.70834l0 0c0 -15.107376 12.246948 -27.35434 27.35434 -27.35434l0 0c7.254822 0 14.212494 2.8819733 19.342438 8.011902c5.1299133 5.1299286 8.011902 12.087616 8.011902 19.342438l0 0c0 15.107376 -12.246979 27.354324 -27.35434 27.354324l0 0c-15.107391 0 -27.35434 -12.246948 -27.35434 -27.354324z" fill-rule="evenodd"/><path stroke="#000000" stroke-width="2.0" stroke-linejoin="round" stroke-linecap="butt" d="m386.13223 183.70834l0 0c0 -15.107376 12.246948 -27.35434 27.35434 -27.35434l0 0c7.254822 0 14.212494 2.8819733 19.342438 8.011902c5.1299133 5.1299286 8.011902 12.087616 8.011902 19.342438l0 0c0 15.107376 -12.246979 27.354324 -27.35434 27.354324l0 0c-15.107391 0 -27.35434 -12.246948 -27.35434 -27.354324z" fill-rule="evenodd"/><path fill="#000000" fill-opacity="0.0" d="m450.78268 183.70834l0 0c0 -15.107376 12.246948 -27.35434 27.35431 -27.35434l0 0c7.254822 0 14.212524 2.8819733 19.342438 8.011902c5.129944 5.1299286 8.011902 12.087616 8.011902 19.342438l0 0c0 15.107376 -12.246948 27.354324 -27.35434 27.354324l0 0c-15.107361 0 -27.35431 -12.246948 -27.35431 -27.354324z" fill-rule="evenodd"/><path stroke="#000000" stroke-width="2.0" stroke-linejoin="round" stroke-linecap="butt" d="m450.78268 183.70834l0 0c0 -15.107376 12.246948 -27.35434 27.35431 -27.35434l0 0c7.254822 0 14.212524 2.8819733 19.342438 8.011902c5.129944 5.1299286 8.011902 12.087616 8.011902 19.342438l0 0c0 15.107376 -12.246948 27.354324 -27.35434 27.354324l0 0c-15.107361 0 -27.35431 -12.246948 -27.35431 -27.354324z" fill-rule="evenodd"/><path fill="#000000" fill-opacity="0.0" d="m514.54785 183.70834l0 0c0 -15.107376 12.246948 -27.35434 27.35437 -27.35434l0 0c7.254822 0 14.212463 2.8819733 19.342407 8.011902c5.129944 5.1299286 8.011902 12.087616 8.011902 19.342438l0 0c0 15.107376 -12.246948 27.354324 -27.35431 27.354324l0 0c-15.107422 0 -27.35437 -12.246948 -27.35437 -27.354324z" fill-rule="evenodd"/><path stroke="#000000" stroke-width="2.0" stroke-linejoin="round" stroke-linecap="butt" d="m514.54785 183.70834l0 0c0 -15.107376 12.246948 -27.35434 27.35437 -27.35434l0 0c7.254822 0 14.212463 2.8819733 19.342407 8.011902c5.129944 5.1299286 8.011902 12.087616 8.011902 19.342438l0 0c0 15.107376 -12.246948 27.354324 -27.35431 27.354324l0 0c-15.107422 0 -27.35437 -12.246948 -27.35437 -27.354324z" fill-rule="evenodd"/><path fill="#000000" fill-opacity="0.0" d="m578.31305 183.70834l0 0c0 -15.107376 12.246948 -27.35434 27.35431 -27.35434l0 0c7.254822 0 14.212524 2.8819733 19.342468 8.011902c5.129944 5.1299286 8.011902 12.087616 8.011902 19.342438l0 0c0 15.107376 -12.246948 27.354324 -27.35437 27.354324l0 0c-15.107361 0 -27.35431 -12.246948 -27.35431 -27.354324z" fill-rule="evenodd"/><path stroke="#859900" stroke-width="2.0" stroke-linejoin="round" stroke-linecap="butt" stroke-dasharray="8.0,6.0" d="m578.31305 183.70834l0 0c0 -15.107376 12.246948 -27.35434 27.35431 -27.35434l0 0c7.254822 0 14.212524 2.8819733 19.342468 8.011902c5.129944 5.1299286 8.011902 12.087616 8.011902 19.342438l0 0c0 15.107376 -12.246948 27.354324 -27.35437 27.354324l0 0c-15.107361 0 -27.35431 -12.246948 -27.35431 -27.354324z" fill-rule="evenodd"/><path fill="#000000" fill-opacity="0.0" d="m641.913 183.70834l0 0c0 -15.107376 12.246948 -27.35434 27.35431 -27.35434l0 0c7.254822 0 14.212524 2.8819733 19.342468 8.011902c5.129944 5.1299286 8.011902 12.087616 8.011902 19.342438l0 0c0 15.107376 -12.246948 27.354324 -27.35437 27.354324l0 0c-15.107361 0 -27.35431 -12.246948 -27.35431 -27.354324z" fill-rule="evenodd"/><path stroke="#000000" stroke-width="2.0" stroke-linejoin="round" stroke-linecap="butt" d="m641.913 183.70834l0 0c0 -15.107376 12.246948 -27.35434 27.35431 -27.35434l0 0c7.254822 0 14.212524 2.8819733 19.342468 8.011902c5.129944 5.1299286 8.011902 12.087616 8.011902 19.342438l0 0c0 15.107376 -12.246948 27.354324 -27.35437 27.354324l0 0c-15.107361 0 -27.35431 -12.246948 -27.35431 -27.354324z" fill-rule="evenodd"/><path fill="#000000" fill-opacity="0.0" d="m705.6782 183.70834l0 0c0 -15.107376 12.246948 -27.35434 27.35431 -27.35434l0 0c7.254822 0 14.212524 2.8819733 19.342468 8.011902c5.129944 5.1299286 8.011902 12.087616 8.011902 19.342438l0 0c0 15.107376 -12.246948 27.354324 -27.35437 27.354324l0 0c-15.107361 0 -27.35431 -12.246948 -27.35431 -27.354324z" fill-rule="evenodd"/><path stroke="#000000" stroke-width="2.0" stroke-linejoin="round" stroke-linecap="butt" d="m705.6782 183.70834l0 0c0 -15.107376 12.246948 -27.35434 27.35431 -27.35434l0 0c7.254822 0 14.212524 2.8819733 19.342468 8.011902c5.129944 5.1299286 8.011902 12.087616 8.011902 19.342438l0 0c0 15.107376 -12.246948 27.354324 -27.35437 27.354324l0 0c-15.107361 0 -27.35431 -12.246948 -27.35431 -27.354324z" fill-rule="evenodd"/><path fill="#000000" fill-opacity="0.0" d="m769.4434 183.70834l0 0c0 -15.107376 12.246948 -27.35434 27.35431 -27.35434l0 0c7.254822 0 14.212524 2.8819733 19.342468 8.011902c5.129944 5.1299286 8.011902 12.087616 8.011902 19.342438l0 0c0 15.107376 -12.246948 27.354324 -27.35437 27.354324l0 0c-15.107361 0 -27.35431 -12.246948 -27.35431 -27.354324z" fill-rule="evenodd"/><path stroke="#000000" stroke-width="2.0" stroke-linejoin="round" stroke-linecap="butt" d="m769.4434 183.70834l0 0c0 -15.107376 12.246948 -27.35434 27.35431 -27.35434l0 0c7.254822 0 14.212524 2.8819733 19.342468 8.011902c5.129944 5.1299286 8.011902 12.087616 8.011902 19.342438l0 0c0 15.107376 -12.246948 27.354324 -27.35437 27.354324l0 0c-15.107361 0 -27.35431 -12.246948 -27.35431 -27.354324z" fill-rule="evenodd"/><path fill="#000000" fill-opacity="0.0" d="m834.0939 183.70834l0 0c0 -15.107376 12.246948 -27.35434 27.35431 -27.35434l0 0c7.254822 0 14.212524 2.8819733 19.342407 8.011902c5.129944 5.1299286 8.011902 12.087616 8.011902 19.342438l0 0c0 15.107376 -12.246948 27.354324 -27.35431 27.354324l0 0c-15.107361 0 -27.35431 -12.246948 -27.35431 -27.354324z" fill-rule="evenodd"/><path stroke="#000000" stroke-width="2.0" stroke-linejoin="round" stroke-linecap="butt" d="m834.0939 183.70834l0 0c0 -15.107376 12.246948 -27.35434 27.35431 -27.35434l0 0c7.254822 0 14.212524 2.8819733 19.342407 8.011902c5.129944 5.1299286 8.011902 12.087616 8.011902 19.342438l0 0c0 15.107376 -12.246948 27.354324 -27.35431 27.354324l0 0c-15.107361 0 -27.35431 -12.246948 -27.35431 -27.354324z" fill-rule="evenodd"/><path fill="#000000" fill-opacity="0.0" d="m891.7488 183.70834l0 0c0 -15.107376 12.247009 -27.35434 27.35437 -27.35434l0 0c7.254822 0 14.212463 2.8819733 19.342407 8.011902c5.129944 5.1299286 8.011902 12.087616 8.011902 19.342438l0 0c0 15.107376 -12.246948 27.354324 -27.35431 27.354324l0 0c-15.107361 0 -27.35437 -12.246948 -27.35437 -27.354324z" fill-rule="evenodd"/><path stroke="#859900" stroke-width="2.0" stroke-linejoin="round" stroke-linecap="butt" stroke-dasharray="8.0,6.0" d="m891.7488 183.70834l0 0c0 -15.107376 12.247009 -27.35434 27.35437 -27.35434l0 0c7.254822 0 14.212463 2.8819733 19.342407 8.011902c5.129944 5.1299286 8.011902 12.087616 8.011902 19.342438l0 0c0 15.107376 -12.246948 27.354324 -27.35431 27.354324l0 0c-15.107361 0 -27.35437 -12.246948 -27.35437 -27.354324z" fill-rule="evenodd"/><path fill="#000000" fill-opacity="0.0" d="m1.4671916 166.76378l68.50394 0l0 33.88977l-68.50394 0z" fill-rule="evenodd"/><path fill="#000000" d="m28.042128 183.6549q0 2.25 -0.484375 3.90625q-0.484375 1.65625 -1.328125 2.734375q-0.84375 1.078125 -2.0 1.609375q-1.140625 0.53125 -2.4375 0.53125q-1.328125 0 -2.46875 -0.53125q-1.125 -0.53125 -1.96875 -1.609375q-0.828125 -1.078125 -1.3125 -2.734375q-0.484375 -1.65625 -0.484375 -3.90625q0 -2.25 0.484375 -3.90625q0.484375 -1.65625 1.3125 -2.734375q0.84375 -1.09375 1.96875 -1.625q1.140625 -0.53125 2.46875 -0.53125q1.296875 0 2.4375 0.53125q1.15625 0.53125 2.0 1.625q0.84375 1.078125 1.328125 2.734375q0.484375 1.65625 0.484375 3.90625zm-2.21875 0q0 -1.96875 -0.34375 -3.296875q-0.328125 -1.34375 -0.890625 -2.15625q-0.546875 -0.828125 -1.28125 -1.171875q-0.734375 -0.359375 -1.515625 -0.359375q-0.796875 0 -1.53125 0.359375q-0.734375 0.34375 -1.28125 1.171875q-0.546875 0.8125 -0.890625 2.15625q-0.328125 1.328125 -0.328125 3.296875q0 1.96875 0.328125 3.3125q0.34375 1.328125 0.890625 2.140625q0.546875 0.8125 1.28125 1.171875q0.734375 0.34375 1.53125 0.34375q0.78125 0 1.515625 -0.34375q0.734375 -0.359375 1.28125 -1.171875q0.5625 -0.8125 0.890625 -2.140625q0.34375 -1.34375 0.34375 -3.3125zm16.138853 0q0 2.25 -0.484375 3.90625q-0.484375 1.65625 -1.328125 2.734375q-0.84375 1.078125 -2.0 1.609375q-1.140625 0.53125 -2.4375 0.53125q-1.328125 0 -2.46875 -0.53125q-1.125 -0.53125 -1.9687481 -1.609375q-0.828125 -1.078125 -1.3125 -2.734375q-0.484375 -1.65625 -0.484375 -3.90625q0 -2.25 0.484375 -3.90625q0.484375 -1.65625 1.3125 -2.734375q0.8437481 -1.09375 1.9687481 -1.625q1.140625 -0.53125 2.46875 -0.53125q1.296875 0 2.4375 0.53125q1.15625 0.53125 2.0 1.625q0.84375 1.078125 1.328125 2.734375q0.484375 1.65625 0.484375 3.90625zm-2.21875 0q0 -1.96875 -0.34375 -3.296875q-0.328125 -1.34375 -0.890625 -2.15625q-0.546875 -0.828125 -1.28125 -1.171875q-0.734375 -0.359375 -1.515625 -0.359375q-0.796875 0 -1.53125 0.359375q-0.734375 0.34375 -1.28125 1.171875q-0.546875 0.8125 -0.890625 2.15625q-0.3281231 1.328125 -0.3281231 3.296875q0 1.96875 0.3281231 3.3125q0.34375 1.328125 0.890625 2.140625q0.546875 0.8125 1.28125 1.171875q0.734375 0.34375 1.53125 0.34375q0.78125 0 1.515625 -0.34375q0.734375 -0.359375 1.28125 -1.171875q0.5625 -0.8125 0.890625 -2.140625q0.34375 -1.34375 0.34375 -3.3125zm16.138855 0q0 2.25 -0.484375 3.90625q-0.484375 1.65625 -1.328125 2.734375q-0.84375 1.078125 -2.0 1.609375q-1.140625 0.53125 -2.4375 0.53125q-1.328125 0 -2.46875 -0.53125q-1.125 -0.53125 -1.96875 -1.609375q-0.828125 -1.078125 -1.3125 -2.734375q-0.484375 -1.65625 -0.484375 -3.90625q0 -2.25 0.484375 -3.90625q0.484375 -1.65625 1.3125 -2.734375q0.84375 -1.09375 1.96875 -1.625q1.140625 -0.53125 2.46875 -0.53125q1.296875 0 2.4375 0.53125q1.15625 0.53125 2.0 1.625q0.84375 1.078125 1.328125 2.734375q0.484375 1.65625 0.484375 3.90625zm-2.21875 0q0 -1.96875 -0.34375 -3.296875q-0.328125 -1.34375 -0.890625 -2.15625q-0.546875 -0.828125 -1.28125 -1.171875q-0.734375 -0.359375 -1.515625 -0.359375q-0.796875 0 -1.53125 0.359375q-0.734375 0.34375 -1.28125 1.171875q-0.546875 0.8125 -0.890625 2.15625q-0.328125 1.328125 -0.328125 3.296875q0 1.96875 0.328125 3.3125q0.34375 1.328125 0.890625 2.140625q0.546875 0.8125 1.28125 1.171875q0.734375 0.34375 1.53125 0.34375q0.78125 0 1.515625 -0.34375q0.734375 -0.359375 1.28125 -1.171875q0.5625 -0.8125 0.890625 -2.140625q0.34375 -1.34375 0.34375 -3.3125z" fill-rule="nonzero"/><path fill="#000000" fill-opacity="0.0" d="m62.416557 166.7664l68.503944 0l0 33.88977l-68.503944 0z" fill-rule="evenodd"/><path fill="#000000" d="m88.99149 183.65753q0 2.25 -0.484375 3.90625q-0.484375 1.65625 -1.328125 2.734375q-0.84375 1.078125 -2.0 1.609375q-1.140625 0.53125 -2.4375 0.53125q-1.328125 0 -2.46875 -0.53125q-1.125 -0.53125 -1.96875 -1.609375q-0.828125 -1.078125 -1.3125 -2.734375q-0.484375 -1.65625 -0.484375 -3.90625q0 -2.25 0.484375 -3.90625q0.484375 -1.65625 1.3125 -2.734375q0.84375 -1.09375 1.96875 -1.625q1.140625 -0.53125 2.46875 -0.53125q1.296875 0 2.4375 0.53125q1.15625 0.53125 2.0 1.625q0.84375 1.078125 1.328125 2.734375q0.484375 1.65625 0.484375 3.90625zm-2.21875 0q0 -1.96875 -0.34375 -3.296875q-0.328125 -1.34375 -0.890625 -2.15625q-0.546875 -0.828125 -1.28125 -1.171875q-0.734375 -0.359375 -1.515625 -0.359375q-0.796875 0 -1.53125 0.359375q-0.734375 0.34375 -1.28125 1.171875q-0.546875 0.8125 -0.890625 2.15625q-0.328125 1.328125 -0.328125 3.296875q0 1.96875 0.328125 3.3125q0.34375 1.328125 0.890625 2.140625q0.546875 0.8125 1.28125 1.171875q0.734375 0.34375 1.53125 0.34375q0.78125 0 1.515625 -0.34375q0.734375 -0.359375 1.28125 -1.171875q0.5625 -0.8125 0.890625 -2.140625q0.34375 -1.34375 0.34375 -3.3125zm16.138855 0q0 2.25 -0.484375 3.90625q-0.484375 1.65625 -1.328125 2.734375q-0.84375 1.078125 -2.0 1.609375q-1.140625 0.53125 -2.4375 0.53125q-1.328125 0 -2.46875 -0.53125q-1.125 -0.53125 -1.96875 -1.609375q-0.828125 -1.078125 -1.3125 -2.734375q-0.484375 -1.65625 -0.484375 -3.90625q0 -2.25 0.484375 -3.90625q0.484375 -1.65625 1.3125 -2.734375q0.84375 -1.09375 1.96875 -1.625q1.140625 -0.53125 2.46875 -0.53125q1.296875 0 2.4375 0.53125q1.15625 0.53125 2.0 1.625q0.84375 1.078125 1.328125 2.734375q0.484375 1.65625 0.484375 3.90625zm-2.21875 0q0 -1.96875 -0.34375 -3.296875q-0.328125 -1.34375 -0.890625 -2.15625q-0.546875 -0.828125 -1.28125 -1.171875q-0.734375 -0.359375 -1.515625 -0.359375q-0.796875 0 -1.53125 0.359375q-0.734375 0.34375 -1.28125 1.171875q-0.546875 0.8125 -0.890625 2.15625q-0.328125 1.328125 -0.328125 3.296875q0 1.96875 0.328125 3.3125q0.34375 1.328125 0.890625 2.140625q0.546875 0.8125 1.28125 1.171875q0.734375 0.34375 1.53125 0.34375q0.78125 0 1.515625 -0.34375q0.734375 -0.359375 1.28125 -1.171875q0.5625 -0.8125 0.890625 -2.140625q0.34375 -1.34375 0.34375 -3.3125zm16.138855 0q0 2.25 -0.484375 3.90625q-0.484375 1.65625 -1.328125 2.734375q-0.84375 1.078125 -2.0 1.609375q-1.140625 0.53125 -2.4375 0.53125q-1.328125 0 -2.46875 -0.53125q-1.125 -0.53125 -1.96875 -1.609375q-0.828125 -1.078125 -1.3125 -2.734375q-0.484375 -1.65625 -0.484375 -3.90625q0 -2.25 0.484375 -3.90625q0.484375 -1.65625 1.3125 -2.734375q0.84375 -1.09375 1.96875 -1.625q1.140625 -0.53125 2.46875 -0.53125q1.296875 0 2.4375 0.53125q1.15625 0.53125 2.0 1.625q0.84375 1.078125 1.328125 2.734375q0.484375 1.65625 0.484375 3.90625zm-2.21875 0q0 -1.96875 -0.34375 -3.296875q-0.328125 -1.34375 -0.890625 -2.15625q-0.546875 -0.828125 -1.28125 -1.171875q-0.734375 -0.359375 -1.515625 -0.359375q-0.796875 0 -1.53125 0.359375q-0.734375 0.34375 -1.28125 1.171875q-0.546875 0.8125 -0.890625 2.15625q-0.328125 1.328125 -0.328125 3.296875q0 1.96875 0.328125 3.3125q0.34375 1.328125 0.890625 2.140625q0.546875 0.8125 1.28125 1.171875q0.734375 0.34375 1.53125 0.34375q0.78125 0 1.515625 -0.34375q0.734375 -0.359375 1.28125 -1.171875q0.5625 -0.8125 0.890625 -2.140625q0.34375 -1.34375 0.34375 -3.3125z" fill-rule="nonzero"/><path fill="#000000" fill-opacity="0.0" d="m189.10567 166.7664l68.50392 0l0 33.88977l-68.50392 0z" fill-rule="evenodd"/><path fill="#000000" d="m215.6806 183.65753q0 2.25 -0.484375 3.90625q-0.484375 1.65625 -1.328125 2.734375q-0.84375 1.078125 -2.0 1.609375q-1.140625 0.53125 -2.4375 0.53125q-1.328125 0 -2.46875 -0.53125q-1.125 -0.53125 -1.96875 -1.609375q-0.828125 -1.078125 -1.3125 -2.734375q-0.484375 -1.65625 -0.484375 -3.90625q0 -2.25 0.484375 -3.90625q0.484375 -1.65625 1.3125 -2.734375q0.84375 -1.09375 1.96875 -1.625q1.140625 -0.53125 2.46875 -0.53125q1.296875 0 2.4375 0.53125q1.15625 0.53125 2.0 1.625q0.84375 1.078125 1.328125 2.734375q0.484375 1.65625 0.484375 3.90625zm-2.21875 0q0 -1.96875 -0.34375 -3.296875q-0.328125 -1.34375 -0.890625 -2.15625q-0.546875 -0.828125 -1.28125 -1.171875q-0.734375 -0.359375 -1.515625 -0.359375q-0.796875 0 -1.53125 0.359375q-0.734375 0.34375 -1.28125 1.171875q-0.546875 0.8125 -0.890625 2.15625q-0.328125 1.328125 -0.328125 3.296875q0 1.96875 0.328125 3.3125q0.34375 1.328125 0.890625 2.140625q0.546875 0.8125 1.28125 1.171875q0.734375 0.34375 1.53125 0.34375q0.78125 0 1.515625 -0.34375q0.734375 -0.359375 1.28125 -1.171875q0.5625 -0.8125 0.890625 -2.140625q0.34375 -1.34375 0.34375 -3.3125zm16.138855 0q0 2.25 -0.484375 3.90625q-0.484375 1.65625 -1.328125 2.734375q-0.84375 1.078125 -2.0 1.609375q-1.140625 0.53125 -2.4375 0.53125q-1.328125 0 -2.46875 -0.53125q-1.125 -0.53125 -1.96875 -1.609375q-0.828125 -1.078125 -1.3125 -2.734375q-0.484375 -1.65625 -0.484375 -3.90625q0 -2.25 0.484375 -3.90625q0.484375 -1.65625 1.3125 -2.734375q0.84375 -1.09375 1.96875 -1.625q1.140625 -0.53125 2.46875 -0.53125q1.296875 0 2.4375 0.53125q1.15625 0.53125 2.0 1.625q0.84375 1.078125 1.328125 2.734375q0.484375 1.65625 0.484375 3.90625zm-2.21875 0q0 -1.96875 -0.34375 -3.296875q-0.328125 -1.34375 -0.890625 -2.15625q-0.546875 -0.828125 -1.28125 -1.171875q-0.734375 -0.359375 -1.515625 -0.359375q-0.796875 0 -1.53125 0.359375q-0.734375 0.34375 -1.28125 1.171875q-0.546875 0.8125 -0.890625 2.15625q-0.328125 1.328125 -0.328125 3.296875q0 1.96875 0.328125 3.3125q0.34375 1.328125 0.890625 2.140625q0.546875 0.8125 1.28125 1.171875q0.734375 0.34375 1.53125 0.34375q0.78125 0 1.515625 -0.34375q0.734375 -0.359375 1.28125 -1.171875q0.5625 -0.8125 0.890625 -2.140625q0.34375 -1.34375 0.34375 -3.3125zm16.138855 0q0 2.25 -0.484375 3.90625q-0.484375 1.65625 -1.328125 2.734375q-0.84375 1.078125 -2.0 1.609375q-1.140625 0.53125 -2.4375 0.53125q-1.328125 0 -2.46875 -0.53125q-1.125 -0.53125 -1.96875 -1.609375q-0.828125 -1.078125 -1.3125 -2.734375q-0.484375 -1.65625 -0.484375 -3.90625q0 -2.25 0.484375 -3.90625q0.484375 -1.65625 1.3125 -2.734375q0.84375 -1.09375 1.96875 -1.625q1.140625 -0.53125 2.46875 -0.53125q1.296875 0 2.4375 0.53125q1.15625 0.53125 2.0 1.625q0.84375 1.078125 1.328125 2.734375q0.484375 1.65625 0.484375 3.90625zm-2.21875 0q0 -1.96875 -0.34375 -3.296875q-0.328125 -1.34375 -0.890625 -2.15625q-0.546875 -0.828125 -1.28125 -1.171875q-0.734375 -0.359375 -1.515625 -0.359375q-0.796875 0 -1.53125 0.359375q-0.734375 0.34375 -1.28125 1.171875q-0.546875 0.8125 -0.890625 2.15625q-0.328125 1.328125 -0.328125 3.296875q0 1.96875 0.328125 3.3125q0.34375 1.328125 0.890625 2.140625q0.546875 0.8125 1.28125 1.171875q0.734375 0.34375 1.53125 0.34375q0.78125 0 1.515625 -0.34375q0.734375 -0.359375 1.28125 -1.171875q0.5625 -0.8125 0.890625 -2.140625q0.34375 -1.34375 0.34375 -3.3125z" fill-rule="nonzero"/><path fill="#000000" fill-opacity="0.0" d="m125.780846 166.76378l68.503944 0l0 33.88977l-68.503944 0z" fill-rule="evenodd"/><path fill="#000000" d="m152.35579 183.6549q0 2.25 -0.484375 3.90625q-0.484375 1.65625 -1.328125 2.734375q-0.84375 1.078125 -2.0 1.609375q-1.140625 0.53125 -2.4375 0.53125q-1.328125 0 -2.46875 -0.53125q-1.125 -0.53125 -1.96875 -1.609375q-0.828125 -1.078125 -1.3125 -2.734375q-0.484375 -1.65625 -0.484375 -3.90625q0 -2.25 0.484375 -3.90625q0.484375 -1.65625 1.3125 -2.734375q0.84375 -1.09375 1.96875 -1.625q1.140625 -0.53125 2.46875 -0.53125q1.296875 0 2.4375 0.53125q1.15625 0.53125 2.0 1.625q0.84375 1.078125 1.328125 2.734375q0.484375 1.65625 0.484375 3.90625zm-2.21875 0q0 -1.96875 -0.34375 -3.296875q-0.328125 -1.34375 -0.890625 -2.15625q-0.546875 -0.828125 -1.28125 -1.171875q-0.734375 -0.359375 -1.515625 -0.359375q-0.796875 0 -1.53125 0.359375q-0.734375 0.34375 -1.28125 1.171875q-0.546875 0.8125 -0.890625 2.15625q-0.328125 1.328125 -0.328125 3.296875q0 1.96875 0.328125 3.3125q0.34375 1.328125 0.890625 2.140625q0.546875 0.8125 1.28125 1.171875q0.734375 0.34375 1.53125 0.34375q0.78125 0 1.515625 -0.34375q0.734375 -0.359375 1.28125 -1.171875q0.5625 -0.8125 0.890625 -2.140625q0.34375 -1.34375 0.34375 -3.3125zm16.138855 0q0 2.25 -0.484375 3.90625q-0.484375 1.65625 -1.328125 2.734375q-0.84375 1.078125 -2.0 1.609375q-1.140625 0.53125 -2.4375 0.53125q-1.328125 0 -2.46875 -0.53125q-1.125 -0.53125 -1.96875 -1.609375q-0.828125 -1.078125 -1.3125 -2.734375q-0.484375 -1.65625 -0.484375 -3.90625q0 -2.25 0.484375 -3.90625q0.484375 -1.65625 1.3125 -2.734375q0.84375 -1.09375 1.96875 -1.625q1.140625 -0.53125 2.46875 -0.53125q1.296875 0 2.4375 0.53125q1.15625 0.53125 2.0 1.625q0.84375 1.078125 1.328125 2.734375q0.484375 1.65625 0.484375 3.90625zm-2.21875 0q0 -1.96875 -0.34375 -3.296875q-0.328125 -1.34375 -0.890625 -2.15625q-0.546875 -0.828125 -1.28125 -1.171875q-0.734375 -0.359375 -1.515625 -0.359375q-0.796875 0 -1.53125 0.359375q-0.734375 0.34375 -1.28125 1.171875q-0.546875 0.8125 -0.890625 2.15625q-0.328125 1.328125 -0.328125 3.296875q0 1.96875 0.328125 3.3125q0.34375 1.328125 0.890625 2.140625q0.546875 0.8125 1.28125 1.171875q0.734375 0.34375 1.53125 0.34375q0.78125 0 1.515625 -0.34375q0.734375 -0.359375 1.28125 -1.171875q0.5625 -0.8125 0.890625 -2.140625q0.34375 -1.34375 0.34375 -3.3125zm6.37323 6.96875l3.703125 0l0 -11.734375q0 -0.53125 0.03125 -1.0625l-3.0625 2.625q-0.125 0.09375 -0.25 0.140625q-0.109375 0.046875 -0.21875 0.046875q-0.1875 0 -0.328125 -0.078125q-0.140625 -0.078125 -0.21875 -0.1875l-0.671875 -0.921875l5.109375 -4.4375l1.75 0l0 15.609375l3.375 0l0 1.625l-9.21875 0l0 -1.625z" fill-rule="nonzero"/><path fill="#000000" fill-opacity="0.0" d="m252.41559 166.76378l68.50394 0l0 33.88977l-68.50394 0z" fill-rule="evenodd"/><path fill="#000000" d="m278.99054 183.6549q0 2.25 -0.484375 3.90625q-0.484375 1.65625 -1.328125 2.734375q-0.84375 1.078125 -2.0 1.609375q-1.140625 0.53125 -2.4375 0.53125q-1.328125 0 -2.46875 -0.53125q-1.125 -0.53125 -1.96875 -1.609375q-0.828125 -1.078125 -1.3125 -2.734375q-0.484375 -1.65625 -0.484375 -3.90625q0 -2.25 0.484375 -3.90625q0.484375 -1.65625 1.3125 -2.734375q0.84375 -1.09375 1.96875 -1.625q1.140625 -0.53125 2.46875 -0.53125q1.296875 0 2.4375 0.53125q1.15625 0.53125 2.0 1.625q0.84375 1.078125 1.328125 2.734375q0.484375 1.65625 0.484375 3.90625zm-2.21875 0q0 -1.96875 -0.34375 -3.296875q-0.328125 -1.34375 -0.890625 -2.15625q-0.546875 -0.828125 -1.28125 -1.171875q-0.734375 -0.359375 -1.515625 -0.359375q-0.796875 0 -1.53125 0.359375q-0.734375 0.34375 -1.28125 1.171875q-0.546875 0.8125 -0.890625 2.15625q-0.328125 1.328125 -0.328125 3.296875q0 1.96875 0.328125 3.3125q0.34375 1.328125 0.890625 2.140625q0.546875 0.8125 1.28125 1.171875q0.734375 0.34375 1.53125 0.34375q0.78125 0 1.515625 -0.34375q0.734375 -0.359375 1.28125 -1.171875q0.5625 -0.8125 0.890625 -2.140625q0.34375 -1.34375 0.34375 -3.3125zm16.138855 0q0 2.25 -0.484375 3.90625q-0.484375 1.65625 -1.328125 2.734375q-0.84375 1.078125 -2.0 1.609375q-1.140625 0.53125 -2.4375 0.53125q-1.328125 0 -2.46875 -0.53125q-1.125 -0.53125 -1.96875 -1.609375q-0.828125 -1.078125 -1.3125 -2.734375q-0.484375 -1.65625 -0.484375 -3.90625q0 -2.25 0.484375 -3.90625q0.484375 -1.65625 1.3125 -2.734375q0.84375 -1.09375 1.96875 -1.625q1.140625 -0.53125 2.46875 -0.53125q1.296875 0 2.4375 0.53125q1.15625 0.53125 2.0 1.625q0.84375 1.078125 1.328125 2.734375q0.484375 1.65625 0.484375 3.90625zm-2.21875 0q0 -1.96875 -0.34375 -3.296875q-0.328125 -1.34375 -0.890625 -2.15625q-0.546875 -0.828125 -1.28125 -1.171875q-0.734375 -0.359375 -1.515625 -0.359375q-0.796875 0 -1.53125 0.359375q-0.734375 0.34375 -1.28125 1.171875q-0.546875 0.8125 -0.890625 2.15625q-0.328125 1.328125 -0.328125 3.296875q0 1.96875 0.328125 3.3125q0.34375 1.328125 0.890625 2.140625q0.546875 0.8125 1.28125 1.171875q0.734375 0.34375 1.53125 0.34375q0.78125 0 1.515625 -0.34375q0.734375 -0.359375 1.28125 -1.171875q0.5625 -0.8125 0.890625 -2.140625q0.34375 -1.34375 0.34375 -3.3125zm6.37323 6.96875l3.703125 0l0 -11.734375q0 -0.53125 0.03125 -1.0625l-3.0625 2.625q-0.125 0.09375 -0.25 0.140625q-0.109375 0.046875 -0.21875 0.046875q-0.1875 0 -0.328125 -0.078125q-0.140625 -0.078125 -0.21875 -0.1875l-0.671875 -0.921875l5.109375 -4.4375l1.75 0l0 15.609375l3.375 0l0 1.625l-9.21875 0l0 -1.625z" fill-rule="nonzero"/><path fill="#000000" fill-opacity="0.0" d="m101.56411 103.13403l0 0c0 -15.107376 12.246956 -27.354332 27.354332 -27.354332l0 0c7.254822 0 14.212509 2.8819656 19.342438 8.011902c5.1299286 5.1299286 8.011902 12.087608 8.011902 19.34243l0 0c0 15.107384 -12.2469635 27.354324 -27.35434 27.354324l0 0c-15.107376 0 -27.354332 -12.246941 -27.354332 -27.354324z" fill-rule="evenodd"/><path stroke="#859900" stroke-width="2.0" stroke-linejoin="round" stroke-linecap="butt" stroke-dasharray="8.0,6.0" d="m101.56411 103.13403l0 0c0 -15.107376 12.246956 -27.354332 27.354332 -27.354332l0 0c7.254822 0 14.212509 2.8819656 19.342438 8.011902c5.1299286 5.1299286 8.011902 12.087608 8.011902 19.34243l0 0c0 15.107384 -12.2469635 27.354324 -27.35434 27.354324l0 0c-15.107376 0 -27.354332 -12.246941 -27.354332 -27.354324z" fill-rule="evenodd"/><path fill="#000000" fill-opacity="0.0" d="m227.95543 103.13403l0 0c0 -15.107376 12.246948 -27.354332 27.354324 -27.354332l0 0c7.254822 0 14.212494 2.8819656 19.342438 8.011902c5.129944 5.1299286 8.011902 12.087608 8.011902 19.34243l0 0c0 15.107384 -12.246948 27.354324 -27.35434 27.354324l0 0c-15.107376 0 -27.354324 -12.246941 -27.354324 -27.354324z" fill-rule="evenodd"/><path stroke="#000000" stroke-width="2.0" stroke-linejoin="round" stroke-linecap="butt" d="m227.95543 103.13403l0 0c0 -15.107376 12.246948 -27.354332 27.354324 -27.354332l0 0c7.254822 0 14.212494 2.8819656 19.342438 8.011902c5.129944 5.1299286 8.011902 12.087608 8.011902 19.34243l0 0c0 15.107384 -12.246948 27.354324 -27.35434 27.354324l0 0c-15.107376 0 -27.354324 -12.246941 -27.354324 -27.354324z" fill-rule="evenodd"/><path fill="#000000" fill-opacity="0.0" d="m418.05167 104.01928l0 0c0 -15.107376 12.246948 -27.354332 27.35431 -27.354332l0 0c7.254822 0 14.212524 2.8819656 19.342438 8.011902c5.129944 5.1299286 8.011902 12.087608 8.011902 19.34243l0 0c0 15.107376 -12.246948 27.354332 -27.35434 27.354332l0 0c-15.107361 0 -27.35431 -12.246956 -27.35431 -27.354332z" fill-rule="evenodd"/><path stroke="#000000" stroke-width="2.0" stroke-linejoin="round" stroke-linecap="butt" d="m418.05167 104.01928l0 0c0 -15.107376 12.246948 -27.354332 27.35431 -27.354332l0 0c7.254822 0 14.212524 2.8819656 19.342438 8.011902c5.129944 5.1299286 8.011902 12.087608 8.011902 19.34243l0 0c0 15.107376 -12.246948 27.354332 -27.35434 27.354332l0 0c-15.107361 0 -27.35431 -12.246956 -27.35431 -27.354332z" fill-rule="evenodd"/><path fill="#000000" fill-opacity="0.0" d="m546.4123 103.13403l0 0c0 -15.107376 12.246948 -27.354332 27.35431 -27.354332l0 0c7.254822 0 14.212524 2.8819656 19.342468 8.011902c5.129944 5.1299286 8.011902 12.087608 8.011902 19.34243l0 0c0 15.107384 -12.246948 27.354324 -27.35437 27.354324l0 0c-15.107361 0 -27.35431 -12.246941 -27.35431 -27.354324z" fill-rule="evenodd"/><path stroke="#859900" stroke-width="2.0" stroke-linejoin="round" stroke-linecap="butt" stroke-dasharray="8.0,6.0" d="m546.4123 103.13403l0 0c0 -15.107376 12.246948 -27.354332 27.35431 -27.354332l0 0c7.254822 0 14.212524 2.8819656 19.342468 8.011902c5.129944 5.1299286 8.011902 12.087608 8.011902 19.34243l0 0c0 15.107384 -12.246948 27.354324 -27.35437 27.354324l0 0c-15.107361 0 -27.35431 -12.246941 -27.35431 -27.354324z" fill-rule="evenodd"/><path fill="#000000" fill-opacity="0.0" d="m673.68884 103.13403l0 0c0 -15.107376 12.246948 -27.354332 27.35437 -27.354332l0 0c7.254822 0 14.212463 2.8819656 19.342407 8.011902c5.129944 5.1299286 8.011902 12.087608 8.011902 19.34243l0 0c0 15.107384 -12.246948 27.354324 -27.35431 27.354324l0 0c-15.107422 0 -27.35437 -12.246941 -27.35437 -27.354324z" fill-rule="evenodd"/><path stroke="#000000" stroke-width="2.0" stroke-linejoin="round" stroke-linecap="butt" d="m673.68884 103.13403l0 0c0 -15.107376 12.246948 -27.354332 27.35437 -27.354332l0 0c7.254822 0 14.212463 2.8819656 19.342407 8.011902c5.129944 5.1299286 8.011902 12.087608 8.011902 19.34243l0 0c0 15.107384 -12.246948 27.354324 -27.35431 27.354324l0 0c-15.107422 0 -27.35437 -12.246941 -27.35437 -27.354324z" fill-rule="evenodd"/><path fill="#000000" fill-opacity="0.0" d="m801.1315 103.13403l0 0c0 -15.107376 12.246948 -27.354332 27.35431 -27.354332l0 0c7.254822 0 14.212524 2.8819656 19.342468 8.011902c5.129944 5.1299286 8.011902 12.087608 8.011902 19.34243l0 0c0 15.107384 -12.246948 27.354324 -27.35437 27.354324l0 0c-15.107361 0 -27.35431 -12.246941 -27.35431 -27.354324z" fill-rule="evenodd"/><path stroke="#000000" stroke-width="2.0" stroke-linejoin="round" stroke-linecap="butt" d="m801.1315 103.13403l0 0c0 -15.107376 12.246948 -27.354332 27.35431 -27.354332l0 0c7.254822 0 14.212524 2.8819656 19.342468 8.011902c5.129944 5.1299286 8.011902 12.087608 8.011902 19.34243l0 0c0 15.107384 -12.246948 27.354324 -27.35437 27.354324l0 0c-15.107361 0 -27.35431 -12.246941 -27.35431 -27.354324z" fill-rule="evenodd"/><path fill="#000000" fill-opacity="0.0" d="m482.86816 32.6874l0 0c0 -15.107378 12.246948 -27.354328 27.35434 -27.354328l0 0c7.2547913 0 14.212494 2.8819656 19.342438 8.011898c5.129944 5.1299314 8.011902 12.087613 8.011902 19.34243l0 0c0 15.10738 -12.246948 27.354332 -27.35434 27.354332l0 0c-15.107391 0 -27.35434 -12.246952 -27.35434 -27.354332z" fill-rule="evenodd"/><path stroke="#859900" stroke-width="2.0" stroke-linejoin="round" stroke-linecap="butt" stroke-dasharray="8.0,6.0" d="m482.86816 32.6874l0 0c0 -15.107378 12.246948 -27.354328 27.35434 -27.354328l0 0c7.2547913 0 14.212494 2.8819656 19.342438 8.011898c5.129944 5.1299314 8.011902 12.087613 8.011902 19.34243l0 0c0 15.10738 -12.246948 27.354332 -27.35434 27.354332l0 0c-15.107391 0 -27.35434 -12.246952 -27.35434 -27.354332z" fill-rule="evenodd"/><path fill="#000000" fill-opacity="0.0" d="m96.79432 156.354l12.787399 -33.889755" fill-rule="evenodd"/><path stroke="#595959" stroke-width="1.0" stroke-linejoin="round" stroke-linecap="butt" d="m96.79432 156.354l12.787399 -33.889755" fill-rule="evenodd"/><path fill="#000000" fill-opacity="0.0" d="m148.26088 122.47646l11.401566 33.889763" fill-rule="evenodd"/><path stroke="#595959" stroke-width="1.0" stroke-linejoin="round" stroke-linecap="butt" d="m148.26088 122.47646l11.401566 33.889763" fill-rule="evenodd"/><path fill="#000000" fill-opacity="0.0" d="m223.27425 156.354l12.692902 -33.889755" fill-rule="evenodd"/><path stroke="#595959" stroke-width="1.0" stroke-linejoin="round" stroke-linecap="butt" d="m223.27425 156.354l12.692902 -33.889755" fill-rule="evenodd"/><path fill="#000000" fill-opacity="0.0" d="m274.6522 122.47646l12.37796 33.889763" fill-rule="evenodd"/><path stroke="#595959" stroke-width="1.0" stroke-linejoin="round" stroke-linecap="butt" d="m274.6522 122.47646l12.37796 33.889763" fill-rule="evenodd"/><path fill="#000000" fill-opacity="0.0" d="m413.48657 156.354l12.566925 -33.007866" fill-rule="evenodd"/><path stroke="#595959" stroke-width="1.0" stroke-linejoin="round" stroke-linecap="butt" d="m413.48657 156.354l12.566925 -33.007866" fill-rule="evenodd"/><path fill="#000000" fill-opacity="0.0" d="m464.7484 123.36171l13.385834 33.007874" fill-rule="evenodd"/><path stroke="#595959" stroke-width="1.0" stroke-linejoin="round" stroke-linecap="butt" d="m464.7484 123.36171l13.385834 33.007874" fill-rule="evenodd"/><path fill="#000000" fill-opacity="0.0" d="m464.7484 84.67685l26.141754 -32.66142" fill-rule="evenodd"/><path stroke="#595959" stroke-width="1.0" stroke-linejoin="round" stroke-linecap="butt" d="m464.7484 84.67685l26.141754 -32.66142" fill-rule="evenodd"/><path fill="#000000" fill-opacity="0.0" d="m529.56494 52.029835l24.850403 31.748035" fill-rule="evenodd"/><path stroke="#595959" stroke-width="1.0" stroke-linejoin="round" stroke-linecap="butt" d="m529.56494 52.029835l24.850403 31.748035" fill-rule="evenodd"/><path fill="#000000" fill-opacity="0.0" d="m593.1091 122.47646l12.566895 33.889763" fill-rule="evenodd"/><path stroke="#595959" stroke-width="1.0" stroke-linejoin="round" stroke-linecap="butt" d="m593.1091 122.47646l12.566895 33.889763" fill-rule="evenodd"/><path fill="#000000" fill-opacity="0.0" d="m554.4242 122.47646l-12.535461 33.889763" fill-rule="evenodd"/><path stroke="#595959" stroke-width="1.0" stroke-linejoin="round" stroke-linecap="butt" d="m554.4242 122.47646l-12.535461 33.889763" fill-rule="evenodd"/><path fill="#000000" fill-opacity="0.0" d="m681.70074 122.47646l-12.440918 33.889763" fill-rule="evenodd"/><path stroke="#595959" stroke-width="1.0" stroke-linejoin="round" stroke-linecap="butt" d="m681.70074 122.47646l-12.440918 33.889763" fill-rule="evenodd"/><path fill="#000000" fill-opacity="0.0" d="m720.3856 122.47646l12.661438 33.889763" fill-rule="evenodd"/><path stroke="#595959" stroke-width="1.0" stroke-linejoin="round" stroke-linecap="butt" d="m720.3856 122.47646l12.661438 33.889763" fill-rule="evenodd"/><path fill="#000000" fill-opacity="0.0" d="m809.1434 122.47646l-12.346436 33.889763" fill-rule="evenodd"/><path stroke="#595959" stroke-width="1.0" stroke-linejoin="round" stroke-linecap="butt" d="m809.1434 122.47646l-12.346436 33.889763" fill-rule="evenodd"/><path fill="#000000" fill-opacity="0.0" d="m847.82825 122.47646l13.606262 33.889763" fill-rule="evenodd"/><path stroke="#595959" stroke-width="1.0" stroke-linejoin="round" stroke-linecap="butt" d="m847.82825 122.47646l13.606262 33.889763" fill-rule="evenodd"/><path fill="#000000" fill-opacity="0.0" d="m720.3856 83.7916l25.228333 -31.748035" fill-rule="evenodd"/><path stroke="#595959" stroke-width="1.0" stroke-linejoin="round" stroke-linecap="butt" d="m720.3856 83.7916l25.228333 -31.748035" fill-rule="evenodd"/><path fill="#000000" fill-opacity="0.0" d="m784.30334 52.029835l24.850403 31.748035" fill-rule="evenodd"/><path stroke="#595959" stroke-width="1.0" stroke-linejoin="round" stroke-linecap="butt" d="m784.30334 52.029835l24.850403 31.748035" fill-rule="evenodd"/><path fill="#000000" fill-opacity="0.0" d="m65.77428 209.4357l0 -203.59056" fill-rule="evenodd"/><path stroke="#595959" stroke-width="1.0" stroke-linejoin="round" stroke-linecap="butt" stroke-dasharray="4.0,3.0" d="m65.77428 209.4357l0 -203.59056" fill-rule="evenodd"/><path fill="#000000" fill-opacity="0.0" d="m192.00378 209.4357l0 -203.59056" fill-rule="evenodd"/><path stroke="#595959" stroke-width="1.0" stroke-linejoin="round" stroke-linecap="butt" stroke-dasharray="4.0,3.0" d="m192.00378 209.4357l0 -203.59056" fill-rule="evenodd"/><path fill="#000000" fill-opacity="0.0" d="m381.34805 209.4357l0 -203.59056" fill-rule="evenodd"/><path stroke="#595959" stroke-width="1.0" stroke-linejoin="round" stroke-linecap="butt" stroke-dasharray="4.0,3.0" d="m381.34805 209.4357l0 -203.59056" fill-rule="evenodd"/><path fill="#000000" fill-opacity="0.0" d="m637.348 209.4357l0 -203.59056" fill-rule="evenodd"/><path stroke="#595959" stroke-width="1.0" stroke-linejoin="round" stroke-linecap="butt" stroke-dasharray="4.0,3.0" d="m637.348 209.4357l0 -203.59056" fill-rule="evenodd"/><path fill="#000000" fill-opacity="0.0" d="m-21.114193 -3.6440778l113.6693 0l0 54.70866l-113.6693 0z" fill-rule="evenodd"/><path fill="#000000" d="m37.183125 13.527752l0 2.21875l-9.625 0l0 7.0l8.21875 0l0 2.21875l-8.21875 0l0 8.625l-2.734375 0l0 -20.0625l12.359375 0z" fill-rule="nonzero"/><path fill="#000000" d="m40.906055 42.824627l2.875 0l0 -9.109375q0 -0.421875 0.03125 -0.84375l-2.390625 2.046875q-0.09375 0.078125 -0.1875 0.109375q-0.09375 0.03125 -0.171875 0.03125q-0.140625 0 -0.25 -0.0625q-0.109375 -0.0625 -0.171875 -0.140625l-0.515625 -0.71875l3.96875 -3.4375l1.34375 0l0 12.125l2.640625 0l0 1.265625l-7.171875 0l0 -1.265625z" fill-rule="nonzero"/><path fill="#000000" fill-opacity="0.0" d="m40.64972 -3.6440778l113.6693 0l0 54.70866l-113.6693 0z" fill-rule="evenodd"/><path fill="#000000" d="m98.94704 13.527752l0 2.21875l-9.625 0l0 7.0l8.21875 0l0 2.21875l-8.21875 0l0 8.625l-2.734375 0l0 -20.0625l12.359375 0z" fill-rule="nonzero"/><path fill="#000000" d="m105.60747 30.574627q0.84375 0 1.578125 0.25q0.734375 0.25 1.265625 0.734375q0.546875 0.484375 0.859375 1.171875q0.3125 0.6875 0.3125 1.5625q0 0.75 -0.234375 1.390625q-0.21875 0.625 -0.609375 1.21875q-0.375 0.578125 -0.875 1.125q-0.5 0.546875 -1.0625 1.109375l-3.515625 3.59375q0.375 -0.09375 0.75 -0.15625q0.390625 -0.0625 0.75 -0.0625l4.46875 0q0.28125 0 0.4375 0.15625q0.15625 0.15625 0.15625 0.421875l0 1.0l-8.921875 0l0 -0.5625q0 -0.1875 0.0625 -0.375q0.078125 -0.1875 0.234375 -0.34375l4.28125 -4.296875q0.53125 -0.546875 0.96875 -1.046875q0.4375 -0.5 0.75 -1.0q0.3125 -0.5 0.484375 -1.015625q0.171875 -0.515625 0.171875 -1.109375q0 -0.578125 -0.1875 -1.015625q-0.1875 -0.453125 -0.515625 -0.734375q-0.328125 -0.296875 -0.765625 -0.4375q-0.4375 -0.15625 -0.9375 -0.15625q-0.5 0 -0.9375 0.15625q-0.421875 0.140625 -0.765625 0.40625q-0.328125 0.265625 -0.5625 0.640625q-0.21875 0.359375 -0.3125 0.796875q-0.078125 0.265625 -0.234375 0.390625q-0.140625 0.125 -0.375 0.125q-0.046875 0 -0.109375 0q-0.046875 -0.015625 -0.109375 -0.015625l-0.875 -0.15625q0.140625 -0.90625 0.515625 -1.609375q0.375 -0.71875 0.9375 -1.1875q0.578125 -0.46875 1.3125 -0.71875q0.75 -0.25 1.609375 -0.25z" fill-rule="nonzero"/><path fill="#000000" fill-opacity="0.0" d="m167.12964 -3.6440778l113.66928 0l0 54.70866l-113.66928 0z" fill-rule="evenodd"/><path fill="#000000" d="m225.42696 13.527752l0 2.21875l-9.625 0l0 7.0l8.21875 0l0 2.21875l-8.21875 0l0 8.625l-2.734375 0l0 -20.0625l12.359375 0z" fill-rule="nonzero"/><path fill="#000000" d="m232.25926 30.574627q0.84375 0 1.5625 0.25q0.71875 0.234375 1.234375 0.6875q0.53125 0.4375 0.8125 1.078125q0.296875 0.625 0.296875 1.40625q0 0.640625 -0.171875 1.140625q-0.15625 0.5 -0.46875 0.875q-0.296875 0.375 -0.734375 0.640625q-0.421875 0.25 -0.953125 0.40625q1.3125 0.359375 1.96875 1.171875q0.65625 0.796875 0.65625 2.03125q0 0.921875 -0.359375 1.65625q-0.34375 0.734375 -0.953125 1.25q-0.609375 0.515625 -1.421875 0.796875q-0.796875 0.28125 -1.71875 0.28125q-1.0625 0 -1.828125 -0.265625q-0.75 -0.265625 -1.28125 -0.734375q-0.515625 -0.46875 -0.859375 -1.109375q-0.328125 -0.640625 -0.5625 -1.390625l0.71875 -0.296875q0.1875 -0.078125 0.390625 -0.078125q0.1875 0 0.328125 0.078125q0.140625 0.078125 0.21875 0.25q0.015625 0.03125 0.03125 0.078125q0.03125 0.03125 0.046875 0.078125q0.125 0.28125 0.3125 0.625q0.1875 0.328125 0.5 0.640625q0.328125 0.296875 0.796875 0.5q0.46875 0.203125 1.171875 0.203125q0.703125 0 1.21875 -0.21875q0.53125 -0.234375 0.875 -0.59375q0.359375 -0.375 0.53125 -0.8125q0.1875 -0.453125 0.1875 -0.890625q0 -0.546875 -0.15625 -0.984375q-0.140625 -0.453125 -0.515625 -0.78125q-0.375 -0.328125 -1.046875 -0.515625q-0.671875 -0.1875 -1.71875 -0.1875l0 -1.203125q0.859375 -0.015625 1.453125 -0.1875q0.609375 -0.171875 0.984375 -0.484375q0.390625 -0.3125 0.5625 -0.734375q0.171875 -0.4375 0.171875 -0.953125q0 -0.578125 -0.1875 -1.0q-0.171875 -0.4375 -0.5 -0.71875q-0.3125 -0.28125 -0.75 -0.421875q-0.4375 -0.140625 -0.9375 -0.140625q-0.5 0 -0.9375 0.15625q-0.421875 0.140625 -0.75 0.40625q-0.328125 0.265625 -0.5625 0.640625q-0.21875 0.375 -0.328125 0.796875q-0.078125 0.265625 -0.234375 0.390625q-0.140625 0.125 -0.375 0.125q-0.046875 0 -0.109375 0q-0.046875 -0.015625 -0.109375 -0.015625l-0.859375 -0.15625q0.125 -0.90625 0.5 -1.609375q0.375 -0.71875 0.9375 -1.1875q0.578125 -0.46875 1.3125 -0.71875q0.75 -0.25 1.609375 -0.25z" fill-rule="nonzero"/><path fill="#000000" fill-opacity="0.0" d="m357.34198 -3.6440778l113.66928 0l0 54.70866l-113.66928 0z" fill-rule="evenodd"/><path fill="#000000" d="m415.63928 13.527752l0 2.21875l-9.625 0l0 7.0l8.21875 0l0 2.21875l-8.21875 0l0 8.625l-2.734375 0l0 -20.0625l12.359375 0z" fill-rule="nonzero"/><path fill="#000000" d="m425.1122 39.262127l2.03125 0l0 0.953125q0 0.15625 -0.09375 0.265625q-0.09375 0.09375 -0.28125 0.09375l-1.65625 0l0 3.515625l-1.46875 0l0 -3.515625l-5.921875 0q-0.1875 0 -0.328125 -0.109375q-0.125 -0.109375 -0.15625 -0.265625l-0.171875 -0.84375l6.5 -8.640625l1.546875 0l0 8.546875zm-1.46875 -5.5q0 -0.25 0.015625 -0.53125q0.015625 -0.28125 0.0625 -0.578125l-4.859375 6.609375l4.78125 0l0 -5.5z" fill-rule="nonzero"/><path fill="#000000" fill-opacity="0.0" d="m613.12274 -3.6440778l113.66931 0l0 54.70866l-113.66931 0z" fill-rule="evenodd"/><path fill="#000000" d="m671.4201 13.527752l0 2.21875l-9.625 0l0 7.0l8.21875 0l0 2.21875l-8.21875 0l0 8.625l-2.734375 0l0 -20.0625l12.359375 0z" fill-rule="nonzero"/><path fill="#000000" d="m681.5961 31.449627q0 0.359375 -0.234375 0.59375q-0.21875 0.21875 -0.75 0.21875l-4.1875 0l-0.625 3.5q1.046875 -0.21875 1.9375 -0.21875q1.046875 0 1.84375 0.3125q0.796875 0.3125 1.328125 0.859375q0.546875 0.53125 0.8125 1.265625q0.28125 0.734375 0.28125 1.609375q0 1.0625 -0.375 1.921875q-0.375 0.859375 -1.03125 1.46875q-0.640625 0.609375 -1.515625 0.9375q-0.875 0.328125 -1.890625 0.328125q-0.59375 0 -1.140625 -0.125q-0.53125 -0.109375 -1.0 -0.296875q-0.453125 -0.203125 -0.859375 -0.453125q-0.40625 -0.265625 -0.71875 -0.546875l0.515625 -0.703125q0.15625 -0.234375 0.4375 -0.234375q0.1875 0 0.421875 0.140625q0.234375 0.140625 0.5625 0.328125q0.34375 0.171875 0.796875 0.3125q0.453125 0.140625 1.078125 0.140625q0.703125 0 1.25 -0.21875q0.5625 -0.21875 0.953125 -0.640625q0.40625 -0.421875 0.625 -1.0q0.21875 -0.578125 0.21875 -1.296875q0 -0.625 -0.1875 -1.125q-0.1875 -0.5 -0.5625 -0.84375q-0.359375 -0.359375 -0.90625 -0.546875q-0.546875 -0.203125 -1.28125 -0.203125q-0.515625 0 -1.0625 0.078125q-0.53125 0.078125 -1.109375 0.265625l-1.046875 -0.3125l1.09375 -6.25l6.328125 0l0 0.734375z" fill-rule="nonzero"/><path fill="#000000" fill-opacity="0.0" d="m94.63572 86.76509l68.503944 0l0 33.889763l-68.503944 0z" fill-rule="evenodd"/><path fill="#000000" d="m128.1707 103.65622q0 2.25 -0.48436737 3.90625q-0.484375 1.65625 -1.328125 2.734375q-0.84375 1.078125 -2.0 1.609375q-1.140625 0.53125 -2.4375 0.53125q-1.328125 0 -2.46875 -0.53125q-1.125 -0.53125 -1.96875 -1.609375q-0.828125 -1.078125 -1.3125 -2.734375q-0.484375 -1.65625 -0.484375 -3.90625q0 -2.25 0.484375 -3.90625q0.484375 -1.65625 1.3125 -2.734375q0.84375 -1.09375 1.96875 -1.625q1.140625 -0.53125 2.46875 -0.53125q1.296875 0 2.4375 0.53125q1.15625 0.53125 2.0 1.625q0.84375 1.078125 1.328125 2.734375q0.48436737 1.65625 0.48436737 3.90625zm-2.2187424 0q0 -1.96875 -0.34375 -3.296875q-0.328125 -1.34375 -0.890625 -2.15625q-0.546875 -0.828125 -1.28125 -1.171875q-0.734375 -0.359375 -1.515625 -0.359375q-0.796875 0 -1.53125 0.359375q-0.734375 0.34375 -1.28125 1.171875q-0.546875 0.8125 -0.890625 2.15625q-0.328125 1.328125 -0.328125 3.296875q0 1.96875 0.328125 3.3125q0.34375 1.328125 0.890625 2.140625q0.546875 0.8125 1.28125 1.171875q0.734375 0.34375 1.53125 0.34375q0.78125 0 1.515625 -0.34375q0.734375 -0.359375 1.28125 -1.171875q0.5625 -0.8125 0.890625 -2.140625q0.34375 -1.34375 0.34375 -3.3125zm16.138847 0q0 2.25 -0.484375 3.90625q-0.484375 1.65625 -1.328125 2.734375q-0.84375 1.078125 -2.0 1.609375q-1.140625 0.53125 -2.4375 0.53125q-1.328125 0 -2.46875 -0.53125q-1.125 -0.53125 -1.96875 -1.609375q-0.828125 -1.078125 -1.3125 -2.734375q-0.484375 -1.65625 -0.484375 -3.90625q0 -2.25 0.484375 -3.90625q0.484375 -1.65625 1.3125 -2.734375q0.84375 -1.09375 1.96875 -1.625q1.140625 -0.53125 2.46875 -0.53125q1.296875 0 2.4375 0.53125q1.15625 0.53125 2.0 1.625q0.84375 1.078125 1.328125 2.734375q0.484375 1.65625 0.484375 3.90625zm-2.21875 0q0 -1.96875 -0.34375 -3.296875q-0.328125 -1.34375 -0.890625 -2.15625q-0.546875 -0.828125 -1.28125 -1.171875q-0.734375 -0.359375 -1.515625 -0.359375q-0.796875 0 -1.53125 0.359375q-0.734375 0.34375 -1.28125 1.171875q-0.546875 0.8125 -0.890625 2.15625q-0.328125 1.328125 -0.328125 3.296875q0 1.96875 0.328125 3.3125q0.34375 1.328125 0.890625 2.140625q0.546875 0.8125 1.28125 1.171875q0.734375 0.34375 1.53125 0.34375q0.78125 0 1.515625 -0.34375q0.734375 -0.359375 1.28125 -1.171875q0.5625 -0.8125 0.890625 -2.140625q0.34375 -1.34375 0.34375 -3.3125z" fill-rule="nonzero"/><path fill="#000000" fill-opacity="0.0" d="m220.86523 86.76509l68.50394 0l0 33.889763l-68.50394 0z" fill-rule="evenodd"/><path fill="#000000" d="m254.40022 103.65622q0 2.25 -0.484375 3.90625q-0.484375 1.65625 -1.328125 2.734375q-0.84375 1.078125 -2.0 1.609375q-1.140625 0.53125 -2.4375 0.53125q-1.328125 0 -2.46875 -0.53125q-1.125 -0.53125 -1.96875 -1.609375q-0.828125 -1.078125 -1.3125 -2.734375q-0.484375 -1.65625 -0.484375 -3.90625q0 -2.25 0.484375 -3.90625q0.484375 -1.65625 1.3125 -2.734375q0.84375 -1.09375 1.96875 -1.625q1.140625 -0.53125 2.46875 -0.53125q1.296875 0 2.4375 0.53125q1.15625 0.53125 2.0 1.625q0.84375 1.078125 1.328125 2.734375q0.484375 1.65625 0.484375 3.90625zm-2.21875 0q0 -1.96875 -0.34375 -3.296875q-0.328125 -1.34375 -0.890625 -2.15625q-0.546875 -0.828125 -1.28125 -1.171875q-0.734375 -0.359375 -1.515625 -0.359375q-0.796875 0 -1.53125 0.359375q-0.734375 0.34375 -1.28125 1.171875q-0.546875 0.8125 -0.890625 2.15625q-0.328125 1.328125 -0.328125 3.296875q0 1.96875 0.328125 3.3125q0.34375 1.328125 0.890625 2.140625q0.546875 0.8125 1.28125 1.171875q0.734375 0.34375 1.53125 0.34375q0.78125 0 1.515625 -0.34375q0.734375 -0.359375 1.28125 -1.171875q0.5625 -0.8125 0.890625 -2.140625q0.34375 -1.34375 0.34375 -3.3125zm16.13884 0q0 2.25 -0.484375 3.90625q-0.484375 1.65625 -1.328125 2.734375q-0.84375 1.078125 -2.0 1.609375q-1.140625 0.53125 -2.4375 0.53125q-1.328125 0 -2.46875 -0.53125q-1.125 -0.53125 -1.96875 -1.609375q-0.828125 -1.078125 -1.3125 -2.734375q-0.48435974 -1.65625 -0.48435974 -3.90625q0 -2.25 0.48435974 -3.90625q0.484375 -1.65625 1.3125 -2.734375q0.84375 -1.09375 1.96875 -1.625q1.140625 -0.53125 2.46875 -0.53125q1.296875 0 2.4375 0.53125q1.15625 0.53125 2.0 1.625q0.84375 1.078125 1.328125 2.734375q0.484375 1.65625 0.484375 3.90625zm-2.21875 0q0 -1.96875 -0.34375 -3.296875q-0.328125 -1.34375 -0.890625 -2.15625q-0.546875 -0.828125 -1.28125 -1.171875q-0.734375 -0.359375 -1.515625 -0.359375q-0.796875 0 -1.53125 0.359375q-0.734375 0.34375 -1.28125 1.171875q-0.546875 0.8125 -0.890625 2.15625q-0.328125 1.328125 -0.328125 3.296875q0 1.96875 0.328125 3.3125q0.34375 1.328125 0.890625 2.140625q0.546875 0.8125 1.28125 1.171875q0.734375 0.34375 1.53125 0.34375q0.78125 0 1.515625 -0.34375q0.734375 -0.359375 1.28125 -1.171875q0.5625 -0.8125 0.890625 -2.140625q0.34375 -1.34375 0.34375 -3.3125z" fill-rule="nonzero"/><path fill="#000000" fill-opacity="0.0" d="m411.09473 86.76509l68.50394 0l0 33.889763l-68.50394 0z" fill-rule="evenodd"/><path fill="#000000" d="m444.62973 103.65622q0 2.25 -0.484375 3.90625q-0.484375 1.65625 -1.328125 2.734375q-0.84375 1.078125 -2.0 1.609375q-1.140625 0.53125 -2.4375 0.53125q-1.328125 0 -2.46875 -0.53125q-1.125 -0.53125 -1.96875 -1.609375q-0.828125 -1.078125 -1.3125 -2.734375q-0.484375 -1.65625 -0.484375 -3.90625q0 -2.25 0.484375 -3.90625q0.484375 -1.65625 1.3125 -2.734375q0.84375 -1.09375 1.96875 -1.625q1.140625 -0.53125 2.46875 -0.53125q1.296875 0 2.4375 0.53125q1.15625 0.53125 2.0 1.625q0.84375 1.078125 1.328125 2.734375q0.484375 1.65625 0.484375 3.90625zm-2.21875 0q0 -1.96875 -0.34375 -3.296875q-0.328125 -1.34375 -0.890625 -2.15625q-0.546875 -0.828125 -1.28125 -1.171875q-0.734375 -0.359375 -1.515625 -0.359375q-0.796875 0 -1.53125 0.359375q-0.734375 0.34375 -1.28125 1.171875q-0.546875 0.8125 -0.890625 2.15625q-0.328125 1.328125 -0.328125 3.296875q0 1.96875 0.328125 3.3125q0.34375 1.328125 0.890625 2.140625q0.546875 0.8125 1.28125 1.171875q0.734375 0.34375 1.53125 0.34375q0.78125 0 1.515625 -0.34375q0.734375 -0.359375 1.28125 -1.171875q0.5625 -0.8125 0.890625 -2.140625q0.34375 -1.34375 0.34375 -3.3125zm16.138855 0q0 2.25 -0.484375 3.90625q-0.484375 1.65625 -1.328125 2.734375q-0.84375 1.078125 -2.0 1.609375q-1.140625 0.53125 -2.4375 0.53125q-1.328125 0 -2.46875 -0.53125q-1.125 -0.53125 -1.96875 -1.609375q-0.828125 -1.078125 -1.3125 -2.734375q-0.484375 -1.65625 -0.484375 -3.90625q0 -2.25 0.484375 -3.90625q0.484375 -1.65625 1.3125 -2.734375q0.84375 -1.09375 1.96875 -1.625q1.140625 -0.53125 2.46875 -0.53125q1.296875 0 2.4375 0.53125q1.15625 0.53125 2.0 1.625q0.84375 1.078125 1.328125 2.734375q0.484375 1.65625 0.484375 3.90625zm-2.21875 0q0 -1.96875 -0.34375 -3.296875q-0.328125 -1.34375 -0.890625 -2.15625q-0.546875 -0.828125 -1.28125 -1.171875q-0.734375 -0.359375 -1.515625 -0.359375q-0.796875 0 -1.53125 0.359375q-0.734375 0.34375 -1.28125 1.171875q-0.546875 0.8125 -0.890625 2.15625q-0.328125 1.328125 -0.328125 3.296875q0 1.96875 0.328125 3.3125q0.34375 1.328125 0.890625 2.140625q0.546875 0.8125 1.28125 1.171875q0.734375 0.34375 1.53125 0.34375q0.78125 0 1.515625 -0.34375q0.734375 -0.359375 1.28125 -1.171875q0.5625 -0.8125 0.890625 -2.140625q0.34375 -1.34375 0.34375 -3.3125z" fill-rule="nonzero"/><path fill="#000000" fill-opacity="0.0" d="m667.0947 86.76509l68.50397 0l0 33.889763l-68.50397 0z" fill-rule="evenodd"/><path fill="#000000" d="m700.6297 103.65622q0 2.25 -0.484375 3.90625q-0.484375 1.65625 -1.328125 2.734375q-0.84375 1.078125 -2.0 1.609375q-1.140625 0.53125 -2.4375 0.53125q-1.328125 0 -2.46875 -0.53125q-1.125 -0.53125 -1.96875 -1.609375q-0.828125 -1.078125 -1.3125 -2.734375q-0.484375 -1.65625 -0.484375 -3.90625q0 -2.25 0.484375 -3.90625q0.484375 -1.65625 1.3125 -2.734375q0.84375 -1.09375 1.96875 -1.625q1.140625 -0.53125 2.46875 -0.53125q1.296875 0 2.4375 0.53125q1.15625 0.53125 2.0 1.625q0.84375 1.078125 1.328125 2.734375q0.484375 1.65625 0.484375 3.90625zm-2.21875 0q0 -1.96875 -0.34375 -3.296875q-0.328125 -1.34375 -0.890625 -2.15625q-0.546875 -0.828125 -1.28125 -1.171875q-0.734375 -0.359375 -1.515625 -0.359375q-0.796875 0 -1.53125 0.359375q-0.734375 0.34375 -1.28125 1.171875q-0.546875 0.8125 -0.890625 2.15625q-0.328125 1.328125 -0.328125 3.296875q0 1.96875 0.328125 3.3125q0.34375 1.328125 0.890625 2.140625q0.546875 0.8125 1.28125 1.171875q0.734375 0.34375 1.53125 0.34375q0.78125 0 1.515625 -0.34375q0.734375 -0.359375 1.28125 -1.171875q0.5625 -0.8125 0.890625 -2.140625q0.34375 -1.34375 0.34375 -3.3125zm16.138855 0q0 2.25 -0.484375 3.90625q-0.484375 1.65625 -1.328125 2.734375q-0.84375 1.078125 -2.0 1.609375q-1.140625 0.53125 -2.4375 0.53125q-1.328125 0 -2.46875 -0.53125q-1.125 -0.53125 -1.96875 -1.609375q-0.828125 -1.078125 -1.3125 -2.734375q-0.484375 -1.65625 -0.484375 -3.90625q0 -2.25 0.484375 -3.90625q0.484375 -1.65625 1.3125 -2.734375q0.84375 -1.09375 1.96875 -1.625q1.140625 -0.53125 2.46875 -0.53125q1.296875 0 2.4375 0.53125q1.15625 0.53125 2.0 1.625q0.84375 1.078125 1.328125 2.734375q0.484375 1.65625 0.484375 3.90625zm-2.21875 0q0 -1.96875 -0.34375 -3.296875q-0.328125 -1.34375 -0.890625 -2.15625q-0.546875 -0.828125 -1.28125 -1.171875q-0.734375 -0.359375 -1.515625 -0.359375q-0.796875 0 -1.53125 0.359375q-0.734375 0.34375 -1.28125 1.171875q-0.546875 0.8125 -0.890625 2.15625q-0.328125 1.328125 -0.328125 3.296875q0 1.96875 0.328125 3.3125q0.34375 1.328125 0.890625 2.140625q0.546875 0.8125 1.28125 1.171875q0.734375 0.34375 1.53125 0.34375q0.78125 0 1.515625 -0.34375q0.734375 -0.359375 1.28125 -1.171875q0.5625 -0.8125 0.890625 -2.140625q0.34375 -1.34375 0.34375 -3.3125z" fill-rule="nonzero"/><path fill="#000000" fill-opacity="0.0" d="m539.0947 86.76509l68.50397 0l0 33.889763l-68.50397 0z" fill-rule="evenodd"/><path fill="#000000" d="m572.6297 103.65622q0 2.25 -0.484375 3.90625q-0.484375 1.65625 -1.328125 2.734375q-0.84375 1.078125 -2.0 1.609375q-1.140625 0.53125 -2.4375 0.53125q-1.328125 0 -2.46875 -0.53125q-1.125 -0.53125 -1.96875 -1.609375q-0.828125 -1.078125 -1.3125 -2.734375q-0.484375 -1.65625 -0.484375 -3.90625q0 -2.25 0.484375 -3.90625q0.484375 -1.65625 1.3125 -2.734375q0.84375 -1.09375 1.96875 -1.625q1.140625 -0.53125 2.46875 -0.53125q1.296875 0 2.4375 0.53125q1.15625 0.53125 2.0 1.625q0.84375 1.078125 1.328125 2.734375q0.484375 1.65625 0.484375 3.90625zm-2.21875 0q0 -1.96875 -0.34375 -3.296875q-0.328125 -1.34375 -0.890625 -2.15625q-0.546875 -0.828125 -1.28125 -1.171875q-0.734375 -0.359375 -1.515625 -0.359375q-0.796875 0 -1.53125 0.359375q-0.734375 0.34375 -1.28125 1.171875q-0.546875 0.8125 -0.890625 2.15625q-0.328125 1.328125 -0.328125 3.296875q0 1.96875 0.328125 3.3125q0.34375 1.328125 0.890625 2.140625q0.546875 0.8125 1.28125 1.171875q0.734375 0.34375 1.53125 0.34375q0.78125 0 1.515625 -0.34375q0.734375 -0.359375 1.28125 -1.171875q0.5625 -0.8125 0.890625 -2.140625q0.34375 -1.34375 0.34375 -3.3125zm6.37323 6.96875l3.703125 0l0 -11.734375q0 -0.53125 0.03125 -1.0625l-3.0625 2.625q-0.125 0.09375 -0.25 0.140625q-0.109375 0.046875 -0.21875 0.046875q-0.1875 0 -0.328125 -0.078125q-0.140625 -0.078125 -0.21875 -0.1875l-0.671875 -0.921875l5.109375 -4.4375l1.75 0l0 15.609375l3.375 0l0 1.625l-9.21875 0l0 -1.625z" fill-rule="nonzero"/><path fill="#000000" fill-opacity="0.0" d="m315.53033 166.76378l68.50394 0l0 33.88977l-68.50394 0z" fill-rule="evenodd"/><path fill="#000000" d="m342.1053 183.6549q0 2.25 -0.484375 3.90625q-0.484375 1.65625 -1.328125 2.734375q-0.84375 1.078125 -2.0 1.609375q-1.140625 0.53125 -2.4375 0.53125q-1.328125 0 -2.46875 -0.53125q-1.125 -0.53125 -1.96875 -1.609375q-0.828125 -1.078125 -1.3125 -2.734375q-0.484375 -1.65625 -0.484375 -3.90625q0 -2.25 0.484375 -3.90625q0.484375 -1.65625 1.3125 -2.734375q0.84375 -1.09375 1.96875 -1.625q1.140625 -0.53125 2.46875 -0.53125q1.296875 0 2.4375 0.53125q1.15625 0.53125 2.0 1.625q0.84375 1.078125 1.328125 2.734375q0.484375 1.65625 0.484375 3.90625zm-2.21875 0q0 -1.96875 -0.34375 -3.296875q-0.328125 -1.34375 -0.890625 -2.15625q-0.546875 -0.828125 -1.28125 -1.171875q-0.734375 -0.359375 -1.515625 -0.359375q-0.796875 0 -1.53125 0.359375q-0.734375 0.34375 -1.28125 1.171875q-0.546875 0.8125 -0.890625 2.15625q-0.328125 1.328125 -0.328125 3.296875q0 1.96875 0.328125 3.3125q0.34375 1.328125 0.890625 2.140625q0.546875 0.8125 1.28125 1.171875q0.734375 0.34375 1.53125 0.34375q0.78125 0 1.515625 -0.34375q0.734375 -0.359375 1.28125 -1.171875q0.5625 -0.8125 0.890625 -2.140625q0.34375 -1.34375 0.34375 -3.3125zm6.37323 6.96875l3.703125 0l0 -11.734375q0 -0.53125 0.03125 -1.0625l-3.0625 2.625q-0.125 0.09375 -0.25 0.140625q-0.109375 0.046875 -0.21875 0.046875q-0.1875 0 -0.328125 -0.078125q-0.140625 -0.078125 -0.21875 -0.1875l-0.671875 -0.921875l5.109375 -4.4375l1.75 0l0 15.609375l3.375 0l0 1.625l-9.21875 0l0 -1.625zm23.68573 -6.96875q0 2.25 -0.484375 3.90625q-0.484375 1.65625 -1.328125 2.734375q-0.84375 1.078125 -2.0 1.609375q-1.140625 0.53125 -2.4375 0.53125q-1.328125 0 -2.46875 -0.53125q-1.125 -0.53125 -1.96875 -1.609375q-0.828125 -1.078125 -1.3125 -2.734375q-0.484375 -1.65625 -0.484375 -3.90625q0 -2.25 0.484375 -3.90625q0.484375 -1.65625 1.3125 -2.734375q0.84375 -1.09375 1.96875 -1.625q1.140625 -0.53125 2.46875 -0.53125q1.296875 0 2.4375 0.53125q1.15625 0.53125 2.0 1.625q0.84375 1.078125 1.328125 2.734375q0.484375 1.65625 0.484375 3.90625zm-2.21875 0q0 -1.96875 -0.34375 -3.296875q-0.328125 -1.34375 -0.890625 -2.15625q-0.546875 -0.828125 -1.28125 -1.171875q-0.734375 -0.359375 -1.515625 -0.359375q-0.796875 0 -1.53125 0.359375q-0.734375 0.34375 -1.28125 1.171875q-0.546875 0.8125 -0.890625 2.15625q-0.328125 1.328125 -0.328125 3.296875q0 1.96875 0.328125 3.3125q0.34375 1.328125 0.890625 2.140625q0.546875 0.8125 1.28125 1.171875q0.734375 0.34375 1.53125 0.34375q0.78125 0 1.515625 -0.34375q0.734375 -0.359375 1.28125 -1.171875q0.5625 -0.8125 0.890625 -2.140625q0.34375 -1.34375 0.34375 -3.3125z" fill-rule="nonzero"/><path fill="#000000" fill-opacity="0.0" d="m379.33517 166.7664l68.50394 0l0 33.88977l-68.50394 0z" fill-rule="evenodd"/><path fill="#000000" d="m405.9101 183.65753q0 2.25 -0.484375 3.90625q-0.484375 1.65625 -1.328125 2.734375q-0.84375 1.078125 -2.0 1.609375q-1.140625 0.53125 -2.4375 0.53125q-1.328125 0 -2.46875 -0.53125q-1.125 -0.53125 -1.96875 -1.609375q-0.828125 -1.078125 -1.3125 -2.734375q-0.484375 -1.65625 -0.484375 -3.90625q0 -2.25 0.484375 -3.90625q0.484375 -1.65625 1.3125 -2.734375q0.84375 -1.09375 1.96875 -1.625q1.140625 -0.53125 2.46875 -0.53125q1.296875 0 2.4375 0.53125q1.15625 0.53125 2.0 1.625q0.84375 1.078125 1.328125 2.734375q0.484375 1.65625 0.484375 3.90625zm-2.21875 0q0 -1.96875 -0.34375 -3.296875q-0.328125 -1.34375 -0.890625 -2.15625q-0.546875 -0.828125 -1.28125 -1.171875q-0.734375 -0.359375 -1.515625 -0.359375q-0.796875 0 -1.53125 0.359375q-0.734375 0.34375 -1.28125 1.171875q-0.546875 0.8125 -0.890625 2.15625q-0.328125 1.328125 -0.328125 3.296875q0 1.96875 0.328125 3.3125q0.34375 1.328125 0.890625 2.140625q0.546875 0.8125 1.28125 1.171875q0.734375 0.34375 1.53125 0.34375q0.78125 0 1.515625 -0.34375q0.734375 -0.359375 1.28125 -1.171875q0.5625 -0.8125 0.890625 -2.140625q0.34375 -1.34375 0.34375 -3.3125zm16.138855 0q0 2.25 -0.484375 3.90625q-0.484375 1.65625 -1.328125 2.734375q-0.84375 1.078125 -2.0 1.609375q-1.140625 0.53125 -2.4375 0.53125q-1.328125 0 -2.46875 -0.53125q-1.125 -0.53125 -1.96875 -1.609375q-0.828125 -1.078125 -1.3125 -2.734375q-0.484375 -1.65625 -0.484375 -3.90625q0 -2.25 0.484375 -3.90625q0.484375 -1.65625 1.3125 -2.734375q0.84375 -1.09375 1.96875 -1.625q1.140625 -0.53125 2.46875 -0.53125q1.296875 0 2.4375 0.53125q1.15625 0.53125 2.0 1.625q0.84375 1.078125 1.328125 2.734375q0.484375 1.65625 0.484375 3.90625zm-2.21875 0q0 -1.96875 -0.34375 -3.296875q-0.328125 -1.34375 -0.890625 -2.15625q-0.546875 -0.828125 -1.28125 -1.171875q-0.734375 -0.359375 -1.515625 -0.359375q-0.796875 0 -1.53125 0.359375q-0.734375 0.34375 -1.28125 1.171875q-0.546875 0.8125 -0.890625 2.15625q-0.328125 1.328125 -0.328125 3.296875q0 1.96875 0.328125 3.3125q0.34375 1.328125 0.890625 2.140625q0.546875 0.8125 1.28125 1.171875q0.734375 0.34375 1.53125 0.34375q0.78125 0 1.515625 -0.34375q0.734375 -0.359375 1.28125 -1.171875q0.5625 -0.8125 0.890625 -2.140625q0.34375 -1.34375 0.34375 -3.3125zm16.138855 0q0 2.25 -0.484375 3.90625q-0.484375 1.65625 -1.328125 2.734375q-0.84375 1.078125 -2.0 1.609375q-1.140625 0.53125 -2.4375 0.53125q-1.328125 0 -2.46875 -0.53125q-1.125 -0.53125 -1.96875 -1.609375q-0.828125 -1.078125 -1.3125 -2.734375q-0.484375 -1.65625 -0.484375 -3.90625q0 -2.25 0.484375 -3.90625q0.484375 -1.65625 1.3125 -2.734375q0.84375 -1.09375 1.96875 -1.625q1.140625 -0.53125 2.46875 -0.53125q1.296875 0 2.4375 0.53125q1.15625 0.53125 2.0 1.625q0.84375 1.078125 1.328125 2.734375q0.484375 1.65625 0.484375 3.90625zm-2.21875 0q0 -1.96875 -0.34375 -3.296875q-0.328125 -1.34375 -0.890625 -2.15625q-0.546875 -0.828125 -1.28125 -1.171875q-0.734375 -0.359375 -1.515625 -0.359375q-0.796875 0 -1.53125 0.359375q-0.734375 0.34375 -1.28125 1.171875q-0.546875 0.8125 -0.890625 2.15625q-0.328125 1.328125 -0.328125 3.296875q0 1.96875 0.328125 3.3125q0.34375 1.328125 0.890625 2.140625q0.546875 0.8125 1.28125 1.171875q0.734375 0.34375 1.53125 0.34375q0.78125 0 1.515625 -0.34375q0.734375 -0.359375 1.28125 -1.171875q0.5625 -0.8125 0.890625 -2.140625q0.34375 -1.34375 0.34375 -3.3125z" fill-rule="nonzero"/><path fill="#000000" fill-opacity="0.0" d="m444.4156 166.76378l68.50397 0l0 33.88977l-68.50397 0z" fill-rule="evenodd"/><path fill="#000000" d="m470.99054 183.6549q0 2.25 -0.484375 3.90625q-0.484375 1.65625 -1.328125 2.734375q-0.84375 1.078125 -2.0 1.609375q-1.140625 0.53125 -2.4375 0.53125q-1.328125 0 -2.46875 -0.53125q-1.125 -0.53125 -1.96875 -1.609375q-0.828125 -1.078125 -1.3125 -2.734375q-0.484375 -1.65625 -0.484375 -3.90625q0 -2.25 0.484375 -3.90625q0.484375 -1.65625 1.3125 -2.734375q0.84375 -1.09375 1.96875 -1.625q1.140625 -0.53125 2.46875 -0.53125q1.296875 0 2.4375 0.53125q1.15625 0.53125 2.0 1.625q0.84375 1.078125 1.328125 2.734375q0.484375 1.65625 0.484375 3.90625zm-2.21875 0q0 -1.96875 -0.34375 -3.296875q-0.328125 -1.34375 -0.890625 -2.15625q-0.546875 -0.828125 -1.28125 -1.171875q-0.734375 -0.359375 -1.515625 -0.359375q-0.796875 0 -1.53125 0.359375q-0.734375 0.34375 -1.28125 1.171875q-0.546875 0.8125 -0.890625 2.15625q-0.328125 1.328125 -0.328125 3.296875q0 1.96875 0.328125 3.3125q0.34375 1.328125 0.890625 2.140625q0.546875 0.8125 1.28125 1.171875q0.734375 0.34375 1.53125 0.34375q0.78125 0 1.515625 -0.34375q0.734375 -0.359375 1.28125 -1.171875q0.5625 -0.8125 0.890625 -2.140625q0.34375 -1.34375 0.34375 -3.3125zm16.138855 0q0 2.25 -0.484375 3.90625q-0.484375 1.65625 -1.328125 2.734375q-0.84375 1.078125 -2.0 1.609375q-1.140625 0.53125 -2.4375 0.53125q-1.328125 0 -2.46875 -0.53125q-1.125 -0.53125 -1.96875 -1.609375q-0.828125 -1.078125 -1.3125 -2.734375q-0.484375 -1.65625 -0.484375 -3.90625q0 -2.25 0.484375 -3.90625q0.484375 -1.65625 1.3125 -2.734375q0.84375 -1.09375 1.96875 -1.625q1.140625 -0.53125 2.46875 -0.53125q1.296875 0 2.4375 0.53125q1.15625 0.53125 2.0 1.625q0.84375 1.078125 1.328125 2.734375q0.484375 1.65625 0.484375 3.90625zm-2.21875 0q0 -1.96875 -0.34375 -3.296875q-0.328125 -1.34375 -0.890625 -2.15625q-0.546875 -0.828125 -1.28125 -1.171875q-0.734375 -0.359375 -1.515625 -0.359375q-0.796875 0 -1.53125 0.359375q-0.734375 0.34375 -1.28125 1.171875q-0.546875 0.8125 -0.890625 2.15625q-0.328125 1.328125 -0.328125 3.296875q0 1.96875 0.328125 3.3125q0.34375 1.328125 0.890625 2.140625q0.546875 0.8125 1.28125 1.171875q0.734375 0.34375 1.53125 0.34375q0.78125 0 1.515625 -0.34375q0.734375 -0.359375 1.28125 -1.171875q0.5625 -0.8125 0.890625 -2.140625q0.34375 -1.34375 0.34375 -3.3125zm6.37323 6.96875l3.703125 0l0 -11.734375q0 -0.53125 0.03125 -1.0625l-3.0625 2.625q-0.125 0.09375 -0.25 0.140625q-0.109375 0.046875 -0.21875 0.046875q-0.1875 0 -0.328125 -0.078125q-0.140625 -0.078125 -0.21875 -0.1875l-0.671875 -0.921875l5.109375 -4.4375l1.75 0l0 15.609375l3.375 0l0 1.625l-9.21875 0l0 -1.625z" fill-rule="nonzero"/><path fill="#000000" fill-opacity="0.0" d="m507.53033 166.76378l68.50397 0l0 33.88977l-68.50397 0z" fill-rule="evenodd"/><path fill="#000000" d="m534.1053 183.6549q0 2.25 -0.484375 3.90625q-0.484375 1.65625 -1.328125 2.734375q-0.84375 1.078125 -2.0 1.609375q-1.140625 0.53125 -2.4375 0.53125q-1.328125 0 -2.46875 -0.53125q-1.125 -0.53125 -1.96875 -1.609375q-0.828125 -1.078125 -1.3125 -2.734375q-0.484375 -1.65625 -0.484375 -3.90625q0 -2.25 0.484375 -3.90625q0.484375 -1.65625 1.3125 -2.734375q0.84375 -1.09375 1.96875 -1.625q1.140625 -0.53125 2.46875 -0.53125q1.296875 0 2.4375 0.53125q1.15625 0.53125 2.0 1.625q0.84375 1.078125 1.328125 2.734375q0.484375 1.65625 0.484375 3.90625zm-2.21875 0q0 -1.96875 -0.34375 -3.296875q-0.328125 -1.34375 -0.890625 -2.15625q-0.546875 -0.828125 -1.28125 -1.171875q-0.734375 -0.359375 -1.515625 -0.359375q-0.796875 0 -1.53125 0.359375q-0.734375 0.34375 -1.28125 1.171875q-0.546875 0.8125 -0.890625 2.15625q-0.328125 1.328125 -0.328125 3.296875q0 1.96875 0.328125 3.3125q0.34375 1.328125 0.890625 2.140625q0.546875 0.8125 1.28125 1.171875q0.734375 0.34375 1.53125 0.34375q0.78125 0 1.515625 -0.34375q0.734375 -0.359375 1.28125 -1.171875q0.5625 -0.8125 0.890625 -2.140625q0.34375 -1.34375 0.34375 -3.3125zm6.37323 6.96875l3.703125 0l0 -11.734375q0 -0.53125 0.03125 -1.0625l-3.0625 2.625q-0.125 0.09375 -0.25 0.140625q-0.109375 0.046875 -0.21875 0.046875q-0.1875 0 -0.328125 -0.078125q-0.140625 -0.078125 -0.21875 -0.1875l-0.671875 -0.921875l5.109375 -4.4375l1.75 0l0 15.609375l3.375 0l0 1.625l-9.21875 0l0 -1.625zm23.68573 -6.96875q0 2.25 -0.484375 3.90625q-0.484375 1.65625 -1.328125 2.734375q-0.84375 1.078125 -2.0 1.609375q-1.140625 0.53125 -2.4375 0.53125q-1.328125 0 -2.46875 -0.53125q-1.125 -0.53125 -1.96875 -1.609375q-0.828125 -1.078125 -1.3125 -2.734375q-0.484375 -1.65625 -0.484375 -3.90625q0 -2.25 0.484375 -3.90625q0.484375 -1.65625 1.3125 -2.734375q0.84375 -1.09375 1.96875 -1.625q1.140625 -0.53125 2.46875 -0.53125q1.296875 0 2.4375 0.53125q1.15625 0.53125 2.0 1.625q0.84375 1.078125 1.328125 2.734375q0.484375 1.65625 0.484375 3.90625zm-2.21875 0q0 -1.96875 -0.34375 -3.296875q-0.328125 -1.34375 -0.890625 -2.15625q-0.546875 -0.828125 -1.28125 -1.171875q-0.734375 -0.359375 -1.515625 -0.359375q-0.796875 0 -1.53125 0.359375q-0.734375 0.34375 -1.28125 1.171875q-0.546875 0.8125 -0.890625 2.15625q-0.328125 1.328125 -0.328125 3.296875q0 1.96875 0.328125 3.3125q0.34375 1.328125 0.890625 2.140625q0.546875 0.8125 1.28125 1.171875q0.734375 0.34375 1.53125 0.34375q0.78125 0 1.515625 -0.34375q0.734375 -0.359375 1.28125 -1.171875q0.5625 -0.8125 0.890625 -2.140625q0.34375 -1.34375 0.34375 -3.3125z" fill-rule="nonzero"/><path fill="#000000" fill-opacity="0.0" d="m571.53033 166.76378l68.50397 0l0 33.88977l-68.50397 0z" fill-rule="evenodd"/><path fill="#000000" d="m598.1053 183.6549q0 2.25 -0.484375 3.90625q-0.484375 1.65625 -1.328125 2.734375q-0.84375 1.078125 -2.0 1.609375q-1.140625 0.53125 -2.4375 0.53125q-1.328125 0 -2.46875 -0.53125q-1.125 -0.53125 -1.96875 -1.609375q-0.828125 -1.078125 -1.3125 -2.734375q-0.484375 -1.65625 -0.484375 -3.90625q0 -2.25 0.484375 -3.90625q0.484375 -1.65625 1.3125 -2.734375q0.84375 -1.09375 1.96875 -1.625q1.140625 -0.53125 2.46875 -0.53125q1.296875 0 2.4375 0.53125q1.15625 0.53125 2.0 1.625q0.84375 1.078125 1.328125 2.734375q0.484375 1.65625 0.484375 3.90625zm-2.21875 0q0 -1.96875 -0.34375 -3.296875q-0.328125 -1.34375 -0.890625 -2.15625q-0.546875 -0.828125 -1.28125 -1.171875q-0.734375 -0.359375 -1.515625 -0.359375q-0.796875 0 -1.53125 0.359375q-0.734375 0.34375 -1.28125 1.171875q-0.546875 0.8125 -0.890625 2.15625q-0.328125 1.328125 -0.328125 3.296875q0 1.96875 0.328125 3.3125q0.34375 1.328125 0.890625 2.140625q0.546875 0.8125 1.28125 1.171875q0.734375 0.34375 1.53125 0.34375q0.78125 0 1.515625 -0.34375q0.734375 -0.359375 1.28125 -1.171875q0.5625 -0.8125 0.890625 -2.140625q0.34375 -1.34375 0.34375 -3.3125zm6.37323 6.96875l3.703125 0l0 -11.734375q0 -0.53125 0.03125 -1.0625l-3.0625 2.625q-0.125 0.09375 -0.25 0.140625q-0.109375 0.046875 -0.21875 0.046875q-0.1875 0 -0.328125 -0.078125q-0.140625 -0.078125 -0.21875 -0.1875l-0.671875 -0.921875l5.109375 -4.4375l1.75 0l0 15.609375l3.375 0l0 1.625l-9.21875 0l0 -1.625zm13.920105 0l3.703125 0l0 -11.734375q0 -0.53125 0.03125 -1.0625l-3.0625 2.625q-0.125 0.09375 -0.25 0.140625q-0.109375 0.046875 -0.21875 0.046875q-0.1875 0 -0.328125 -0.078125q-0.140625 -0.078125 -0.21875 -0.1875l-0.671875 -0.921875l5.109375 -4.4375l1.75 0l0 15.609375l3.375 0l0 1.625l-9.21875 0l0 -1.625z" fill-rule="nonzero"/><path fill="#000000" fill-opacity="0.0" d="m476.86523 16.535583l68.50391 0l0 33.889763l-68.50391 0z" fill-rule="evenodd"/><path fill="#000000" d="m518.4035 33.329216q0 2.640625 -0.578125 4.5625q-0.5625 1.921875 -1.546875 3.1875q-0.96875 1.265625 -2.3125 1.875q-1.34375 0.609375 -2.8594055 0.609375q-1.546875 0 -2.875 -0.609375q-1.3125 -0.609375 -2.296875 -1.875q-0.984375 -1.265625 -1.546875 -3.1875q-0.546875 -1.921875 -0.546875 -4.5625q0 -2.625002 0.546875 -4.546877q0.5625 -1.9375 1.546875 -3.203125q0.984375 -1.265625 2.296875 -1.875q1.328125 -0.625 2.875 -0.625q1.5156555 0 2.8594055 0.625q1.34375 0.609375 2.3125 1.875q0.984375 1.265625 1.546875 3.203125q0.578125 1.921875 0.578125 4.546877zm-2.59375 0q0 -2.281252 -0.390625 -3.843752q-0.375 -1.5625 -1.03125 -2.515625q-0.65625 -0.953125 -1.515625 -1.359375q-0.84375 -0.421875 -1.7656555 -0.421875q-0.921875 0 -1.78125 0.421875q-0.859375 0.40625 -1.5 1.359375q-0.640625 0.953125 -1.03125 2.515625q-0.375 1.5625 -0.375 3.843752q0 2.296875 0.375 3.859375q0.390625 1.546875 1.03125 2.5q0.640625 0.953125 1.5 1.375q0.859375 0.40625 1.78125 0.40625q0.9219055 0 1.7656555 -0.40625q0.859375 -0.421875 1.515625 -1.375q0.65625 -0.953125 1.03125 -2.5q0.390625 -1.5625 0.390625 -3.859375z" fill-rule="nonzero"/><path fill="#000000" fill-opacity="0.0" d="m795.0947 86.76509l68.50397 0l0 33.889763l-68.50397 0z" fill-rule="evenodd"/><path fill="#000000" d="m828.6297 103.65622q0 2.25 -0.484375 3.90625q-0.484375 1.65625 -1.328125 2.734375q-0.84375 1.078125 -2.0 1.609375q-1.140625 0.53125 -2.4375 0.53125q-1.328125 0 -2.46875 -0.53125q-1.125 -0.53125 -1.96875 -1.609375q-0.828125 -1.078125 -1.3125 -2.734375q-0.484375 -1.65625 -0.484375 -3.90625q0 -2.25 0.484375 -3.90625q0.484375 -1.65625 1.3125 -2.734375q0.84375 -1.09375 1.96875 -1.625q1.140625 -0.53125 2.46875 -0.53125q1.296875 0 2.4375 0.53125q1.15625 0.53125 2.0 1.625q0.84375 1.078125 1.328125 2.734375q0.484375 1.65625 0.484375 3.90625zm-2.21875 0q0 -1.96875 -0.34375 -3.296875q-0.328125 -1.34375 -0.890625 -2.15625q-0.546875 -0.828125 -1.28125 -1.171875q-0.734375 -0.359375 -1.515625 -0.359375q-0.796875 0 -1.53125 0.359375q-0.734375 0.34375 -1.28125 1.171875q-0.546875 0.8125 -0.890625 2.15625q-0.328125 1.328125 -0.328125 3.296875q0 1.96875 0.328125 3.3125q0.34375 1.328125 0.890625 2.140625q0.546875 0.8125 1.28125 1.171875q0.734375 0.34375 1.53125 0.34375q0.78125 0 1.515625 -0.34375q0.734375 -0.359375 1.28125 -1.171875q0.5625 -0.8125 0.890625 -2.140625q0.34375 -1.34375 0.34375 -3.3125zm6.37323 6.96875l3.703125 0l0 -11.734375q0 -0.53125 0.03125 -1.0625l-3.0625 2.625q-0.125 0.09375 -0.25 0.140625q-0.109375 0.046875 -0.21875 0.046875q-0.1875 0 -0.328125 -0.078125q-0.140625 -0.078125 -0.21875 -0.1875l-0.671875 -0.921875l5.109375 -4.4375l1.75 0l0 15.609375l3.375 0l0 1.625l-9.21875 0l0 -1.625z" fill-rule="nonzero"/><path fill="#000000" fill-opacity="0.0" d="m635.33514 166.7664l68.50397 0l0 33.88977l-68.50397 0z" fill-rule="evenodd"/><path fill="#000000" d="m661.9101 183.65753q0 2.25 -0.484375 3.90625q-0.484375 1.65625 -1.328125 2.734375q-0.84375 1.078125 -2.0 1.609375q-1.140625 0.53125 -2.4375 0.53125q-1.328125 0 -2.46875 -0.53125q-1.125 -0.53125 -1.96875 -1.609375q-0.828125 -1.078125 -1.3125 -2.734375q-0.484375 -1.65625 -0.484375 -3.90625q0 -2.25 0.484375 -3.90625q0.484375 -1.65625 1.3125 -2.734375q0.84375 -1.09375 1.96875 -1.625q1.140625 -0.53125 2.46875 -0.53125q1.296875 0 2.4375 0.53125q1.15625 0.53125 2.0 1.625q0.84375 1.078125 1.328125 2.734375q0.484375 1.65625 0.484375 3.90625zm-2.21875 0q0 -1.96875 -0.34375 -3.296875q-0.328125 -1.34375 -0.890625 -2.15625q-0.546875 -0.828125 -1.28125 -1.171875q-0.734375 -0.359375 -1.515625 -0.359375q-0.796875 0 -1.53125 0.359375q-0.734375 0.34375 -1.28125 1.171875q-0.546875 0.8125 -0.890625 2.15625q-0.328125 1.328125 -0.328125 3.296875q0 1.96875 0.328125 3.3125q0.34375 1.328125 0.890625 2.140625q0.546875 0.8125 1.28125 1.171875q0.734375 0.34375 1.53125 0.34375q0.78125 0 1.515625 -0.34375q0.734375 -0.359375 1.28125 -1.171875q0.5625 -0.8125 0.890625 -2.140625q0.34375 -1.34375 0.34375 -3.3125zm16.138855 0q0 2.25 -0.484375 3.90625q-0.484375 1.65625 -1.328125 2.734375q-0.84375 1.078125 -2.0 1.609375q-1.140625 0.53125 -2.4375 0.53125q-1.328125 0 -2.46875 -0.53125q-1.125 -0.53125 -1.96875 -1.609375q-0.828125 -1.078125 -1.3125 -2.734375q-0.484375 -1.65625 -0.484375 -3.90625q0 -2.25 0.484375 -3.90625q0.484375 -1.65625 1.3125 -2.734375q0.84375 -1.09375 1.96875 -1.625q1.140625 -0.53125 2.46875 -0.53125q1.296875 0 2.4375 0.53125q1.15625 0.53125 2.0 1.625q0.84375 1.078125 1.328125 2.734375q0.484375 1.65625 0.484375 3.90625zm-2.21875 0q0 -1.96875 -0.34375 -3.296875q-0.328125 -1.34375 -0.890625 -2.15625q-0.546875 -0.828125 -1.28125 -1.171875q-0.734375 -0.359375 -1.515625 -0.359375q-0.796875 0 -1.53125 0.359375q-0.734375 0.34375 -1.28125 1.171875q-0.546875 0.8125 -0.890625 2.15625q-0.328125 1.328125 -0.328125 3.296875q0 1.96875 0.328125 3.3125q0.34375 1.328125 0.890625 2.140625q0.546875 0.8125 1.28125 1.171875q0.734375 0.34375 1.53125 0.34375q0.78125 0 1.515625 -0.34375q0.734375 -0.359375 1.28125 -1.171875q0.5625 -0.8125 0.890625 -2.140625q0.34375 -1.34375 0.34375 -3.3125zm16.138855 0q0 2.25 -0.484375 3.90625q-0.484375 1.65625 -1.328125 2.734375q-0.84375 1.078125 -2.0 1.609375q-1.140625 0.53125 -2.4375 0.53125q-1.328125 0 -2.46875 -0.53125q-1.125 -0.53125 -1.96875 -1.609375q-0.828125 -1.078125 -1.3125 -2.734375q-0.484375 -1.65625 -0.484375 -3.90625q0 -2.25 0.484375 -3.90625q0.484375 -1.65625 1.3125 -2.734375q0.84375 -1.09375 1.96875 -1.625q1.140625 -0.53125 2.46875 -0.53125q1.296875 0 2.4375 0.53125q1.15625 0.53125 2.0 1.625q0.84375 1.078125 1.328125 2.734375q0.484375 1.65625 0.484375 3.90625zm-2.21875 0q0 -1.96875 -0.34375 -3.296875q-0.328125 -1.34375 -0.890625 -2.15625q-0.546875 -0.828125 -1.28125 -1.171875q-0.734375 -0.359375 -1.515625 -0.359375q-0.796875 0 -1.53125 0.359375q-0.734375 0.34375 -1.28125 1.171875q-0.546875 0.8125 -0.890625 2.15625q-0.328125 1.328125 -0.328125 3.296875q0 1.96875 0.328125 3.3125q0.34375 1.328125 0.890625 2.140625q0.546875 0.8125 1.28125 1.171875q0.734375 0.34375 1.53125 0.34375q0.78125 0 1.515625 -0.34375q0.734375 -0.359375 1.28125 -1.171875q0.5625 -0.8125 0.890625 -2.140625q0.34375 -1.34375 0.34375 -3.3125z" fill-rule="nonzero"/><path fill="#000000" fill-opacity="0.0" d="m698.6451 166.76378l68.50397 0l0 33.88977l-68.50397 0z" fill-rule="evenodd"/><path fill="#000000" d="m725.22003 183.6549q0 2.25 -0.484375 3.90625q-0.484375 1.65625 -1.328125 2.734375q-0.84375 1.078125 -2.0 1.609375q-1.140625 0.53125 -2.4375 0.53125q-1.328125 0 -2.46875 -0.53125q-1.125 -0.53125 -1.96875 -1.609375q-0.828125 -1.078125 -1.3125 -2.734375q-0.484375 -1.65625 -0.484375 -3.90625q0 -2.25 0.484375 -3.90625q0.484375 -1.65625 1.3125 -2.734375q0.84375 -1.09375 1.96875 -1.625q1.140625 -0.53125 2.46875 -0.53125q1.296875 0 2.4375 0.53125q1.15625 0.53125 2.0 1.625q0.84375 1.078125 1.328125 2.734375q0.484375 1.65625 0.484375 3.90625zm-2.21875 0q0 -1.96875 -0.34375 -3.296875q-0.328125 -1.34375 -0.890625 -2.15625q-0.546875 -0.828125 -1.28125 -1.171875q-0.734375 -0.359375 -1.515625 -0.359375q-0.796875 0 -1.53125 0.359375q-0.734375 0.34375 -1.28125 1.171875q-0.546875 0.8125 -0.890625 2.15625q-0.328125 1.328125 -0.328125 3.296875q0 1.96875 0.328125 3.3125q0.34375 1.328125 0.890625 2.140625q0.546875 0.8125 1.28125 1.171875q0.734375 0.34375 1.53125 0.34375q0.78125 0 1.515625 -0.34375q0.734375 -0.359375 1.28125 -1.171875q0.5625 -0.8125 0.890625 -2.140625q0.34375 -1.34375 0.34375 -3.3125zm16.138855 0q0 2.25 -0.484375 3.90625q-0.484375 1.65625 -1.328125 2.734375q-0.84375 1.078125 -2.0 1.609375q-1.140625 0.53125 -2.4375 0.53125q-1.328125 0 -2.46875 -0.53125q-1.125 -0.53125 -1.96875 -1.609375q-0.828125 -1.078125 -1.3125 -2.734375q-0.484375 -1.65625 -0.484375 -3.90625q0 -2.25 0.484375 -3.90625q0.484375 -1.65625 1.3125 -2.734375q0.84375 -1.09375 1.96875 -1.625q1.140625 -0.53125 2.46875 -0.53125q1.296875 0 2.4375 0.53125q1.15625 0.53125 2.0 1.625q0.84375 1.078125 1.328125 2.734375q0.484375 1.65625 0.484375 3.90625zm-2.21875 0q0 -1.96875 -0.34375 -3.296875q-0.328125 -1.34375 -0.890625 -2.15625q-0.546875 -0.828125 -1.28125 -1.171875q-0.734375 -0.359375 -1.515625 -0.359375q-0.796875 0 -1.53125 0.359375q-0.734375 0.34375 -1.28125 1.171875q-0.546875 0.8125 -0.890625 2.15625q-0.328125 1.328125 -0.328125 3.296875q0 1.96875 0.328125 3.3125q0.34375 1.328125 0.890625 2.140625q0.546875 0.8125 1.28125 1.171875q0.734375 0.34375 1.53125 0.34375q0.78125 0 1.515625 -0.34375q0.734375 -0.359375 1.28125 -1.171875q0.5625 -0.8125 0.890625 -2.140625q0.34375 -1.34375 0.34375 -3.3125zm6.37323 6.96875l3.703125 0l0 -11.734375q0 -0.53125 0.03125 -1.0625l-3.0625 2.625q-0.125 0.09375 -0.25 0.140625q-0.109375 0.046875 -0.21875 0.046875q-0.1875 0 -0.328125 -0.078125q-0.140625 -0.078125 -0.21875 -0.1875l-0.671875 -0.921875l5.109375 -4.4375l1.75 0l0 15.609375l3.375 0l0 1.625l-9.21875 0l0 -1.625z" fill-rule="nonzero"/><path fill="#000000" fill-opacity="0.0" d="m762.6451 166.76378l68.50397 0l0 33.88977l-68.50397 0z" fill-rule="evenodd"/><path fill="#000000" d="m789.22003 183.6549q0 2.25 -0.484375 3.90625q-0.484375 1.65625 -1.328125 2.734375q-0.84375 1.078125 -2.0 1.609375q-1.140625 0.53125 -2.4375 0.53125q-1.328125 0 -2.46875 -0.53125q-1.125 -0.53125 -1.96875 -1.609375q-0.828125 -1.078125 -1.3125 -2.734375q-0.484375 -1.65625 -0.484375 -3.90625q0 -2.25 0.484375 -3.90625q0.484375 -1.65625 1.3125 -2.734375q0.84375 -1.09375 1.96875 -1.625q1.140625 -0.53125 2.46875 -0.53125q1.296875 0 2.4375 0.53125q1.15625 0.53125 2.0 1.625q0.84375 1.078125 1.328125 2.734375q0.484375 1.65625 0.484375 3.90625zm-2.21875 0q0 -1.96875 -0.34375 -3.296875q-0.328125 -1.34375 -0.890625 -2.15625q-0.546875 -0.828125 -1.28125 -1.171875q-0.734375 -0.359375 -1.515625 -0.359375q-0.796875 0 -1.53125 0.359375q-0.734375 0.34375 -1.28125 1.171875q-0.546875 0.8125 -0.890625 2.15625q-0.328125 1.328125 -0.328125 3.296875q0 1.96875 0.328125 3.3125q0.34375 1.328125 0.890625 2.140625q0.546875 0.8125 1.28125 1.171875q0.734375 0.34375 1.53125 0.34375q0.78125 0 1.515625 -0.34375q0.734375 -0.359375 1.28125 -1.171875q0.5625 -0.8125 0.890625 -2.140625q0.34375 -1.34375 0.34375 -3.3125zm6.37323 6.96875l3.703125 0l0 -11.734375q0 -0.53125 0.03125 -1.0625l-3.0625 2.625q-0.125 0.09375 -0.25 0.140625q-0.109375 0.046875 -0.21875 0.046875q-0.1875 0 -0.328125 -0.078125q-0.140625 -0.078125 -0.21875 -0.1875l-0.671875 -0.921875l5.109375 -4.4375l1.75 0l0 15.609375l3.375 0l0 1.625l-9.21875 0l0 -1.625zm23.68573 -6.96875q0 2.25 -0.484375 3.90625q-0.484375 1.65625 -1.328125 2.734375q-0.84375 1.078125 -2.0 1.609375q-1.140625 0.53125 -2.4375 0.53125q-1.328125 0 -2.46875 -0.53125q-1.125 -0.53125 -1.96875 -1.609375q-0.828125 -1.078125 -1.3125 -2.734375q-0.484375 -1.65625 -0.484375 -3.90625q0 -2.25 0.484375 -3.90625q0.484375 -1.65625 1.3125 -2.734375q0.84375 -1.09375 1.96875 -1.625q1.140625 -0.53125 2.46875 -0.53125q1.296875 0 2.4375 0.53125q1.15625 0.53125 2.0 1.625q0.84375 1.078125 1.328125 2.734375q0.484375 1.65625 0.484375 3.90625zm-2.21875 0q0 -1.96875 -0.34375 -3.296875q-0.328125 -1.34375 -0.890625 -2.15625q-0.546875 -0.828125 -1.28125 -1.171875q-0.734375 -0.359375 -1.515625 -0.359375q-0.796875 0 -1.53125 0.359375q-0.734375 0.34375 -1.28125 1.171875q-0.546875 0.8125 -0.890625 2.15625q-0.328125 1.328125 -0.328125 3.296875q0 1.96875 0.328125 3.3125q0.34375 1.328125 0.890625 2.140625q0.546875 0.8125 1.28125 1.171875q0.734375 0.34375 1.53125 0.34375q0.78125 0 1.515625 -0.34375q0.734375 -0.359375 1.28125 -1.171875q0.5625 -0.8125 0.890625 -2.140625q0.34375 -1.34375 0.34375 -3.3125z" fill-rule="nonzero"/><path fill="#000000" fill-opacity="0.0" d="m827.53033 166.76378l68.50397 0l0 33.88977l-68.50397 0z" fill-rule="evenodd"/><path fill="#000000" d="m854.1053 183.6549q0 2.25 -0.484375 3.90625q-0.484375 1.65625 -1.328125 2.734375q-0.84375 1.078125 -2.0 1.609375q-1.140625 0.53125 -2.4375 0.53125q-1.328125 0 -2.46875 -0.53125q-1.125 -0.53125 -1.96875 -1.609375q-0.828125 -1.078125 -1.3125 -2.734375q-0.484375 -1.65625 -0.484375 -3.90625q0 -2.25 0.484375 -3.90625q0.484375 -1.65625 1.3125 -2.734375q0.84375 -1.09375 1.96875 -1.625q1.140625 -0.53125 2.46875 -0.53125q1.296875 0 2.4375 0.53125q1.15625 0.53125 2.0 1.625q0.84375 1.078125 1.328125 2.734375q0.484375 1.65625 0.484375 3.90625zm-2.21875 0q0 -1.96875 -0.34375 -3.296875q-0.328125 -1.34375 -0.890625 -2.15625q-0.546875 -0.828125 -1.28125 -1.171875q-0.734375 -0.359375 -1.515625 -0.359375q-0.796875 0 -1.53125 0.359375q-0.734375 0.34375 -1.28125 1.171875q-0.546875 0.8125 -0.890625 2.15625q-0.328125 1.328125 -0.328125 3.296875q0 1.96875 0.328125 3.3125q0.34375 1.328125 0.890625 2.140625q0.546875 0.8125 1.28125 1.171875q0.734375 0.34375 1.53125 0.34375q0.78125 0 1.515625 -0.34375q0.734375 -0.359375 1.28125 -1.171875q0.5625 -0.8125 0.890625 -2.140625q0.34375 -1.34375 0.34375 -3.3125zm6.37323 6.96875l3.703125 0l0 -11.734375q0 -0.53125 0.03125 -1.0625l-3.0625 2.625q-0.125 0.09375 -0.25 0.140625q-0.109375 0.046875 -0.21875 0.046875q-0.1875 0 -0.328125 -0.078125q-0.140625 -0.078125 -0.21875 -0.1875l-0.671875 -0.921875l5.109375 -4.4375l1.75 0l0 15.609375l3.375 0l0 1.625l-9.21875 0l0 -1.625zm13.920105 0l3.703125 0l0 -11.734375q0 -0.53125 0.03125 -1.0625l-3.0625 2.625q-0.125 0.09375 -0.25 0.140625q-0.109375 0.046875 -0.21875 0.046875q-0.1875 0 -0.328125 -0.078125q-0.140625 -0.078125 -0.21875 -0.1875l-0.671875 -0.921875l5.109375 -4.4375l1.75 0l0 15.609375l3.375 0l0 1.625l-9.21875 0l0 -1.625z" fill-rule="nonzero"/><path fill="#000000" fill-opacity="0.0" d="m731.0947 16.535583l68.50397 0l0 33.889763l-68.50397 0z" fill-rule="evenodd"/><path fill="#000000" d="m772.633 33.329216q0 2.640625 -0.578125 4.5625q-0.5625 1.921875 -1.546875 3.1875q-0.96875 1.265625 -2.3125 1.875q-1.34375 0.609375 -2.859375 0.609375q-1.546875 0 -2.875 -0.609375q-1.3125 -0.609375 -2.296875 -1.875q-0.984375 -1.265625 -1.546875 -3.1875q-0.546875 -1.921875 -0.546875 -4.5625q0 -2.625002 0.546875 -4.546877q0.5625 -1.9375 1.546875 -3.203125q0.984375 -1.265625 2.296875 -1.875q1.328125 -0.625 2.875 -0.625q1.515625 0 2.859375 0.625q1.34375 0.609375 2.3125 1.875q0.984375 1.265625 1.546875 3.203125q0.578125 1.921875 0.578125 4.546877zm-2.59375 0q0 -2.281252 -0.390625 -3.843752q-0.375 -1.5625 -1.03125 -2.515625q-0.65625 -0.953125 -1.515625 -1.359375q-0.84375 -0.421875 -1.765625 -0.421875q-0.921875 0 -1.78125 0.421875q-0.859375 0.40625 -1.5 1.359375q-0.640625 0.953125 -1.03125 2.515625q-0.375 1.5625 -0.375 3.843752q0 2.296875 0.375 3.859375q0.390625 1.546875 1.03125 2.5q0.640625 0.953125 1.5 1.375q0.859375 0.40625 1.78125 0.40625q0.921875 0 1.765625 -0.40625q0.859375 -0.421875 1.515625 -1.375q0.65625 -0.953125 1.03125 -2.5q0.390625 -1.5625 0.390625 -3.859375z" fill-rule="nonzero"/><path fill="#000000" fill-opacity="0.0" d="m884.4156 166.76378l68.50397 0l0 33.88977l-68.50397 0z" fill-rule="evenodd"/><path fill="#000000" d="m901.2249 190.62366l3.703125 0l0 -11.734375q0 -0.53125 0.03125 -1.0625l-3.0625 2.625q-0.125 0.09375 -0.25 0.140625q-0.109375 0.046875 -0.21875 0.046875q-0.1875 0 -0.328125 -0.078125q-0.140625 -0.078125 -0.21875 -0.1875l-0.671875 -0.921875l5.109375 -4.4375l1.75 0l0 15.609375l3.375 0l0 1.625l-9.21875 0l0 -1.625zm13.920105 0l3.703125 0l0 -11.734375q0 -0.53125 0.03125 -1.0625l-3.0625 2.625q-0.125 0.09375 -0.25 0.140625q-0.109375 0.046875 -0.21875 0.046875q-0.1875 0 -0.328125 -0.078125q-0.140625 -0.078125 -0.21875 -0.1875l-0.671875 -0.921875l5.109375 -4.4375l1.75 0l0 15.609375l3.375 0l0 1.625l-9.21875 0l0 -1.625zm13.920105 0l3.703125 0l0 -11.734375q0 -0.53125 0.03125 -1.0625l-3.0625 2.625q-0.125 0.09375 -0.25 0.140625q-0.109375 0.046875 -0.21875 0.046875q-0.1875 0 -0.328125 -0.078125q-0.140625 -0.078125 -0.21875 -0.1875l-0.671875 -0.921875l5.109375 -4.4375l1.75 0l0 15.609375l3.375 0l0 1.625l-9.21875 0l0 -1.625z" fill-rule="nonzero"/></g></svg>