<svg version="1.1" viewBox="0.0 0.0 960.0 540.0" fill="none" stroke="none" stroke-linecap="square" stroke-miterlimit="10" xmlns:xlink="http://www.w3.org/1999/xlink" xmlns="http://www.w3.org/2000/svg"><clipPath id="g6d7e002718_0_103.0"><path d="m0 0l960.0 0l0 540.0l-960.0 0l0 -540.0z" clip-rule="nonzero"/></clipPath><g clip-path="url(#g6d7e002718_0_103.0)"><path fill="#ffffff" d="m0 0l960.0 0l0 540.0l-960.0 0z" fill-rule="evenodd"/><path fill="#000000" fill-opacity="0.0" d="m540.05414 196.25569l404.66144 -168.28348" fill-rule="evenodd"/><path stroke="#b58900" stroke-width="2.0" stroke-linejoin="round" stroke-linecap="butt" d="m540.05414 196.25569l404.66144 -168.28348" fill-rule="evenodd"/><path fill="#859900" d="m207.31375 441.56967l0 0c0 -15.107391 12.253998 -27.35434 27.370071 -27.35434l0 0c7.2590027 0 14.220688 2.881958 19.353577 8.011902c5.132889 5.1299133 8.016495 12.087616 8.016495 19.342438l0 0c0 15.107361 -12.253983 27.35431 -27.370071 27.35431l0 0c-15.116074 0 -27.370071 -12.246948 -27.370071 -27.35431z" fill-rule="evenodd"/><path stroke="#859900" stroke-width="1.0" stroke-linejoin="round" stroke-linecap="butt" d="m207.31375 441.56967l0 0c0 -15.107391 12.253998 -27.35434 27.370071 -27.35434l0 0c7.2590027 0 14.220688 2.881958 19.353577 8.011902c5.132889 5.1299133 8.016495 12.087616 8.016495 19.342438l0 0c0 15.107361 -12.253983 27.35431 -27.370071 27.35431l0 0c-15.116074 0 -27.370071 -12.246948 -27.370071 -27.35431z" fill-rule="evenodd"/><path fill="#859900" d="m536.2636 441.56967l0 0c0 -15.107391 12.253967 -27.35434 27.370056 -27.35434l0 0c7.259033 0 14.220703 2.881958 19.353577 8.011902c5.1328735 5.1299133 8.016541 12.087616 8.016541 19.342438l0 0c0 15.107361 -12.254028 27.35431 -27.370117 27.35431l0 0c-15.116089 0 -27.370056 -12.246948 -27.370056 -27.35431z" fill-rule="evenodd"/><path stroke="#859900" stroke-width="1.0" stroke-linejoin="round" stroke-linecap="butt" d="m536.2636 441.56967l0 0c0 -15.107391 12.253967 -27.35434 27.370056 -27.35434l0 0c7.259033 0 14.220703 2.881958 19.353577 8.011902c5.1328735 5.1299133 8.016541 12.087616 8.016541 19.342438l0 0c0 15.107361 -12.254028 27.35431 -27.370117 27.35431l0 0c-15.116089 0 -27.370056 -12.246948 -27.370056 -27.35431z" fill-rule="evenodd"/><path fill="#000000" fill-opacity="0.0" d="m500.8127 378.26346l43.46457 43.968506" fill-rule="evenodd"/><path stroke="#859900" stroke-width="2.0" stroke-linejoin="round" stroke-linecap="butt" d="m500.8127 378.26346l43.46457 43.968506" fill-rule="evenodd"/><path fill="#000000" fill-opacity="0.0" d="m405.39267 436.487l60.97638 -59.93701" fill-rule="evenodd"/><path stroke="#dc322f" stroke-width="3.0" stroke-linejoin="round" stroke-linecap="butt" stroke-dasharray="12.0,9.0" d="m405.39267 436.487l60.97638 -59.93701" fill-rule="evenodd"/><path fill="#dc322f" d="m380.4048 426.5168l6.048462 -6.048462l15.167633 15.167603l15.167603 -15.167603l6.048462 6.048462l-15.167603 15.167603l15.167603 15.167603l-6.048462 6.048462l-15.167603 -15.167603l-15.167633 15.167603l-6.048462 -6.048462l15.167603 -15.167603z" fill-rule="evenodd"/><path stroke="#dc322f" stroke-width="1.0" stroke-linejoin="round" stroke-linecap="butt" d="m380.4048 426.5168l6.048462 -6.048462l15.167633 15.167603l15.167603 -15.167603l6.048462 6.048462l-15.167603 15.167603l15.167603 15.167603l-6.048462 6.048462l-15.167603 -15.167603l-15.167633 15.167603l-6.048462 -6.048462l15.167603 -15.167603z" fill-rule="evenodd"/><path fill="#859900" d="m508.82922 358.92102l0 0c0 -15.107391 -12.253998 -27.35434 -27.370056 -27.35434l0 0c-7.2590027 0 -14.220703 2.881958 -19.353577 8.011902c-5.132904 5.129944 -8.01651 12.087616 -8.01651 19.342438l0 0c0 15.107361 12.253998 27.35434 27.370087 27.35434l0 0c15.116058 0 27.370056 -12.246979 27.370056 -27.35434z" fill-rule="evenodd"/><path stroke="#859900" stroke-width="1.0" stroke-linejoin="round" stroke-linecap="butt" d="m508.82922 358.92102l0 0c0 -15.107391 -12.253998 -27.35434 -27.370056 -27.35434l0 0c-7.2590027 0 -14.220703 2.881958 -19.353577 8.011902c-5.132904 5.129944 -8.01651 12.087616 -8.01651 19.342438l0 0c0 15.107361 12.253998 27.35434 27.370087 27.35434l0 0c15.116058 0 27.370056 -12.246979 27.370056 -27.35434z" fill-rule="evenodd"/><path fill="#000000" fill-opacity="0.0" d="m-74.5469 325.02872l194.07874 0l0 64.629944l-194.07874 0z" fill-rule="evenodd"/><path fill="#b58900" d="m24.21853 357.49432q0 2.125 -0.46875 3.6875q-0.453125 1.5625 -1.25 2.578125q-0.796875 1.015625 -1.875 1.515625q-1.078125 0.5 -2.3125 0.5q-1.25 0 -2.328126 -0.5q-1.0625 -0.5 -1.859375 -1.515625q-0.78125 -1.015625 -1.234375 -2.578125q-0.453125 -1.5625 -0.453125 -3.6875q0 -2.125 0.453125 -3.6875q0.453125 -1.578125 1.234375 -2.59375q0.796875 -1.03125 1.859375 -1.53125q1.078126 -0.5 2.328126 -0.5q1.234375 0 2.3125 0.5q1.078125 0.5 1.875 1.53125q0.796875 1.015625 1.25 2.59375q0.46875 1.5625 0.46875 3.6875zm-2.109375 0q0 -1.859375 -0.3125 -3.125q-0.296875 -1.265625 -0.828125 -2.03125q-0.53125 -0.765625 -1.21875 -1.09375q-0.6875 -0.34375 -1.4375 -0.34375q-0.75 0 -1.453125 0.34375q-0.6875 0.328125 -1.203126 1.09375q-0.515625 0.765625 -0.828125 2.03125q-0.3125 1.265625 -0.3125 3.125q0 1.859375 0.3125 3.125q0.3125 1.25 0.828125 2.015625q0.51562595 0.765625 1.203126 1.109375q0.703125 0.328125 1.453125 0.328125q0.75 0 1.4375 -0.328125q0.6875 -0.34375 1.21875 -1.109375q0.53125 -0.765625 0.828125 -2.015625q0.3125 -1.265625 0.3125 -3.125zm15.250105 0q0 2.125 -0.46875 3.6875q-0.453125 1.5625 -1.25 2.578125q-0.796875 1.015625 -1.875 1.515625q-1.078125 0.5 -2.312498 0.5q-1.25 0 -2.328125 -0.5q-1.0625 -0.5 -1.859375 -1.515625q-0.78125 -1.015625 -1.234375 -2.578125q-0.453125 -1.5625 -0.453125 -3.6875q0 -2.125 0.453125 -3.6875q0.453125 -1.578125 1.234375 -2.59375q0.796875 -1.03125 1.859375 -1.53125q1.078125 -0.5 2.328125 -0.5q1.2343731 0 2.312498 0.5q1.078125 0.5 1.875 1.53125q0.796875 1.015625 1.25 2.59375q0.46875 1.5625 0.46875 3.6875zm-2.109375 0q0 -1.859375 -0.3125 -3.125q-0.296875 -1.265625 -0.828125 -2.03125q-0.53125 -0.765625 -1.21875 -1.09375q-0.6875 -0.34375 -1.4374981 -0.34375q-0.75 0 -1.453125 0.34375q-0.6875 0.328125 -1.203125 1.09375q-0.515625 0.765625 -0.828125 2.03125q-0.3125 1.265625 -0.3125 3.125q0 1.859375 0.3125 3.125q0.3125 1.25 0.828125 2.015625q0.515625 0.765625 1.203125 1.109375q0.703125 0.328125 1.453125 0.328125q0.7499981 0 1.4374981 -0.328125q0.6875 -0.34375 1.21875 -1.109375q0.53125 -0.765625 0.828125 -2.015625q0.3125 -1.265625 0.3125 -3.125zm15.250107 0q0 2.125 -0.46875 3.6875q-0.453125 1.5625 -1.25 2.578125q-0.796875 1.015625 -1.875 1.515625q-1.078125 0.5 -2.3125 0.5q-1.25 0 -2.328125 -0.5q-1.0625 -0.5 -1.859375 -1.515625q-0.78125 -1.015625 -1.234375 -2.578125q-0.453125 -1.5625 -0.453125 -3.6875q0 -2.125 0.453125 -3.6875q0.453125 -1.578125 1.234375 -2.59375q0.796875 -1.03125 1.859375 -1.53125q1.078125 -0.5 2.328125 -0.5q1.234375 0 2.3125 0.5q1.078125 0.5 1.875 1.53125q0.796875 1.015625 1.25 2.59375q0.46875 1.5625 0.46875 3.6875zm-2.109375 0q0 -1.859375 -0.3125 -3.125q-0.296875 -1.265625 -0.828125 -2.03125q-0.53125 -0.765625 -1.21875 -1.09375q-0.6875 -0.34375 -1.4375 -0.34375q-0.75 0 -1.453125 0.34375q-0.6875 0.328125 -1.203125 1.09375q-0.515625 0.765625 -0.828125 2.03125q-0.3125 1.265625 -0.3125 3.125q0 1.859375 0.3125 3.125q0.3125 1.25 0.828125 2.015625q0.515625 0.765625 1.203125 1.109375q0.703125 0.328125 1.453125 0.328125q0.75 0 1.4375 -0.328125q0.6875 -0.34375 1.21875 -1.109375q0.53125 -0.765625 0.828125 -2.015625q0.3125 -1.265625 0.3125 -3.125zm15.250107 0q0 2.125 -0.46875 3.6875q-0.453125 1.5625 -1.25 2.578125q-0.796875 1.015625 -1.875 1.515625q-1.078125 0.5 -2.3125 0.5q-1.25 0 -2.328125 -0.5q-1.0625 -0.5 -1.859375 -1.515625q-0.78125 -1.015625 -1.234375 -2.578125q-0.453125 -1.5625 -0.453125 -3.6875q0 -2.125 0.453125 -3.6875q0.453125 -1.578125 1.234375 -2.59375q0.796875 -1.03125 1.859375 -1.53125q1.078125 -0.5 2.328125 -0.5q1.234375 0 2.3125 0.5q1.078125 0.5 1.875 1.53125q0.796875 1.015625 1.25 2.59375q0.46875 1.5625 0.46875 3.6875zm-2.109375 0q0 -1.859375 -0.3125 -3.125q-0.296875 -1.265625 -0.828125 -2.03125q-0.53125 -0.765625 -1.21875 -1.09375q-0.6875 -0.34375 -1.4375 -0.34375q-0.75 0 -1.453125 0.34375q-0.6875 0.328125 -1.203125 1.09375q-0.515625 0.765625 -0.828125 2.03125q-0.3125 1.265625 -0.3125 3.125q0 1.859375 0.3125 3.125q0.3125 1.25 0.828125 2.015625q0.515625 0.765625 1.203125 1.109375q0.703125 0.328125 1.453125 0.328125q0.75 0 1.4375 -0.328125q0.6875 -0.34375 1.21875 -1.109375q0.53125 -0.765625 0.828125 -2.015625q0.3125 -1.265625 0.3125 -3.125z" fill-rule="nonzero"/><path fill="#000000" d="m66.625206 348.07245l2.171875 0l0 21.328125l-2.171875 0l0 -21.328125z" fill-rule="nonzero"/><path fill="#859900" d="m83.68777 357.4162q0 2.140625 -0.46875 3.71875q-0.453125 1.578125 -1.265625 2.609375q-0.8125 1.03125 -1.921875 1.546875q-1.09375 0.5 -2.375 0.5q-1.28125 0 -2.375 -0.5q-1.09375 -0.515625 -1.90625 -1.546875q-0.796875 -1.03125 -1.25 -2.609375q-0.453125 -1.578125 -0.453125 -3.71875q0 -2.15625 0.453125 -3.71875q0.453125 -1.578125 1.25 -2.609375q0.8125 -1.03125 1.90625 -1.53125q1.09375 -0.515625 2.375 -0.515625q1.28125 0 2.375 0.515625q1.109375 0.5 1.921875 1.53125q0.8125 1.03125 1.265625 2.609375q0.46875 1.5625 0.46875 3.71875zm-2.890625 0q0 -1.78125 -0.265625 -2.9375q-0.25 -1.171875 -0.6875 -1.859375q-0.4375 -0.703125 -1.015625 -0.96875q-0.5625 -0.28125 -1.171875 -0.28125q-0.59375 0 -1.15625 0.28125q-0.5625 0.265625 -1.0 0.96875q-0.421875 0.6875 -0.6875 1.859375q-0.25 1.15625 -0.25 2.9375q0 1.78125 0.25 2.953125q0.265625 1.15625 0.6875 1.84375q0.4375 0.6875 1.0 0.96875q0.5625 0.28125 1.15625 0.28125q0.609375 0 1.171875 -0.28125q0.578125 -0.28125 1.015625 -0.96875q0.4375 -0.6875 0.6875 -1.84375q0.265625 -1.171875 0.265625 -2.953125zm16.031357 0q0 2.140625 -0.46875 3.71875q-0.453125 1.578125 -1.265625 2.609375q-0.8125 1.03125 -1.921875 1.546875q-1.09375 0.5 -2.375 0.5q-1.28125 0 -2.375 -0.5q-1.09375 -0.515625 -1.90625 -1.546875q-0.796875 -1.03125 -1.25 -2.609375q-0.453125 -1.578125 -0.453125 -3.71875q0 -2.15625 0.453125 -3.71875q0.453125 -1.578125 1.25 -2.609375q0.8125 -1.03125 1.90625 -1.53125q1.09375 -0.515625 2.375 -0.515625q1.28125 0 2.375 0.515625q1.109375 0.5 1.921875 1.53125q0.8125 1.03125 1.265625 2.609375q0.46875 1.5625 0.46875 3.71875zm-2.890625 0q0 -1.78125 -0.265625 -2.9375q-0.25 -1.171875 -0.6875 -1.859375q-0.4375 -0.703125 -1.015625 -0.96875q-0.5625 -0.28125 -1.171875 -0.28125q-0.59375 0 -1.15625 0.28125q-0.5625 0.265625 -1.0 0.96875q-0.421875 0.6875 -0.6875 1.859375q-0.25 1.15625 -0.25 2.9375q0 1.78125 0.25 2.953125q0.265625 1.15625 0.6875 1.84375q0.4375 0.6875 1.0 0.96875q0.5625 0.28125 1.15625 0.28125q0.609375 0 1.171875 -0.28125q0.578125 -0.28125 1.015625 -0.96875q0.4375 -0.6875 0.6875 -1.84375q0.265625 -1.171875 0.265625 -2.953125zm16.031357 0q0 2.140625 -0.46875 3.71875q-0.453125 1.578125 -1.265625 2.609375q-0.8125 1.03125 -1.921875 1.546875q-1.09375 0.5 -2.375 0.5q-1.28125 0 -2.375 -0.5q-1.09375 -0.515625 -1.90625 -1.546875q-0.796875 -1.03125 -1.25 -2.609375q-0.453125 -1.578125 -0.453125 -3.71875q0 -2.15625 0.453125 -3.71875q0.453125 -1.578125 1.25 -2.609375q0.8125 -1.03125 1.90625 -1.53125q1.09375 -0.515625 2.375 -0.515625q1.28125 0 2.375 0.515625q1.109375 0.5 1.921875 1.53125q0.8125 1.03125 1.265625 2.609375q0.46875 1.5625 0.46875 3.71875zm-2.890625 0q0 -1.78125 -0.265625 -2.9375q-0.25 -1.171875 -0.6875 -1.859375q-0.4375 -0.703125 -1.015625 -0.96875q-0.5625 -0.28125 -1.171875 -0.28125q-0.59375 0 -1.15625 0.28125q-0.5625 0.265625 -1.0 0.96875q-0.421875 0.6875 -0.6875 1.859375q-0.25 1.15625 -0.25 2.9375q0 1.78125 0.25 2.953125q0.265625 1.15625 0.6875 1.84375q0.4375 0.6875 1.0 0.96875q0.5625 0.28125 1.15625 0.28125q0.609375 0 1.171875 -0.28125q0.578125 -0.28125 1.015625 -0.96875q0.4375 -0.6875 0.6875 -1.84375q0.265625 -1.171875 0.265625 -2.953125z" fill-rule="nonzero"/><path fill="#000000" fill-opacity="0.0" d="m-56.095295 463.01666l194.07874 0l0 64.629944l-194.07874 0z" fill-rule="evenodd"/><path fill="#b58900" d="m29.529402 495.48224q0 2.125 -0.46875 3.6875q-0.453125 1.5625 -1.25 2.578125q-0.796875 1.015625 -1.875 1.515625q-1.078125 0.5 -2.3125 0.5q-1.25 0 -2.328125 -0.5q-1.0625 -0.5 -1.859375 -1.515625q-0.78125 -1.015625 -1.234375 -2.578125q-0.453125 -1.5625 -0.453125 -3.6875q0 -2.125 0.453125 -3.6875q0.453125 -1.578125 1.234375 -2.59375q0.796875 -1.03125 1.859375 -1.53125q1.078125 -0.5 2.328125 -0.5q1.234375 0 2.3125 0.5q1.078125 0.5 1.875 1.53125q0.796875 1.015625 1.25 2.59375q0.46875 1.5625 0.46875 3.6875zm-2.109375 0q0 -1.859375 -0.3125 -3.125q-0.296875 -1.265625 -0.828125 -2.03125q-0.53125 -0.765625 -1.21875 -1.09375q-0.6875 -0.34375 -1.4375 -0.34375q-0.75 0 -1.453125 0.34375q-0.6875 0.328125 -1.203125 1.09375q-0.515625 0.765625 -0.828125 2.03125q-0.3125 1.265625 -0.3125 3.125q0 1.859375 0.3125 3.125q0.3125 1.25 0.828125 2.015625q0.515625 0.765625 1.203125 1.109375q0.703125 0.328125 1.453125 0.328125q0.75 0 1.4375 -0.328125q0.6875 -0.34375 1.21875 -1.109375q0.53125 -0.765625 0.828125 -2.015625q0.3125 -1.265625 0.3125 -3.125zm15.250105 0q0 2.125 -0.46875 3.6875q-0.453125 1.5625 -1.25 2.578125q-0.796875 1.015625 -1.875 1.515625q-1.078125 0.5 -2.3125 0.5q-1.25 0 -2.328125 -0.5q-1.0625 -0.5 -1.859375 -1.515625q-0.7812481 -1.015625 -1.2343731 -2.578125q-0.453125 -1.5625 -0.453125 -3.6875q0 -2.125 0.453125 -3.6875q0.453125 -1.578125 1.2343731 -2.59375q0.796875 -1.03125 1.859375 -1.53125q1.078125 -0.5 2.328125 -0.5q1.234375 0 2.3125 0.5q1.078125 0.5 1.875 1.53125q0.796875 1.015625 1.25 2.59375q0.46875 1.5625 0.46875 3.6875zm-2.109375 0q0 -1.859375 -0.3125 -3.125q-0.296875 -1.265625 -0.828125 -2.03125q-0.53125 -0.765625 -1.21875 -1.09375q-0.6875 -0.34375 -1.4375 -0.34375q-0.75 0 -1.453125 0.34375q-0.6875 0.328125 -1.203125 1.09375q-0.515625 0.765625 -0.828125 2.03125q-0.3125 1.265625 -0.3125 3.125q0 1.859375 0.3125 3.125q0.3125 1.25 0.828125 2.015625q0.515625 0.765625 1.203125 1.109375q0.703125 0.328125 1.453125 0.328125q0.75 0 1.4375 -0.328125q0.6875 -0.34375 1.21875 -1.109375q0.53125 -0.765625 0.828125 -2.015625q0.3125 -1.265625 0.3125 -3.125zm15.250107 0q0 2.125 -0.46875 3.6875q-0.453125 1.5625 -1.25 2.578125q-0.796875 1.015625 -1.875 1.515625q-1.078125 0.5 -2.3125 0.5q-1.25 0 -2.328125 -0.5q-1.0625 -0.5 -1.859375 -1.515625q-0.78125 -1.015625 -1.234375 -2.578125q-0.453125 -1.5625 -0.453125 -3.6875q0 -2.125 0.453125 -3.6875q0.453125 -1.578125 1.234375 -2.59375q0.796875 -1.03125 1.859375 -1.53125q1.078125 -0.5 2.328125 -0.5q1.234375 0 2.3125 0.5q1.078125 0.5 1.875 1.53125q0.796875 1.015625 1.25 2.59375q0.46875 1.5625 0.46875 3.6875zm-2.109375 0q0 -1.859375 -0.3125 -3.125q-0.296875 -1.265625 -0.828125 -2.03125q-0.53125 -0.765625 -1.21875 -1.09375q-0.6875 -0.34375 -1.4375 -0.34375q-0.75 0 -1.453125 0.34375q-0.6875 0.328125 -1.203125 1.09375q-0.515625 0.765625 -0.828125 2.03125q-0.3125 1.265625 -0.3125 3.125q0 1.859375 0.3125 3.125q0.3125 1.25 0.828125 2.015625q0.515625 0.765625 1.203125 1.109375q0.703125 0.328125 1.453125 0.328125q0.75 0 1.4375 -0.328125q0.6875 -0.34375 1.21875 -1.109375q0.53125 -0.765625 0.828125 -2.015625q0.3125 -1.265625 0.3125 -3.125zm15.250111 0q0 2.125 -0.46875 3.6875q-0.453125 1.5625 -1.25 2.578125q-0.796875 1.015625 -1.875 1.515625q-1.078125 0.5 -2.3125038 0.5q-1.25 0 -2.328125 -0.5q-1.0625 -0.5 -1.859375 -1.515625q-0.78125 -1.015625 -1.234375 -2.578125q-0.453125 -1.5625 -0.453125 -3.6875q0 -2.125 0.453125 -3.6875q0.453125 -1.578125 1.234375 -2.59375q0.796875 -1.03125 1.859375 -1.53125q1.078125 -0.5 2.328125 -0.5q1.2343788 0 2.3125038 0.5q1.078125 0.5 1.875 1.53125q0.796875 1.015625 1.25 2.59375q0.46875 1.5625 0.46875 3.6875zm-2.109375 0q0 -1.859375 -0.3125 -3.125q-0.296875 -1.265625 -0.828125 -2.03125q-0.53125 -0.765625 -1.21875 -1.09375q-0.6875038 -0.34375 -1.4375038 -0.34375q-0.75 0 -1.453125 0.34375q-0.6875 0.328125 -1.203125 1.09375q-0.515625 0.765625 -0.828125 2.03125q-0.3125 1.265625 -0.3125 3.125q0 1.859375 0.3125 3.125q0.3125 1.25 0.828125 2.015625q0.515625 0.765625 1.203125 1.109375q0.703125 0.328125 1.453125 0.328125q0.75 0 1.4375038 -0.328125q0.6875 -0.34375 1.21875 -1.109375q0.53125 -0.765625 0.828125 -2.015625q0.3125 -1.265625 0.3125 -3.125z" fill-rule="nonzero"/><path fill="#000000" d="m71.93608 486.06036l2.171875 0l0 21.328125l-2.171875 0l0 -21.328125z" fill-rule="nonzero"/><path fill="#dc322f" d="m88.99864 495.4041q0 2.140625 -0.46875 3.71875q-0.453125 1.578125 -1.265625 2.609375q-0.8125 1.03125 -1.921875 1.546875q-1.09375 0.5 -2.375 0.5q-1.28125 0 -2.375 -0.5q-1.09375 -0.515625 -1.90625 -1.546875q-0.796875 -1.03125 -1.25 -2.609375q-0.453125 -1.578125 -0.453125 -3.71875q0 -2.15625 0.453125 -3.71875q0.453125 -1.578125 1.25 -2.609375q0.8125 -1.03125 1.90625 -1.53125q1.09375 -0.515625 2.375 -0.515625q1.28125 0 2.375 0.515625q1.109375 0.5 1.921875 1.53125q0.8125 1.03125 1.265625 2.609375q0.46875 1.5625 0.46875 3.71875zm-2.890625 0q0 -1.78125 -0.265625 -2.9375q-0.25 -1.171875 -0.6875 -1.859375q-0.4375 -0.703125 -1.015625 -0.96875q-0.5625 -0.28125 -1.171875 -0.28125q-0.59375 0 -1.15625 0.28125q-0.5625 0.265625 -1.0 0.96875q-0.421875 0.6875 -0.6875 1.859375q-0.25 1.15625 -0.25 2.9375q0 1.78125 0.25 2.953125q0.265625 1.15625 0.6875 1.84375q0.4375 0.6875 1.0 0.96875q0.5625 0.28125 1.15625 0.28125q0.609375 0 1.171875 -0.28125q0.578125 -0.28125 1.015625 -0.96875q0.4375 -0.6875 0.6875 -1.84375q0.265625 -1.171875 0.265625 -2.953125zm16.031357 0q0 2.140625 -0.46875 3.71875q-0.453125 1.578125 -1.265625 2.609375q-0.8125 1.03125 -1.921875 1.546875q-1.09375 0.5 -2.375 0.5q-1.28125 0 -2.375 -0.5q-1.09375 -0.515625 -1.90625 -1.546875q-0.796875 -1.03125 -1.25 -2.609375q-0.453125 -1.578125 -0.453125 -3.71875q0 -2.15625 0.453125 -3.71875q0.453125 -1.578125 1.25 -2.609375q0.8125 -1.03125 1.90625 -1.53125q1.09375 -0.515625 2.375 -0.515625q1.28125 0 2.375 0.515625q1.109375 0.5 1.921875 1.53125q0.8125 1.03125 1.265625 2.609375q0.46875 1.5625 0.46875 3.71875zm-2.890625 0q0 -1.78125 -0.265625 -2.9375q-0.25 -1.171875 -0.6875 -1.859375q-0.4375 -0.703125 -1.015625 -0.96875q-0.5625 -0.28125 -1.171875 -0.28125q-0.59375 0 -1.15625 0.28125q-0.5625 0.265625 -1.0 0.96875q-0.421875 0.6875 -0.6875 1.859375q-0.25 1.15625 -0.25 2.9375q0 1.78125 0.25 2.953125q0.265625 1.15625 0.6875 1.84375q0.4375 0.6875 1.0 0.96875q0.5625 0.28125 1.15625 0.28125q0.609375 0 1.171875 -0.28125q0.578125 -0.28125 1.015625 -0.96875q0.4375 -0.6875 0.6875 -1.84375q0.265625 -1.171875 0.265625 -2.953125zm16.031357 0q0 2.140625 -0.46875 3.71875q-0.453125 1.578125 -1.265625 2.609375q-0.8125 1.03125 -1.921875 1.546875q-1.09375 0.5 -2.375 0.5q-1.28125 0 -2.375 -0.5q-1.09375 -0.515625 -1.90625 -1.546875q-0.796875 -1.03125 -1.25 -2.609375q-0.453125 -1.578125 -0.453125 -3.71875q0 -2.15625 0.453125 -3.71875q0.453125 -1.578125 1.25 -2.609375q0.8125 -1.03125 1.90625 -1.53125q1.09375 -0.515625 2.375 -0.515625q1.28125 0 2.375 0.515625q1.109375 0.5 1.921875 1.53125q0.8125 1.03125 1.265625 2.609375q0.46875 1.5625 0.46875 3.71875zm-2.890625 0q0 -1.78125 -0.265625 -2.9375q-0.25 -1.171875 -0.6875 -1.859375q-0.4375 -0.703125 -1.015625 -0.96875q-0.5625 -0.28125 -1.171875 -0.28125q-0.59375 0 -1.15625 0.28125q-0.5625 0.265625 -1.0 0.96875q-0.421875 0.6875 -0.6875 1.859375q-0.25 1.15625 -0.25 2.9375q0 1.78125 0.25 2.953125q0.265625 1.15625 0.6875 1.84375q0.4375 0.6875 1.0 0.96875q0.5625 0.28125 1.15625 0.28125q0.609375 0 1.171875 -0.28125q0.578125 -0.28125 1.015625 -0.96875q0.4375 -0.6875 0.6875 -1.84375q0.265625 -1.171875 0.265625 -2.953125zm16.031357 0q0 2.140625 -0.46875 3.71875q-0.453125 1.578125 -1.265625 2.609375q-0.8125 1.03125 -1.921875 1.546875q-1.09375 0.5 -2.375 0.5q-1.28125 0 -2.375 -0.5q-1.09375 -0.515625 -1.90625 -1.546875q-0.796875 -1.03125 -1.25 -2.609375q-0.453125 -1.578125 -0.453125 -3.71875q0 -2.15625 0.453125 -3.71875q0.453125 -1.578125 1.25 -2.609375q0.8125 -1.03125 1.90625 -1.53125q1.09375 -0.515625 2.375 -0.515625q1.28125 0 2.375 0.515625q1.109375 0.5 1.921875 1.53125q0.8125 1.03125 1.265625 2.609375q0.46875 1.5625 0.46875 3.71875zm-2.890625 0q0 -1.78125 -0.265625 -2.9375q-0.25 -1.171875 -0.6875 -1.859375q-0.4375 -0.703125 -1.015625 -0.96875q-0.5625 -0.28125 -1.171875 -0.28125q-0.59375 0 -1.15625 0.28125q-0.5625 0.265625 -1.0 0.96875q-0.421875 0.6875 -0.6875 1.859375q-0.25 1.15625 -0.25 2.9375q0 1.78125 0.25 2.953125q0.265625 1.15625 0.6875 1.84375q0.4375 0.6875 1.0 0.96875q0.5625 0.28125 1.15625 0.28125q0.609375 0 1.171875 -0.28125q0.578125 -0.28125 1.015625 -0.96875q0.4375 -0.6875 0.6875 -1.84375q0.265625 -1.171875 0.265625 -2.953125z" fill-rule="nonzero"/><path fill="#000000" fill-opacity="0.0" d="m516.92664 327.20752l194.07874 0l0 64.62991l-194.07874 0z" fill-rule="evenodd"/><path fill="#b58900" d="m538.3954 359.6731q0 2.125 -0.46875 3.6875q-0.453125 1.5625 -1.25 2.578125q-0.796875 1.015625 -1.875 1.515625q-1.078125 0.5 -2.3125 0.5q-1.25 0 -2.328125 -0.5q-1.0625 -0.5 -1.859375 -1.515625q-0.78125 -1.015625 -1.234375 -2.578125q-0.453125 -1.5625 -0.453125 -3.6875q0 -2.125 0.453125 -3.6875q0.453125 -1.578125 1.234375 -2.59375q0.796875 -1.03125 1.859375 -1.53125q1.078125 -0.5 2.328125 -0.5q1.234375 0 2.3125 0.5q1.078125 0.5 1.875 1.53125q0.796875 1.015625 1.25 2.59375q0.46875 1.5625 0.46875 3.6875zm-2.109375 0q0 -1.859375 -0.3125 -3.125q-0.296875 -1.265625 -0.828125 -2.03125q-0.53125 -0.765625 -1.21875 -1.09375q-0.6875 -0.34375 -1.4375 -0.34375q-0.75 0 -1.453125 0.34375q-0.6875 0.328125 -1.203125 1.09375q-0.515625 0.765625 -0.828125 2.03125q-0.3125 1.265625 -0.3125 3.125q0 1.859375 0.3125 3.125q0.3125 1.25 0.828125 2.015625q0.515625 0.765625 1.203125 1.109375q0.703125 0.328125 1.453125 0.328125q0.75 0 1.4375 -0.328125q0.6875 -0.34375 1.21875 -1.109375q0.53125 -0.765625 0.828125 -2.015625q0.3125 -1.265625 0.3125 -3.125zm15.250122 0q0 2.125 -0.46875 3.6875q-0.453125 1.5625 -1.25 2.578125q-0.796875 1.015625 -1.875 1.515625q-1.078125 0.5 -2.3125 0.5q-1.25 0 -2.328125 -0.5q-1.0625 -0.5 -1.859375 -1.515625q-0.78125 -1.015625 -1.234375 -2.578125q-0.453125 -1.5625 -0.453125 -3.6875q0 -2.125 0.453125 -3.6875q0.453125 -1.578125 1.234375 -2.59375q0.796875 -1.03125 1.859375 -1.53125q1.078125 -0.5 2.328125 -0.5q1.234375 0 2.3125 0.5q1.078125 0.5 1.875 1.53125q0.796875 1.015625 1.25 2.59375q0.46875 1.5625 0.46875 3.6875zm-2.109375 0q0 -1.859375 -0.3125 -3.125q-0.296875 -1.265625 -0.828125 -2.03125q-0.53125 -0.765625 -1.21875 -1.09375q-0.6875 -0.34375 -1.4375 -0.34375q-0.75 0 -1.453125 0.34375q-0.6875 0.328125 -1.203125 1.09375q-0.515625 0.765625 -0.828125 2.03125q-0.3125 1.265625 -0.3125 3.125q0 1.859375 0.3125 3.125q0.3125 1.25 0.828125 2.015625q0.515625 0.765625 1.203125 1.109375q0.703125 0.328125 1.453125 0.328125q0.75 0 1.4375 -0.328125q0.6875 -0.34375 1.21875 -1.109375q0.53125 -0.765625 0.828125 -2.015625q0.3125 -1.265625 0.3125 -3.125zm15.250061 0q0 2.125 -0.46875 3.6875q-0.453125 1.5625 -1.25 2.578125q-0.796875 1.015625 -1.875 1.515625q-1.078125 0.5 -2.3125 0.5q-1.25 0 -2.328125 -0.5q-1.0625 -0.5 -1.859375 -1.515625q-0.78125 -1.015625 -1.234375 -2.578125q-0.453125 -1.5625 -0.453125 -3.6875q0 -2.125 0.453125 -3.6875q0.453125 -1.578125 1.234375 -2.59375q0.796875 -1.03125 1.859375 -1.53125q1.078125 -0.5 2.328125 -0.5q1.234375 0 2.3125 0.5q1.078125 0.5 1.875 1.53125q0.796875 1.015625 1.25 2.59375q0.46875 1.5625 0.46875 3.6875zm-2.109375 0q0 -1.859375 -0.3125 -3.125q-0.296875 -1.265625 -0.828125 -2.03125q-0.53125 -0.765625 -1.21875 -1.09375q-0.6875 -0.34375 -1.4375 -0.34375q-0.75 0 -1.453125 0.34375q-0.6875 0.328125 -1.203125 1.09375q-0.515625 0.765625 -0.828125 2.03125q-0.3125 1.265625 -0.3125 3.125q0 1.859375 0.3125 3.125q0.3125 1.25 0.828125 2.015625q0.515625 0.765625 1.203125 1.109375q0.703125 0.328125 1.453125 0.328125q0.75 0 1.4375 -0.328125q0.6875 -0.34375 1.21875 -1.109375q0.53125 -0.765625 0.828125 -2.015625q0.3125 -1.265625 0.3125 -3.125zm15.250122 0q0 2.125 -0.46875 3.6875q-0.453125 1.5625 -1.25 2.578125q-0.796875 1.015625 -1.875 1.515625q-1.078125 0.5 -2.3125 0.5q-1.25 0 -2.328125 -0.5q-1.0625 -0.5 -1.859375 -1.515625q-0.78125 -1.015625 -1.234375 -2.578125q-0.453125 -1.5625 -0.453125 -3.6875q0 -2.125 0.453125 -3.6875q0.453125 -1.578125 1.234375 -2.59375q0.796875 -1.03125 1.859375 -1.53125q1.078125 -0.5 2.328125 -0.5q1.234375 0 2.3125 0.5q1.078125 0.5 1.875 1.53125q0.796875 1.015625 1.25 2.59375q0.46875 1.5625 0.46875 3.6875zm-2.109375 0q0 -1.859375 -0.3125 -3.125q-0.296875 -1.265625 -0.828125 -2.03125q-0.53125 -0.765625 -1.21875 -1.09375q-0.6875 -0.34375 -1.4375 -0.34375q-0.75 0 -1.453125 0.34375q-0.6875 0.328125 -1.203125 1.09375q-0.515625 0.765625 -0.828125 2.03125q-0.3125 1.265625 -0.3125 3.125q0 1.859375 0.3125 3.125q0.3125 1.25 0.828125 2.015625q0.515625 0.765625 1.203125 1.109375q0.703125 0.328125 1.453125 0.328125q0.75 0 1.4375 -0.328125q0.6875 -0.34375 1.21875 -1.109375q0.53125 -0.765625 0.828125 -2.015625q0.3125 -1.265625 0.3125 -3.125z" fill-rule="nonzero"/><path fill="#000000" d="m580.80206 350.25122l2.171875 0l0 21.328125l-2.171875 0l0 -21.328125z" fill-rule="nonzero"/><path fill="#859900" d="m597.8646 359.59497q0 2.140625 -0.46875 3.71875q-0.453125 1.578125 -1.265625 2.609375q-0.8125 1.03125 -1.921875 1.546875q-1.09375 0.5 -2.375 0.5q-1.28125 0 -2.375 -0.5q-1.09375 -0.515625 -1.90625 -1.546875q-0.796875 -1.03125 -1.25 -2.609375q-0.453125 -1.578125 -0.453125 -3.71875q0 -2.15625 0.453125 -3.71875q0.453125 -1.578125 1.25 -2.609375q0.8125 -1.03125 1.90625 -1.53125q1.09375 -0.515625 2.375 -0.515625q1.28125 0 2.375 0.515625q1.109375 0.5 1.921875 1.53125q0.8125 1.03125 1.265625 2.609375q0.46875 1.5625 0.46875 3.71875zm-2.890625 0q0 -1.78125 -0.265625 -2.9375q-0.25 -1.171875 -0.6875 -1.859375q-0.4375 -0.703125 -1.015625 -0.96875q-0.5625 -0.28125 -1.171875 -0.28125q-0.59375 0 -1.15625 0.28125q-0.5625 0.265625 -1.0 0.96875q-0.421875 0.6875 -0.6875 1.859375q-0.25 1.15625 -0.25 2.9375q0 1.78125 0.25 2.953125q0.265625 1.15625 0.6875 1.84375q0.4375 0.6875 1.0 0.96875q0.5625 0.28125 1.15625 0.28125q0.609375 0 1.171875 -0.28125q0.578125 -0.28125 1.015625 -0.96875q0.4375 -0.6875 0.6875 -1.84375q0.265625 -1.171875 0.265625 -2.953125zm16.031372 0q0 2.140625 -0.46875 3.71875q-0.453125 1.578125 -1.265625 2.609375q-0.8125 1.03125 -1.921875 1.546875q-1.09375 0.5 -2.375 0.5q-1.28125 0 -2.375 -0.5q-1.09375 -0.515625 -1.90625 -1.546875q-0.796875 -1.03125 -1.25 -2.609375q-0.453125 -1.578125 -0.453125 -3.71875q0 -2.15625 0.453125 -3.71875q0.453125 -1.578125 1.25 -2.609375q0.8125 -1.03125 1.90625 -1.53125q1.09375 -0.515625 2.375 -0.515625q1.28125 0 2.375 0.515625q1.109375 0.5 1.921875 1.53125q0.8125 1.03125 1.265625 2.609375q0.46875 1.5625 0.46875 3.71875zm-2.890625 0q0 -1.78125 -0.265625 -2.9375q-0.25 -1.171875 -0.6875 -1.859375q-0.4375 -0.703125 -1.015625 -0.96875q-0.5625 -0.28125 -1.171875 -0.28125q-0.59375 0 -1.15625 0.28125q-0.5625 0.265625 -1.0 0.96875q-0.421875 0.6875 -0.6875 1.859375q-0.25 1.15625 -0.25 2.9375q0 1.78125 0.25 2.953125q0.265625 1.15625 0.6875 1.84375q0.4375 0.6875 1.0 0.96875q0.5625 0.28125 1.15625 0.28125q0.609375 0 1.171875 -0.28125q0.578125 -0.28125 1.015625 -0.96875q0.4375 -0.6875 0.6875 -1.84375q0.265625 -1.171875 0.265625 -2.953125zm6.500061 6.09375l3.3125 0l0 -9.546875q0 -0.5625 0.046875 -1.171875l-2.359375 1.96875q-0.15625 0.125 -0.3125 0.171875q-0.140625 0.046875 -0.296875 0.046875q-0.21875 0 -0.40625 -0.09375q-0.1875 -0.09375 -0.28125 -0.21875l-0.875 -1.21875l4.984375 -4.25l2.3125 0l0 14.3125l2.9375 0l0 2.09375l-9.0625 0l0 -2.09375z" fill-rule="nonzero"/><path fill="#000000" fill-opacity="0.0" d="m498.81915 463.01794l194.07874 0l0 64.62988l-194.07874 0z" fill-rule="evenodd"/><path fill="#b58900" d="m520.2879 495.48352q0 2.125 -0.46875 3.6875q-0.453125 1.5625 -1.25 2.578125q-0.796875 1.015625 -1.875 1.515625q-1.078125 0.5 -2.3125 0.5q-1.25 0 -2.328125 -0.5q-1.0625 -0.5 -1.859375 -1.515625q-0.78125 -1.015625 -1.234375 -2.578125q-0.453125 -1.5625 -0.453125 -3.6875q0 -2.125 0.453125 -3.6875q0.453125 -1.578125 1.234375 -2.59375q0.796875 -1.03125 1.859375 -1.53125q1.078125 -0.5 2.328125 -0.5q1.234375 0 2.3125 0.5q1.078125 0.5 1.875 1.53125q0.796875 1.015625 1.25 2.59375q0.46875 1.5625 0.46875 3.6875zm-2.109375 0q0 -1.859375 -0.3125 -3.125q-0.296875 -1.265625 -0.828125 -2.03125q-0.53125 -0.765625 -1.21875 -1.09375q-0.6875 -0.34375 -1.4375 -0.34375q-0.75 0 -1.453125 0.34375q-0.6875 0.328125 -1.203125 1.09375q-0.515625 0.765625 -0.828125 2.03125q-0.3125 1.265625 -0.3125 3.125q0 1.859375 0.3125 3.125q0.3125 1.25 0.828125 2.015625q0.515625 0.765625 1.203125 1.109375q0.703125 0.328125 1.453125 0.328125q0.75 0 1.4375 -0.328125q0.6875 -0.34375 1.21875 -1.109375q0.53125 -0.765625 0.828125 -2.015625q0.3125 -1.265625 0.3125 -3.125zm15.250122 0q0 2.125 -0.46875 3.6875q-0.453125 1.5625 -1.25 2.578125q-0.796875 1.015625 -1.875 1.515625q-1.078125 0.5 -2.3125 0.5q-1.25 0 -2.328125 -0.5q-1.0625 -0.5 -1.859375 -1.515625q-0.78125 -1.015625 -1.234375 -2.578125q-0.453125 -1.5625 -0.453125 -3.6875q0 -2.125 0.453125 -3.6875q0.453125 -1.578125 1.234375 -2.59375q0.796875 -1.03125 1.859375 -1.53125q1.078125 -0.5 2.328125 -0.5q1.234375 0 2.3125 0.5q1.078125 0.5 1.875 1.53125q0.796875 1.015625 1.25 2.59375q0.46875 1.5625 0.46875 3.6875zm-2.109375 0q0 -1.859375 -0.3125 -3.125q-0.296875 -1.265625 -0.828125 -2.03125q-0.53125 -0.765625 -1.21875 -1.09375q-0.6875 -0.34375 -1.4375 -0.34375q-0.75 0 -1.453125 0.34375q-0.6875 0.328125 -1.203125 1.09375q-0.515625 0.765625 -0.828125 2.03125q-0.3125 1.265625 -0.3125 3.125q0 1.859375 0.3125 3.125q0.3125 1.25 0.828125 2.015625q0.515625 0.765625 1.203125 1.109375q0.703125 0.328125 1.453125 0.328125q0.75 0 1.4375 -0.328125q0.6875 -0.34375 1.21875 -1.109375q0.53125 -0.765625 0.828125 -2.015625q0.3125 -1.265625 0.3125 -3.125zm15.250061 0q0 2.125 -0.46875 3.6875q-0.453125 1.5625 -1.25 2.578125q-0.796875 1.015625 -1.875 1.515625q-1.078125 0.5 -2.3125 0.5q-1.25 0 -2.328125 -0.5q-1.0625 -0.5 -1.859375 -1.515625q-0.78125 -1.015625 -1.234375 -2.578125q-0.453125 -1.5625 -0.453125 -3.6875q0 -2.125 0.453125 -3.6875q0.453125 -1.578125 1.234375 -2.59375q0.796875 -1.03125 1.859375 -1.53125q1.078125 -0.5 2.328125 -0.5q1.234375 0 2.3125 0.5q1.078125 0.5 1.875 1.53125q0.796875 1.015625 1.25 2.59375q0.46875 1.5625 0.46875 3.6875zm-2.109375 0q0 -1.859375 -0.3125 -3.125q-0.296875 -1.265625 -0.828125 -2.03125q-0.53125 -0.765625 -1.21875 -1.09375q-0.6875 -0.34375 -1.4375 -0.34375q-0.75 0 -1.453125 0.34375q-0.6875 0.328125 -1.203125 1.09375q-0.515625 0.765625 -0.828125 2.03125q-0.3125 1.265625 -0.3125 3.125q0 1.859375 0.3125 3.125q0.3125 1.25 0.828125 2.015625q0.515625 0.765625 1.203125 1.109375q0.703125 0.328125 1.453125 0.328125q0.75 0 1.4375 -0.328125q0.6875 -0.34375 1.21875 -1.109375q0.53125 -0.765625 0.828125 -2.015625q0.3125 -1.265625 0.3125 -3.125zm15.250122 0q0 2.125 -0.46875 3.6875q-0.453125 1.5625 -1.25 2.578125q-0.796875 1.015625 -1.875 1.515625q-1.078125 0.5 -2.3125 0.5q-1.25 0 -2.328125 -0.5q-1.0625 -0.5 -1.859375 -1.515625q-0.78125 -1.015625 -1.234375 -2.578125q-0.453125 -1.5625 -0.453125 -3.6875q0 -2.125 0.453125 -3.6875q0.453125 -1.578125 1.234375 -2.59375q0.796875 -1.03125 1.859375 -1.53125q1.078125 -0.5 2.328125 -0.5q1.234375 0 2.3125 0.5q1.078125 0.5 1.875 1.53125q0.796875 1.015625 1.25 2.59375q0.46875 1.5625 0.46875 3.6875zm-2.109375 0q0 -1.859375 -0.3125 -3.125q-0.296875 -1.265625 -0.828125 -2.03125q-0.53125 -0.765625 -1.21875 -1.09375q-0.6875 -0.34375 -1.4375 -0.34375q-0.75 0 -1.453125 0.34375q-0.6875 0.328125 -1.203125 1.09375q-0.515625 0.765625 -0.828125 2.03125q-0.3125 1.265625 -0.3125 3.125q0 1.859375 0.3125 3.125q0.3125 1.25 0.828125 2.015625q0.515625 0.765625 1.203125 1.109375q0.703125 0.328125 1.453125 0.328125q0.75 0 1.4375 -0.328125q0.6875 -0.34375 1.21875 -1.109375q0.53125 -0.765625 0.828125 -2.015625q0.3125 -1.265625 0.3125 -3.125z" fill-rule="nonzero"/><path fill="#000000" d="m562.6946 486.06165l2.171875 0l0 21.328125l-2.171875 0l0 -21.328125z" fill-rule="nonzero"/><path fill="#859900" d="m579.75714 495.4054q0 2.140625 -0.46875 3.71875q-0.453125 1.578125 -1.265625 2.609375q-0.8125 1.03125 -1.921875 1.546875q-1.09375 0.5 -2.375 0.5q-1.28125 0 -2.375 -0.5q-1.09375 -0.515625 -1.90625 -1.546875q-0.796875 -1.03125 -1.25 -2.609375q-0.453125 -1.578125 -0.453125 -3.71875q0 -2.15625 0.453125 -3.71875q0.453125 -1.578125 1.25 -2.609375q0.8125 -1.03125 1.90625 -1.53125q1.09375 -0.515625 2.375 -0.515625q1.28125 0 2.375 0.515625q1.109375 0.5 1.921875 1.53125q0.8125 1.03125 1.265625 2.609375q0.46875 1.5625 0.46875 3.71875zm-2.890625 0q0 -1.78125 -0.265625 -2.9375q-0.25 -1.171875 -0.6875 -1.859375q-0.4375 -0.703125 -1.015625 -0.96875q-0.5625 -0.28125 -1.171875 -0.28125q-0.59375 0 -1.15625 0.28125q-0.5625 0.265625 -1.0 0.96875q-0.421875 0.6875 -0.6875 1.859375q-0.25 1.15625 -0.25 2.9375q0 1.78125 0.25 2.953125q0.265625 1.15625 0.6875 1.84375q0.4375 0.6875 1.0 0.96875q0.5625 0.28125 1.15625 0.28125q0.609375 0 1.171875 -0.28125q0.578125 -0.28125 1.015625 -0.96875q0.4375 -0.6875 0.6875 -1.84375q0.265625 -1.171875 0.265625 -2.953125zm16.031372 0q0 2.140625 -0.46875 3.71875q-0.453125 1.578125 -1.265625 2.609375q-0.8125 1.03125 -1.921875 1.546875q-1.09375 0.5 -2.375 0.5q-1.28125 0 -2.375 -0.5q-1.09375 -0.515625 -1.90625 -1.546875q-0.796875 -1.03125 -1.25 -2.609375q-0.453125 -1.578125 -0.453125 -3.71875q0 -2.15625 0.453125 -3.71875q0.453125 -1.578125 1.25 -2.609375q0.8125 -1.03125 1.90625 -1.53125q1.09375 -0.515625 2.375 -0.515625q1.28125 0 2.375 0.515625q1.109375 0.5 1.921875 1.53125q0.8125 1.03125 1.265625 2.609375q0.46875 1.5625 0.46875 3.71875zm-2.890625 0q0 -1.78125 -0.265625 -2.9375q-0.25 -1.171875 -0.6875 -1.859375q-0.4375 -0.703125 -1.015625 -0.96875q-0.5625 -0.28125 -1.171875 -0.28125q-0.59375 0 -1.15625 0.28125q-0.5625 0.265625 -1.0 0.96875q-0.421875 0.6875 -0.6875 1.859375q-0.25 1.15625 -0.25 2.9375q0 1.78125 0.25 2.953125q0.265625 1.15625 0.6875 1.84375q0.4375 0.6875 1.0 0.96875q0.5625 0.28125 1.15625 0.28125q0.609375 0 1.171875 -0.28125q0.578125 -0.28125 1.015625 -0.96875q0.4375 -0.6875 0.6875 -1.84375q0.265625 -1.171875 0.265625 -2.953125zm6.500061 6.09375l3.3125 0l0 -9.546875q0 -0.5625 0.046875 -1.171875l-2.359375 1.96875q-0.15625 0.125 -0.3125 0.171875q-0.140625 0.046875 -0.296875 0.046875q-0.21875 0 -0.40625 -0.09375q-0.1875 -0.09375 -0.28125 -0.21875l-0.875 -1.21875l4.984375 -4.25l2.3125 0l0 14.3125l2.9375 0l0 2.09375l-9.0625 0l0 -2.09375zm13.140747 0l3.3125 0l0 -9.546875q0 -0.5625 0.046875 -1.171875l-2.359375 1.96875q-0.15625 0.125 -0.3125 0.171875q-0.140625 0.046875 -0.296875 0.046875q-0.21875 0 -0.40625 -0.09375q-0.1875 -0.09375 -0.28125 -0.21875l-0.875 -1.21875l4.984375 -4.25l2.3125 0l0 14.3125l2.9375 0l0 2.09375l-9.0625 0l0 -2.09375z" fill-rule="nonzero"/><path fill="#000000" fill-opacity="0.0" d="m274.1739 463.01794l194.07874 0l0 64.62988l-194.07874 0z" fill-rule="evenodd"/><path fill="#b58900" d="m359.79858 495.48352q0 2.125 -0.46875 3.6875q-0.453125 1.5625 -1.25 2.578125q-0.796875 1.015625 -1.875 1.515625q-1.078125 0.5 -2.3125 0.5q-1.25 0 -2.328125 -0.5q-1.0625 -0.5 -1.859375 -1.515625q-0.78125 -1.015625 -1.234375 -2.578125q-0.453125 -1.5625 -0.453125 -3.6875q0 -2.125 0.453125 -3.6875q0.453125 -1.578125 1.234375 -2.59375q0.796875 -1.03125 1.859375 -1.53125q1.078125 -0.5 2.328125 -0.5q1.234375 0 2.3125 0.5q1.078125 0.5 1.875 1.53125q0.796875 1.015625 1.25 2.59375q0.46875 1.5625 0.46875 3.6875zm-2.109375 0q0 -1.859375 -0.3125 -3.125q-0.296875 -1.265625 -0.828125 -2.03125q-0.53125 -0.765625 -1.21875 -1.09375q-0.6875 -0.34375 -1.4375 -0.34375q-0.75 0 -1.453125 0.34375q-0.6875 0.328125 -1.203125 1.09375q-0.515625 0.765625 -0.828125 2.03125q-0.3125 1.265625 -0.3125 3.125q0 1.859375 0.3125 3.125q0.3125 1.25 0.828125 2.015625q0.515625 0.765625 1.203125 1.109375q0.703125 0.328125 1.453125 0.328125q0.75 0 1.4375 -0.328125q0.6875 -0.34375 1.21875 -1.109375q0.53125 -0.765625 0.828125 -2.015625q0.3125 -1.265625 0.3125 -3.125zm15.250092 0q0 2.125 -0.46875 3.6875q-0.453125 1.5625 -1.25 2.578125q-0.796875 1.015625 -1.875 1.515625q-1.078125 0.5 -2.3125 0.5q-1.25 0 -2.328125 -0.5q-1.0625 -0.5 -1.859375 -1.515625q-0.78125 -1.015625 -1.234375 -2.578125q-0.453125 -1.5625 -0.453125 -3.6875q0 -2.125 0.453125 -3.6875q0.453125 -1.578125 1.234375 -2.59375q0.796875 -1.03125 1.859375 -1.53125q1.078125 -0.5 2.328125 -0.5q1.234375 0 2.3125 0.5q1.078125 0.5 1.875 1.53125q0.796875 1.015625 1.25 2.59375q0.46875 1.5625 0.46875 3.6875zm-2.109375 0q0 -1.859375 -0.3125 -3.125q-0.296875 -1.265625 -0.828125 -2.03125q-0.53125 -0.765625 -1.21875 -1.09375q-0.6875 -0.34375 -1.4375 -0.34375q-0.75 0 -1.453125 0.34375q-0.6875 0.328125 -1.203125 1.09375q-0.515625 0.765625 -0.828125 2.03125q-0.3125 1.265625 -0.3125 3.125q0 1.859375 0.3125 3.125q0.3125 1.25 0.828125 2.015625q0.515625 0.765625 1.203125 1.109375q0.703125 0.328125 1.453125 0.328125q0.75 0 1.4375 -0.328125q0.6875 -0.34375 1.21875 -1.109375q0.53125 -0.765625 0.828125 -2.015625q0.3125 -1.265625 0.3125 -3.125zm15.250122 0q0 2.125 -0.46875 3.6875q-0.453125 1.5625 -1.25 2.578125q-0.796875 1.015625 -1.875 1.515625q-1.078125 0.5 -2.3125 0.5q-1.25 0 -2.328125 -0.5q-1.0625 -0.5 -1.859375 -1.515625q-0.78125 -1.015625 -1.234375 -2.578125q-0.453125 -1.5625 -0.453125 -3.6875q0 -2.125 0.453125 -3.6875q0.453125 -1.578125 1.234375 -2.59375q0.796875 -1.03125 1.859375 -1.53125q1.078125 -0.5 2.328125 -0.5q1.234375 0 2.3125 0.5q1.078125 0.5 1.875 1.53125q0.796875 1.015625 1.25 2.59375q0.46875 1.5625 0.46875 3.6875zm-2.109375 0q0 -1.859375 -0.3125 -3.125q-0.296875 -1.265625 -0.828125 -2.03125q-0.53125 -0.765625 -1.21875 -1.09375q-0.6875 -0.34375 -1.4375 -0.34375q-0.75 0 -1.453125 0.34375q-0.6875 0.328125 -1.203125 1.09375q-0.515625 0.765625 -0.828125 2.03125q-0.3125 1.265625 -0.3125 3.125q0 1.859375 0.3125 3.125q0.3125 1.25 0.828125 2.015625q0.515625 0.765625 1.203125 1.109375q0.703125 0.328125 1.453125 0.328125q0.75 0 1.4375 -0.328125q0.6875 -0.34375 1.21875 -1.109375q0.53125 -0.765625 0.828125 -2.015625q0.3125 -1.265625 0.3125 -3.125zm15.250092 0q0 2.125 -0.46875 3.6875q-0.453125 1.5625 -1.25 2.578125q-0.796875 1.015625 -1.875 1.515625q-1.078125 0.5 -2.3125 0.5q-1.25 0 -2.328125 -0.5q-1.0625 -0.5 -1.859375 -1.515625q-0.78125 -1.015625 -1.234375 -2.578125q-0.453125 -1.5625 -0.453125 -3.6875q0 -2.125 0.453125 -3.6875q0.453125 -1.578125 1.234375 -2.59375q0.796875 -1.03125 1.859375 -1.53125q1.078125 -0.5 2.328125 -0.5q1.234375 0 2.3125 0.5q1.078125 0.5 1.875 1.53125q0.796875 1.015625 1.25 2.59375q0.46875 1.5625 0.46875 3.6875zm-2.109375 0q0 -1.859375 -0.3125 -3.125q-0.296875 -1.265625 -0.828125 -2.03125q-0.53125 -0.765625 -1.21875 -1.09375q-0.6875 -0.34375 -1.4375 -0.34375q-0.75 0 -1.453125 0.34375q-0.6875 0.328125 -1.203125 1.09375q-0.515625 0.765625 -0.828125 2.03125q-0.3125 1.265625 -0.3125 3.125q0 1.859375 0.3125 3.125q0.3125 1.25 0.828125 2.015625q0.515625 0.765625 1.203125 1.109375q0.703125 0.328125 1.453125 0.328125q0.75 0 1.4375 -0.328125q0.6875 -0.34375 1.21875 -1.109375q0.53125 -0.765625 0.828125 -2.015625q0.3125 -1.265625 0.3125 -3.125z" fill-rule="nonzero"/><path fill="#000000" d="m402.20526 486.06165l2.171875 0l0 21.328125l-2.171875 0l0 -21.328125z" fill-rule="nonzero"/><path fill="#dc322f" d="m419.26782 495.4054q0 2.140625 -0.46875 3.71875q-0.453125 1.578125 -1.265625 2.609375q-0.8125 1.03125 -1.921875 1.546875q-1.09375 0.5 -2.375 0.5q-1.28125 0 -2.375 -0.5q-1.09375 -0.515625 -1.90625 -1.546875q-0.796875 -1.03125 -1.25 -2.609375q-0.453125 -1.578125 -0.453125 -3.71875q0 -2.15625 0.453125 -3.71875q0.453125 -1.578125 1.25 -2.609375q0.8125 -1.03125 1.90625 -1.53125q1.09375 -0.515625 2.375 -0.515625q1.28125 0 2.375 0.515625q1.109375 0.5 1.921875 1.53125q0.8125 1.03125 1.265625 2.609375q0.46875 1.5625 0.46875 3.71875zm-2.890625 0q0 -1.78125 -0.265625 -2.9375q-0.25 -1.171875 -0.6875 -1.859375q-0.4375 -0.703125 -1.015625 -0.96875q-0.5625 -0.28125 -1.171875 -0.28125q-0.59375 0 -1.15625 0.28125q-0.5625 0.265625 -1.0 0.96875q-0.421875 0.6875 -0.6875 1.859375q-0.25 1.15625 -0.25 2.9375q0 1.78125 0.25 2.953125q0.265625 1.15625 0.6875 1.84375q0.4375 0.6875 1.0 0.96875q0.5625 0.28125 1.15625 0.28125q0.609375 0 1.171875 -0.28125q0.578125 -0.28125 1.015625 -0.96875q0.4375 -0.6875 0.6875 -1.84375q0.265625 -1.171875 0.265625 -2.953125zm16.031342 0q0 2.140625 -0.46875 3.71875q-0.453125 1.578125 -1.265625 2.609375q-0.8125 1.03125 -1.921875 1.546875q-1.09375 0.5 -2.375 0.5q-1.28125 0 -2.375 -0.5q-1.09375 -0.515625 -1.90625 -1.546875q-0.796875 -1.03125 -1.25 -2.609375q-0.453125 -1.578125 -0.453125 -3.71875q0 -2.15625 0.453125 -3.71875q0.453125 -1.578125 1.25 -2.609375q0.8125 -1.03125 1.90625 -1.53125q1.09375 -0.515625 2.375 -0.515625q1.28125 0 2.375 0.515625q1.109375 0.5 1.921875 1.53125q0.8125 1.03125 1.265625 2.609375q0.46875 1.5625 0.46875 3.71875zm-2.890625 0q0 -1.78125 -0.265625 -2.9375q-0.25 -1.171875 -0.6875 -1.859375q-0.4375 -0.703125 -1.015625 -0.96875q-0.5625 -0.28125 -1.171875 -0.28125q-0.59375 0 -1.15625 0.28125q-0.5625 0.265625 -1.0 0.96875q-0.421875 0.6875 -0.6875 1.859375q-0.25 1.15625 -0.25 2.9375q0 1.78125 0.25 2.953125q0.265625 1.15625 0.6875 1.84375q0.4375 0.6875 1.0 0.96875q0.5625 0.28125 1.15625 0.28125q0.609375 0 1.171875 -0.28125q0.578125 -0.28125 1.015625 -0.96875q0.4375 -0.6875 0.6875 -1.84375q0.265625 -1.171875 0.265625 -2.953125zm6.500122 6.09375l3.3125 0l0 -9.546875q0 -0.5625 0.046875 -1.171875l-2.359375 1.96875q-0.15625 0.125 -0.3125 0.171875q-0.140625 0.046875 -0.296875 0.046875q-0.21875 0 -0.40625 -0.09375q-0.1875 -0.09375 -0.28125 -0.21875l-0.875 -1.21875l4.984375 -4.25l2.3125 0l0 14.3125l2.9375 0l0 2.09375l-9.0625 0l0 -2.09375zm22.671967 -6.09375q0 2.140625 -0.46875 3.71875q-0.453125 1.578125 -1.265625 2.609375q-0.8125 1.03125 -1.921875 1.546875q-1.09375 0.5 -2.375 0.5q-1.28125 0 -2.375 -0.5q-1.09375 -0.515625 -1.90625 -1.546875q-0.796875 -1.03125 -1.25 -2.609375q-0.453125 -1.578125 -0.453125 -3.71875q0 -2.15625 0.453125 -3.71875q0.453125 -1.578125 1.25 -2.609375q0.8125 -1.03125 1.90625 -1.53125q1.09375 -0.515625 2.375 -0.515625q1.28125 0 2.375 0.515625q1.109375 0.5 1.921875 1.53125q0.8125 1.03125 1.265625 2.609375q0.46875 1.5625 0.46875 3.71875zm-2.890625 0q0 -1.78125 -0.265625 -2.9375q-0.25 -1.171875 -0.6875 -1.859375q-0.4375 -0.703125 -1.015625 -0.96875q-0.5625 -0.28125 -1.171875 -0.28125q-0.59375 0 -1.15625 0.28125q-0.5625 0.265625 -1.0 0.96875q-0.421875 0.6875 -0.6875 1.859375q-0.25 1.15625 -0.25 2.9375q0 1.78125 0.25 2.953125q0.265625 1.15625 0.6875 1.84375q0.4375 0.6875 1.0 0.96875q0.5625 0.28125 1.15625 0.28125q0.609375 0 1.171875 -0.28125q0.578125 -0.28125 1.015625 -0.96875q0.4375 -0.6875 0.6875 -1.84375q0.265625 -1.171875 0.265625 -2.953125z" fill-rule="nonzero"/><path fill="#000000" fill-opacity="0.0" d="m170.07709 463.01794l194.07874 0l0 64.62988l-194.07874 0z" fill-rule="evenodd"/><path fill="#b58900" d="m191.54584 495.48352q0 2.125 -0.46875 3.6875q-0.453125 1.5625 -1.25 2.578125q-0.796875 1.015625 -1.875 1.515625q-1.078125 0.5 -2.3125 0.5q-1.25 0 -2.328125 -0.5q-1.0625 -0.5 -1.859375 -1.515625q-0.78125 -1.015625 -1.234375 -2.578125q-0.453125 -1.5625 -0.453125 -3.6875q0 -2.125 0.453125 -3.6875q0.453125 -1.578125 1.234375 -2.59375q0.796875 -1.03125 1.859375 -1.53125q1.078125 -0.5 2.328125 -0.5q1.234375 0 2.3125 0.5q1.078125 0.5 1.875 1.53125q0.796875 1.015625 1.25 2.59375q0.46875 1.5625 0.46875 3.6875zm-2.109375 0q0 -1.859375 -0.3125 -3.125q-0.296875 -1.265625 -0.828125 -2.03125q-0.53125 -0.765625 -1.21875 -1.09375q-0.6875 -0.34375 -1.4375 -0.34375q-0.75 0 -1.453125 0.34375q-0.6875 0.328125 -1.203125 1.09375q-0.515625 0.765625 -0.828125 2.03125q-0.3125 1.265625 -0.3125 3.125q0 1.859375 0.3125 3.125q0.3125 1.25 0.828125 2.015625q0.515625 0.765625 1.203125 1.109375q0.703125 0.328125 1.453125 0.328125q0.75 0 1.4375 -0.328125q0.6875 -0.34375 1.21875 -1.109375q0.53125 -0.765625 0.828125 -2.015625q0.3125 -1.265625 0.3125 -3.125zm15.250107 0q0 2.125 -0.46875 3.6875q-0.453125 1.5625 -1.25 2.578125q-0.796875 1.015625 -1.875 1.515625q-1.078125 0.5 -2.3125 0.5q-1.25 0 -2.328125 -0.5q-1.0625 -0.5 -1.859375 -1.515625q-0.78125 -1.015625 -1.234375 -2.578125q-0.453125 -1.5625 -0.453125 -3.6875q0 -2.125 0.453125 -3.6875q0.453125 -1.578125 1.234375 -2.59375q0.796875 -1.03125 1.859375 -1.53125q1.078125 -0.5 2.328125 -0.5q1.234375 0 2.3125 0.5q1.078125 0.5 1.875 1.53125q0.796875 1.015625 1.25 2.59375q0.46875 1.5625 0.46875 3.6875zm-2.109375 0q0 -1.859375 -0.3125 -3.125q-0.296875 -1.265625 -0.828125 -2.03125q-0.53125 -0.765625 -1.21875 -1.09375q-0.6875 -0.34375 -1.4375 -0.34375q-0.75 0 -1.453125 0.34375q-0.6875 0.328125 -1.203125 1.09375q-0.515625 0.765625 -0.828125 2.03125q-0.3125 1.265625 -0.3125 3.125q0 1.859375 0.3125 3.125q0.3125 1.25 0.828125 2.015625q0.515625 0.765625 1.203125 1.109375q0.703125 0.328125 1.453125 0.328125q0.75 0 1.4375 -0.328125q0.6875 -0.34375 1.21875 -1.109375q0.53125 -0.765625 0.828125 -2.015625q0.3125 -1.265625 0.3125 -3.125zm15.250107 0q0 2.125 -0.46875 3.6875q-0.453125 1.5625 -1.25 2.578125q-0.796875 1.015625 -1.875 1.515625q-1.078125 0.5 -2.3125 0.5q-1.25 0 -2.328125 -0.5q-1.0625 -0.5 -1.859375 -1.515625q-0.78125 -1.015625 -1.234375 -2.578125q-0.453125 -1.5625 -0.453125 -3.6875q0 -2.125 0.453125 -3.6875q0.453125 -1.578125 1.234375 -2.59375q0.796875 -1.03125 1.859375 -1.53125q1.078125 -0.5 2.328125 -0.5q1.234375 0 2.3125 0.5q1.078125 0.5 1.875 1.53125q0.796875 1.015625 1.25 2.59375q0.46875 1.5625 0.46875 3.6875zm-2.109375 0q0 -1.859375 -0.3125 -3.125q-0.296875 -1.265625 -0.828125 -2.03125q-0.53125 -0.765625 -1.21875 -1.09375q-0.6875 -0.34375 -1.4375 -0.34375q-0.75 0 -1.453125 0.34375q-0.6875 0.328125 -1.203125 1.09375q-0.515625 0.765625 -0.828125 2.03125q-0.3125 1.265625 -0.3125 3.125q0 1.859375 0.3125 3.125q0.3125 1.25 0.828125 2.015625q0.515625 0.765625 1.203125 1.109375q0.703125 0.328125 1.453125 0.328125q0.75 0 1.4375 -0.328125q0.6875 -0.34375 1.21875 -1.109375q0.53125 -0.765625 0.828125 -2.015625q0.3125 -1.265625 0.3125 -3.125zm15.250107 0q0 2.125 -0.46875 3.6875q-0.453125 1.5625 -1.25 2.578125q-0.796875 1.015625 -1.875 1.515625q-1.078125 0.5 -2.3125 0.5q-1.25 0 -2.328125 -0.5q-1.0625 -0.5 -1.859375 -1.515625q-0.78125 -1.015625 -1.234375 -2.578125q-0.453125 -1.5625 -0.453125 -3.6875q0 -2.125 0.453125 -3.6875q0.453125 -1.578125 1.234375 -2.59375q0.796875 -1.03125 1.859375 -1.53125q1.078125 -0.5 2.328125 -0.5q1.234375 0 2.3125 0.5q1.078125 0.5 1.875 1.53125q0.796875 1.015625 1.25 2.59375q0.46875 1.5625 0.46875 3.6875zm-2.109375 0q0 -1.859375 -0.3125 -3.125q-0.296875 -1.265625 -0.828125 -2.03125q-0.53125 -0.765625 -1.21875 -1.09375q-0.6875 -0.34375 -1.4375 -0.34375q-0.75 0 -1.453125 0.34375q-0.6875 0.328125 -1.203125 1.09375q-0.515625 0.765625 -0.828125 2.03125q-0.3125 1.265625 -0.3125 3.125q0 1.859375 0.3125 3.125q0.3125 1.25 0.828125 2.015625q0.515625 0.765625 1.203125 1.109375q0.703125 0.328125 1.453125 0.328125q0.75 0 1.4375 -0.328125q0.6875 -0.34375 1.21875 -1.109375q0.53125 -0.765625 0.828125 -2.015625q0.3125 -1.265625 0.3125 -3.125z" fill-rule="nonzero"/><path fill="#000000" d="m233.95251 486.06165l2.171875 0l0 21.328125l-2.171875 0l0 -21.328125z" fill-rule="nonzero"/><path fill="#859900" d="m251.01508 495.4054q0 2.140625 -0.46875 3.71875q-0.453125 1.578125 -1.265625 2.609375q-0.8125 1.03125 -1.921875 1.546875q-1.09375 0.5 -2.375 0.5q-1.28125 0 -2.375 -0.5q-1.09375 -0.515625 -1.90625 -1.546875q-0.796875 -1.03125 -1.25 -2.609375q-0.453125 -1.578125 -0.453125 -3.71875q0 -2.15625 0.453125 -3.71875q0.453125 -1.578125 1.25 -2.609375q0.8125 -1.03125 1.90625 -1.53125q1.09375 -0.515625 2.375 -0.515625q1.28125 0 2.375 0.515625q1.109375 0.5 1.921875 1.53125q0.8125 1.03125 1.265625 2.609375q0.46875 1.5625 0.46875 3.71875zm-2.890625 0q0 -1.78125 -0.265625 -2.9375q-0.25 -1.171875 -0.6875 -1.859375q-0.4375 -0.703125 -1.015625 -0.96875q-0.5625 -0.28125 -1.171875 -0.28125q-0.59375 0 -1.15625 0.28125q-0.5625 0.265625 -1.0 0.96875q-0.421875 0.6875 -0.6875 1.859375q-0.25 1.15625 -0.25 2.9375q0 1.78125 0.25 2.953125q0.265625 1.15625 0.6875 1.84375q0.4375 0.6875 1.0 0.96875q0.5625 0.28125 1.15625 0.28125q0.609375 0 1.171875 -0.28125q0.578125 -0.28125 1.015625 -0.96875q0.4375 -0.6875 0.6875 -1.84375q0.265625 -1.171875 0.265625 -2.953125zm16.031372 0q0 2.140625 -0.46875 3.71875q-0.453125 1.578125 -1.265625 2.609375q-0.8125 1.03125 -1.921875 1.546875q-1.09375 0.5 -2.375 0.5q-1.28125 0 -2.3750153 -0.5q-1.09375 -0.515625 -1.90625 -1.546875q-0.796875 -1.03125 -1.25 -2.609375q-0.453125 -1.578125 -0.453125 -3.71875q0 -2.15625 0.453125 -3.71875q0.453125 -1.578125 1.25 -2.609375q0.8125 -1.03125 1.90625 -1.53125q1.0937653 -0.515625 2.3750153 -0.515625q1.28125 0 2.375 0.515625q1.109375 0.5 1.921875 1.53125q0.8125 1.03125 1.265625 2.609375q0.46875 1.5625 0.46875 3.71875zm-2.890625 0q0 -1.78125 -0.265625 -2.9375q-0.25 -1.171875 -0.6875 -1.859375q-0.4375 -0.703125 -1.015625 -0.96875q-0.5625 -0.28125 -1.171875 -0.28125q-0.59375 0 -1.15625 0.28125q-0.5625 0.265625 -1.0000153 0.96875q-0.421875 0.6875 -0.6875 1.859375q-0.25 1.15625 -0.25 2.9375q0 1.78125 0.25 2.953125q0.265625 1.15625 0.6875 1.84375q0.43751526 0.6875 1.0000153 0.96875q0.5625 0.28125 1.15625 0.28125q0.609375 0 1.171875 -0.28125q0.578125 -0.28125 1.015625 -0.96875q0.4375 -0.6875 0.6875 -1.84375q0.265625 -1.171875 0.265625 -2.953125zm16.031342 0q0 2.140625 -0.46875 3.71875q-0.453125 1.578125 -1.265625 2.609375q-0.8125 1.03125 -1.921875 1.546875q-1.09375 0.5 -2.375 0.5q-1.28125 0 -2.375 -0.5q-1.09375 -0.515625 -1.90625 -1.546875q-0.796875 -1.03125 -1.25 -2.609375q-0.453125 -1.578125 -0.453125 -3.71875q0 -2.15625 0.453125 -3.71875q0.453125 -1.578125 1.25 -2.609375q0.8125 -1.03125 1.90625 -1.53125q1.09375 -0.515625 2.375 -0.515625q1.28125 0 2.375 0.515625q1.109375 0.5 1.921875 1.53125q0.8125 1.03125 1.265625 2.609375q0.46875 1.5625 0.46875 3.71875zm-2.890625 0q0 -1.78125 -0.265625 -2.9375q-0.25 -1.171875 -0.6875 -1.859375q-0.4375 -0.703125 -1.015625 -0.96875q-0.5625 -0.28125 -1.171875 -0.28125q-0.59375 0 -1.15625 0.28125q-0.5625 0.265625 -1.0 0.96875q-0.421875 0.6875 -0.6875 1.859375q-0.25 1.15625 -0.25 2.9375q0 1.78125 0.25 2.953125q0.265625 1.15625 0.6875 1.84375q0.4375 0.6875 1.0 0.96875q0.5625 0.28125 1.15625 0.28125q0.609375 0 1.171875 -0.28125q0.578125 -0.28125 1.015625 -0.96875q0.4375 -0.6875 0.6875 -1.84375q0.265625 -1.171875 0.265625 -2.953125zm6.500122 6.09375l3.3125 0l0 -9.546875q0 -0.5625 0.046875 -1.171875l-2.359375 1.96875q-0.15625 0.125 -0.3125 0.171875q-0.140625 0.046875 -0.296875 0.046875q-0.21875 0 -0.40625 -0.09375q-0.1875 -0.09375 -0.28125 -0.21875l-0.875 -1.21875l4.984375 -4.25l2.3125 0l0 14.3125l2.9375 0l0 2.09375l-9.0625 0l0 -2.09375z" fill-rule="nonzero"/><path fill="#000000" fill-opacity="0.0" d="m634.35986 232.59717l-77.57483 -26.204727" fill-rule="evenodd"/><path stroke="#dc322f" stroke-width="3.0" stroke-linejoin="round" stroke-linecap="butt" stroke-dasharray="12.0,9.0" d="m634.35986 232.59717l-77.57483 -26.204727" fill-rule="evenodd"/><path fill="#dc322f" d="m611.0044 216.09538l6.048462 -6.048477l15.167603 15.167618l15.167603 -15.167618l6.048462 6.048477l-15.167603 15.167603l15.167603 15.167618l-6.048462 6.048462l-15.167603 -15.167603l-15.167603 15.167603l-6.048462 -6.048462l15.167603 -15.167618z" fill-rule="evenodd"/><path stroke="#dc322f" stroke-width="1.0" stroke-linejoin="round" stroke-linecap="butt" d="m611.0044 216.09538l6.048462 -6.048477l15.167603 15.167618l15.167603 -15.167618l6.048462 6.048477l-15.167603 15.167603l15.167603 15.167618l-6.048462 6.048462l-15.167603 -15.167603l-15.167603 15.167603l-6.048462 -6.048462l15.167603 -15.167618z" fill-rule="evenodd"/><path fill="#b58900" d="m807.2803 74.231895l0 0c0 -15.10738 12.254028 -27.354332 27.370117 -27.354332l0 0c7.258972 0 14.220642 2.8819656 19.353577 8.011898c5.1328735 5.1299324 8.0164795 12.087612 8.0164795 19.342434l0 0c0 15.107376 -12.254028 27.354332 -27.370056 27.354332l0 0c-15.116089 0 -27.370117 -12.246956 -27.370117 -27.354332z" fill-rule="evenodd"/><path stroke="#b58900" stroke-width="1.0" stroke-linejoin="round" stroke-linecap="butt" d="m807.2803 74.231895l0 0c0 -15.10738 12.254028 -27.354332 27.370117 -27.354332l0 0c7.258972 0 14.220642 2.8819656 19.353577 8.011898c5.1328735 5.1299324 8.0164795 12.087612 8.0164795 19.342434l0 0c0 15.107376 -12.254028 27.354332 -27.370056 27.354332l0 0c-15.116089 0 -27.370117 -12.246956 -27.370117 -27.354332z" fill-rule="evenodd"/><path fill="#ffffff" d="m896.5204 38.672413l0 0c0 -15.107378 12.254028 -27.354328 27.370117 -27.354328l0 0c7.258972 0 14.220642 2.8819656 19.353516 8.011899c5.1329346 5.1299305 8.016541 12.087612 8.016541 19.34243l0 0c0 15.10738 -12.254028 27.354336 -27.370056 27.354336l0 0c-15.116089 0 -27.370117 -12.246956 -27.370117 -27.354336z" fill-rule="evenodd"/><path stroke="#000000" stroke-width="1.0" stroke-linejoin="round" stroke-linecap="butt" d="m896.5204 38.672413l0 0c0 -15.107378 12.254028 -27.354328 27.370117 -27.354328l0 0c7.258972 0 14.220642 2.8819656 19.353516 8.011899c5.1329346 5.1299305 8.016541 12.087612 8.016541 19.34243l0 0c0 15.10738 -12.254028 27.354336 -27.370056 27.354336l0 0c-15.116089 0 -27.370117 -12.246956 -27.370117 -27.354336z" fill-rule="evenodd"/><path fill="#b58900" d="m769.40906 111.93529l0 0c0 -15.107376 -12.253967 -27.354332 -27.370056 -27.354332l0 0c-7.258972 0 -14.220703 2.8819656 -19.353577 8.011902c-5.1328735 5.1299286 -8.0164795 12.087608 -8.0164795 19.34243l0 0c0 15.107384 12.253967 27.354324 27.370056 27.354324l0 0c15.116089 0 27.370056 -12.246941 27.370056 -27.354324z" fill-rule="evenodd"/><path stroke="#b58900" stroke-width="1.0" stroke-linejoin="round" stroke-linecap="butt" d="m769.40906 111.93529l0 0c0 -15.107376 -12.253967 -27.354332 -27.370056 -27.354332l0 0c-7.258972 0 -14.220703 2.8819656 -19.353577 8.011902c-5.1328735 5.1299286 -8.0164795 12.087608 -8.0164795 19.34243l0 0c0 15.107384 12.253967 27.354324 27.370056 27.354324l0 0c15.116089 0 27.370056 -12.246941 27.370056 -27.354324z" fill-rule="evenodd"/><path fill="#b58900" d="m672.59955 152.13336l0 0c0 -15.107391 -12.254028 -27.354332 -27.370117 -27.354332l0 0c-7.258972 0 -14.220642 2.8819656 -19.353577 8.011894c-5.1328735 5.1299286 -8.0164795 12.087616 -8.0164795 19.342438l0 0c0 15.107376 12.253967 27.354324 27.370056 27.354324l0 0c15.116089 0 27.370117 -12.246948 27.370117 -27.354324z" fill-rule="evenodd"/><path stroke="#b58900" stroke-width="1.0" stroke-linejoin="round" stroke-linecap="butt" d="m672.59955 152.13336l0 0c0 -15.107391 -12.254028 -27.354332 -27.370117 -27.354332l0 0c-7.258972 0 -14.220642 2.8819656 -19.353577 8.011894c-5.1328735 5.1299286 -8.0164795 12.087616 -8.0164795 19.342438l0 0c0 15.107376 12.253967 27.354324 27.370056 27.354324l0 0c15.116089 0 27.370117 -12.246948 27.370117 -27.354324z" fill-rule="evenodd"/><path fill="#859900" d="m335.88358 287.71353l0 0c0 -15.107391 -12.254028 -27.35434 -27.370087 -27.35434l0 0c-7.2590027 0 -14.220673 2.881958 -19.353577 8.011902c-5.1328735 5.129944 -8.01651 12.087616 -8.01651 19.342438l0 0c0 15.107391 12.253998 27.35434 27.370087 27.35434l0 0c15.116058 0 27.370087 -12.246948 27.370087 -27.35434z" fill-rule="evenodd"/><path stroke="#859900" stroke-width="1.0" stroke-linejoin="round" stroke-linecap="butt" d="m335.88358 287.71353l0 0c0 -15.107391 -12.254028 -27.35434 -27.370087 -27.35434l0 0c-7.2590027 0 -14.220673 2.881958 -19.353577 8.011902c-5.1328735 5.129944 -8.01651 12.087616 -8.01651 19.342438l0 0c0 15.107391 12.253998 27.35434 27.370087 27.35434l0 0c15.116058 0 27.370087 -12.246948 27.370087 -27.35434z" fill-rule="evenodd"/><path fill="#000000" fill-opacity="0.0" d="m551.997 285.1153l-94.36218 -35.77954" fill-rule="evenodd"/><path stroke="#dc322f" stroke-width="3.0" stroke-linejoin="round" stroke-linecap="butt" stroke-dasharray="12.0,9.0" d="m551.997 285.1153l-94.36218 -35.77954" fill-rule="evenodd"/><path fill="#dc322f" d="m531.72797 271.50894l6.048462 -6.048462l15.167603 15.167603l15.167603 -15.167603l6.048462 6.048462l-15.167603 15.167603l15.167603 15.167603l-6.048462 6.048462l-15.167603 -15.167603l-15.167603 15.167603l-6.048462 -6.048462l15.167603 -15.167603z" fill-rule="evenodd"/><path stroke="#dc322f" stroke-width="1.0" stroke-linejoin="round" stroke-linecap="butt" d="m531.72797 271.50894l6.048462 -6.048462l15.167603 15.167603l15.167603 -15.167603l6.048462 6.048462l-15.167603 15.167603l15.167603 15.167603l-6.048462 6.048462l-15.167603 -15.167603l-15.167603 15.167603l-6.048462 -6.048462l15.167603 -15.167603z" fill-rule="evenodd"/><path fill="#859900" d="m405.82956 239.94446l0 0c0 -15.107376 12.253998 -27.354324 27.370087 -27.354324l0 0c7.2590027 0 14.220673 2.881958 19.353577 8.011902c5.1328735 5.1299286 8.01651 12.087616 8.01651 19.342422l0 0c0 15.107391 -12.253998 27.35434 -27.370087 27.35434l0 0c-15.116089 0 -27.370087 -12.246948 -27.370087 -27.35434z" fill-rule="evenodd"/><path stroke="#859900" stroke-width="1.0" stroke-linejoin="round" stroke-linecap="butt" d="m405.82956 239.94446l0 0c0 -15.107376 12.253998 -27.354324 27.370087 -27.354324l0 0c7.2590027 0 14.220673 2.881958 19.353577 8.011902c5.1328735 5.1299286 8.01651 12.087616 8.01651 19.342422l0 0c0 15.107391 -12.253998 27.35434 -27.370087 27.35434l0 0c-15.116089 0 -27.370087 -12.246948 -27.370087 -27.35434z" fill-rule="evenodd"/><path fill="#000000" fill-opacity="0.0" d="m790.6719 -12.346457l107.1181 0l0 64.62992l-107.1181 0z" fill-rule="evenodd"/><path fill="#000000" d="m887.4775 12.654795l-2.015625 1.625q-1.921875 -1.453125 -3.59375 -1.453125q-1.375 0 -2.015625 0.734375q-0.625 0.734375 -0.625 1.578125q0 1.09375 0.9375 1.828125q0.9375 0.71875 2.75 0.71875q0.234375 0 0.78125 -0.015625l0 2.359375q-0.5 -0.015625 -0.75 -0.015625q-2.234375 0 -3.109375 0.859375q-0.859375 0.859375 -0.859375 1.9375q0 1.109375 0.875 1.875q0.875 0.75 2.078125 0.75q2.203125 0 4.125 -2.046875l2.015625 1.703125q-2.5 2.65625 -6.21875 2.65625q-2.921875 0 -4.359375 -1.484375q-1.4375 -1.484375 -1.4375 -3.453125q0 -2.828125 2.75 -4.015625q-2.296875 -1.296875 -2.296875 -3.578125q0 -1.859375 1.359375 -3.328125q1.359375 -1.484375 4.171875 -1.484375q3.21875 0 5.4375 2.25z" fill-rule="nonzero"/><path fill="#000000" fill-opacity="0.0" d="m704.4885 25.61636l107.1181 0l0 64.62993l-107.1181 0z" fill-rule="evenodd"/><path fill="#b58900" d="m801.8023 57.984444q0 2.515625 -0.546875 4.34375q-0.53125 1.828125 -1.46875 3.03125q-0.921875 1.203125 -2.203125 1.796875q-1.265625 0.578125 -2.71875 0.578125q-1.46875 0 -2.734375 -0.578125q-1.25 -0.59375 -2.1875 -1.796875q-0.9375 -1.203125 -1.46875 -3.03125q-0.53125 -1.828125 -0.53125 -4.34375q0 -2.5 0.53125 -4.34375q0.53125 -1.84375 1.46875 -3.046875q0.9375 -1.203125 2.1875 -1.78125q1.265625 -0.59375 2.734375 -0.59375q1.453125 0 2.71875 0.59375q1.28125 0.578125 2.203125 1.78125q0.9375 1.203125 1.46875 3.046875q0.546875 1.84375 0.546875 4.34375zm-2.46875 0q0 -2.1875 -0.359375 -3.671875q-0.359375 -1.484375 -0.984375 -2.390625q-0.625 -0.90625 -1.4375 -1.296875q-0.8125 -0.390625 -1.6875 -0.390625q-0.875 0 -1.6875 0.390625q-0.8125 0.390625 -1.4375 1.296875q-0.609375 0.90625 -0.984375 2.390625q-0.359375 1.484375 -0.359375 3.671875q0 2.1875 0.359375 3.671875q0.375 1.484375 0.984375 2.390625q0.625 0.90625 1.4375 1.296875q0.8125 0.390625 1.6875 0.390625q0.875 0 1.6875 -0.390625q0.8125 -0.390625 1.4375 -1.296875q0.625 -0.90625 0.984375 -2.390625q0.359375 -1.484375 0.359375 -3.671875z" fill-rule="nonzero"/><path fill="#000000" fill-opacity="0.0" d="m611.56067 59.44518l107.1181 0l0 64.62993l-107.1181 0z" fill-rule="evenodd"/><path fill="#b58900" d="m693.4139 91.81326q0 2.515625 -0.546875 4.34375q-0.53125 1.828125 -1.46875 3.03125q-0.921875 1.203125 -2.203125 1.796875q-1.265625 0.578125 -2.71875 0.578125q-1.46875 0 -2.734375 -0.578125q-1.25 -0.59375 -2.1875 -1.796875q-0.9375 -1.203125 -1.46875 -3.03125q-0.53125 -1.828125 -0.53125 -4.34375q0 -2.5 0.53125 -4.34375q0.53125 -1.84375 1.46875 -3.046875q0.9375 -1.203125 2.1875 -1.78125q1.265625 -0.59375 2.734375 -0.59375q1.453125 0 2.71875 0.59375q1.28125 0.578125 2.203125 1.78125q0.9375 1.203125 1.46875 3.046875q0.546875 1.84375 0.546875 4.34375zm-2.46875 0q0 -2.1875 -0.359375 -3.671875q-0.359375 -1.484375 -0.984375 -2.390625q-0.625 -0.90625 -1.4375 -1.296875q-0.8125 -0.390625 -1.6875 -0.390625q-0.875 0 -1.6875 0.390625q-0.8125 0.390625 -1.4375 1.296875q-0.609375 0.90625 -0.984375 2.390625q-0.359375 1.484375 -0.359375 3.671875q0 2.1875 0.359375 3.671875q0.375 1.484375 0.984375 2.390625q0.625 0.90625 1.4375 1.296875q0.8125 0.390625 1.6875 0.390625q0.875 0 1.6875 -0.390625q0.8125 -0.390625 1.4375 -1.296875q0.625 -0.90625 0.984375 -2.390625q0.359375 -1.484375 0.359375 -3.671875zm17.929321 0q0 2.515625 -0.546875 4.34375q-0.53125 1.828125 -1.46875 3.03125q-0.921875 1.203125 -2.203125 1.796875q-1.265625 0.578125 -2.71875 0.578125q-1.46875 0 -2.734375 -0.578125q-1.25 -0.59375 -2.1875 -1.796875q-0.9375 -1.203125 -1.46875 -3.03125q-0.53125 -1.828125 -0.53125 -4.34375q0 -2.5 0.53125 -4.34375q0.53125 -1.84375 1.46875 -3.046875q0.9375 -1.203125 2.1875 -1.78125q1.265625 -0.59375 2.734375 -0.59375q1.453125 0 2.71875 0.59375q1.28125 0.578125 2.203125 1.78125q0.9375 1.203125 1.46875 3.046875q0.546875 1.84375 0.546875 4.34375zm-2.46875 0q0 -2.1875 -0.359375 -3.671875q-0.359375 -1.484375 -0.984375 -2.390625q-0.625 -0.90625 -1.4375 -1.296875q-0.8125 -0.390625 -1.6875 -0.390625q-0.875 0 -1.6875 0.390625q-0.8125 0.390625 -1.4375 1.296875q-0.609375 0.90625 -0.984375 2.390625q-0.359375 1.484375 -0.359375 3.671875q0 2.1875 0.359375 3.671875q0.375 1.484375 0.984375 2.390625q0.625 0.90625 1.4375 1.296875q0.8125 0.390625 1.6875 0.390625q0.875 0 1.6875 -0.390625q0.8125 -0.390625 1.4375 -1.296875q0.625 -0.90625 0.984375 -2.390625q0.359375 -1.484375 0.359375 -3.671875z" fill-rule="nonzero"/><path fill="#000000" fill-opacity="0.0" d="m515.4624 100.43588l107.1181 0l0 64.62991l-107.1181 0z" fill-rule="evenodd"/><path fill="#b58900" d="m581.85504 132.80397q0 2.515625 -0.546875 4.34375q-0.53125 1.828125 -1.46875 3.03125q-0.921875 1.203125 -2.203125 1.796875q-1.265625 0.578125 -2.71875 0.578125q-1.46875 0 -2.734375 -0.578125q-1.25 -0.59375 -2.1875 -1.796875q-0.9375 -1.203125 -1.46875 -3.03125q-0.53125 -1.828125 -0.53125 -4.34375q0 -2.5 0.53125 -4.34375q0.53125 -1.8437576 1.46875 -3.0468826q0.9375 -1.203125 2.1875 -1.78125q1.265625 -0.59375 2.734375 -0.59375q1.453125 0 2.71875 0.59375q1.28125 0.578125 2.203125 1.78125q0.9375 1.203125 1.46875 3.0468826q0.546875 1.84375 0.546875 4.34375zm-2.46875 0q0 -2.1875 -0.359375 -3.671875q-0.359375 -1.4843826 -0.984375 -2.3906326q-0.625 -0.90625 -1.4375 -1.296875q-0.8125 -0.390625 -1.6875 -0.390625q-0.875 0 -1.6875 0.390625q-0.8125 0.390625 -1.4375 1.296875q-0.609375 0.90625 -0.984375 2.3906326q-0.359375 1.484375 -0.359375 3.671875q0 2.1875 0.359375 3.671875q0.375 1.484375 0.984375 2.390625q0.625 0.90625 1.4375 1.296875q0.8125 0.390625 1.6875 0.390625q0.875 0 1.6875 -0.390625q0.8125 -0.390625 1.4375 -1.296875q0.625 -0.90625 0.984375 -2.390625q0.359375 -1.484375 0.359375 -3.671875zm17.929321 0q0 2.515625 -0.546875 4.34375q-0.53125 1.828125 -1.46875 3.03125q-0.921875 1.203125 -2.203125 1.796875q-1.265625 0.578125 -2.71875 0.578125q-1.46875 0 -2.734375 -0.578125q-1.25 -0.59375 -2.1875 -1.796875q-0.9375 -1.203125 -1.46875 -3.03125q-0.53125 -1.828125 -0.53125 -4.34375q0 -2.5 0.53125 -4.34375q0.53125 -1.8437576 1.46875 -3.0468826q0.9375 -1.203125 2.1875 -1.78125q1.265625 -0.59375 2.734375 -0.59375q1.453125 0 2.71875 0.59375q1.28125 0.578125 2.203125 1.78125q0.9375 1.203125 1.46875 3.0468826q0.546875 1.84375 0.546875 4.34375zm-2.46875 0q0 -2.1875 -0.359375 -3.671875q-0.359375 -1.4843826 -0.984375 -2.3906326q-0.625 -0.90625 -1.4375 -1.296875q-0.8125 -0.390625 -1.6875 -0.390625q-0.875 0 -1.6875 0.390625q-0.8125 0.390625 -1.4375 1.296875q-0.609375 0.90625 -0.984375 2.3906326q-0.359375 1.484375 -0.359375 3.671875q0 2.1875 0.359375 3.671875q0.375 1.484375 0.984375 2.390625q0.625 0.90625 1.4375 1.296875q0.8125 0.390625 1.6875 0.390625q0.875 0 1.6875 -0.390625q0.8125 -0.390625 1.4375 -1.296875q0.625 -0.90625 0.984375 -2.390625q0.359375 -1.484375 0.359375 -3.671875zm17.929321 0q0 2.515625 -0.546875 4.34375q-0.53125 1.828125 -1.46875 3.03125q-0.921875 1.203125 -2.203125 1.796875q-1.265625 0.578125 -2.71875 0.578125q-1.46875 0 -2.734375 -0.578125q-1.25 -0.59375 -2.1875 -1.796875q-0.9375 -1.203125 -1.46875 -3.03125q-0.53125 -1.828125 -0.53125 -4.34375q0 -2.5 0.53125 -4.34375q0.53125 -1.8437576 1.46875 -3.0468826q0.9375 -1.203125 2.1875 -1.78125q1.265625 -0.59375 2.734375 -0.59375q1.453125 0 2.71875 0.59375q1.28125 0.578125 2.203125 1.78125q0.9375 1.203125 1.46875 3.0468826q0.546875 1.84375 0.546875 4.34375zm-2.46875 0q0 -2.1875 -0.359375 -3.671875q-0.359375 -1.4843826 -0.984375 -2.3906326q-0.625 -0.90625 -1.4375 -1.296875q-0.8125 -0.390625 -1.6875 -0.390625q-0.875 0 -1.6875 0.390625q-0.8125 0.390625 -1.4375 1.296875q-0.609375 0.90625 -0.984375 2.3906326q-0.359375 1.484375 -0.359375 3.671875q0 2.1875 0.359375 3.671875q0.375 1.484375 0.984375 2.390625q0.625 0.90625 1.4375 1.296875q0.8125 0.390625 1.6875 0.390625q0.875 0 1.6875 -0.390625q0.8125 -0.390625 1.4375 -1.296875q0.625 -0.90625 0.984375 -2.390625q0.359375 -1.484375 0.359375 -3.671875z" fill-rule="nonzero"/><path fill="#000000" fill-opacity="0.0" d="m408.13556 140.05057l107.1181 0l0 64.62991l-107.1181 0z" fill-rule="evenodd"/><path fill="#b58900" d="m459.06763 172.41864q0 2.515625 -0.546875 4.34375q-0.53125 1.828125 -1.46875 3.03125q-0.921875 1.203125 -2.203125 1.796875q-1.265625 0.578125 -2.71875 0.578125q-1.46875 0 -2.734375 -0.578125q-1.25 -0.59375 -2.1875 -1.796875q-0.9375 -1.203125 -1.46875 -3.03125q-0.53125 -1.828125 -0.53125 -4.34375q0 -2.5 0.53125 -4.34375q0.53125 -1.84375 1.46875 -3.046875q0.9375 -1.203125 2.1875 -1.78125q1.265625 -0.59375 2.734375 -0.59375q1.453125 0 2.71875 0.59375q1.28125 0.578125 2.203125 1.78125q0.9375 1.203125 1.46875 3.046875q0.546875 1.84375 0.546875 4.34375zm-2.46875 0q0 -2.1875 -0.359375 -3.671875q-0.359375 -1.484375 -0.984375 -2.390625q-0.625 -0.90625 -1.4375 -1.296875q-0.8125 -0.390625 -1.6875 -0.390625q-0.875 0 -1.6875 0.390625q-0.8125 0.390625 -1.4375 1.296875q-0.609375 0.90625 -0.984375 2.390625q-0.359375 1.484375 -0.359375 3.671875q0 2.1875 0.359375 3.671875q0.375 1.484375 0.984375 2.390625q0.625 0.90625 1.4375 1.296875q0.8125 0.390625 1.6875 0.390625q0.875 0 1.6875 -0.390625q0.8125 -0.390625 1.4375 -1.296875q0.625 -0.90625 0.984375 -2.390625q0.359375 -1.484375 0.359375 -3.671875zm17.929321 0q0 2.515625 -0.546875 4.34375q-0.53125 1.828125 -1.46875 3.03125q-0.921875 1.203125 -2.203125 1.796875q-1.265625 0.578125 -2.71875 0.578125q-1.46875 0 -2.734375 -0.578125q-1.25 -0.59375 -2.1875 -1.796875q-0.9375 -1.203125 -1.46875 -3.03125q-0.53125 -1.828125 -0.53125 -4.34375q0 -2.5 0.53125 -4.34375q0.53125 -1.84375 1.46875 -3.046875q0.9375 -1.203125 2.1875 -1.78125q1.265625 -0.59375 2.734375 -0.59375q1.453125 0 2.71875 0.59375q1.28125 0.578125 2.203125 1.78125q0.9375 1.203125 1.46875 3.046875q0.546875 1.84375 0.546875 4.34375zm-2.46875 0q0 -2.1875 -0.359375 -3.671875q-0.359375 -1.484375 -0.984375 -2.390625q-0.625 -0.90625 -1.4375 -1.296875q-0.8125 -0.390625 -1.6875 -0.390625q-0.875 0 -1.6875 0.390625q-0.8125 0.390625 -1.4375 1.296875q-0.609375 0.90625 -0.984375 2.390625q-0.359375 1.484375 -0.359375 3.671875q0 2.1875 0.359375 3.671875q0.375 1.484375 0.984375 2.390625q0.625 0.90625 1.4375 1.296875q0.8125 0.390625 1.6875 0.390625q0.875 0 1.6875 -0.390625q0.8125 -0.390625 1.4375 -1.296875q0.625 -0.90625 0.984375 -2.390625q0.359375 -1.484375 0.359375 -3.671875zm17.929321 0q0 2.515625 -0.546875 4.34375q-0.53125 1.828125 -1.46875 3.03125q-0.921875 1.203125 -2.203125 1.796875q-1.265625 0.578125 -2.71875 0.578125q-1.46875 0 -2.734375 -0.578125q-1.25 -0.59375 -2.1875 -1.796875q-0.9375 -1.203125 -1.46875 -3.03125q-0.53125 -1.828125 -0.53125 -4.34375q0 -2.5 0.53125 -4.34375q0.53125 -1.84375 1.46875 -3.046875q0.9375 -1.203125 2.1875 -1.78125q1.265625 -0.59375 2.734375 -0.59375q1.453125 0 2.71875 0.59375q1.28125 0.578125 2.203125 1.78125q0.9375 1.203125 1.46875 3.046875q0.546875 1.84375 0.546875 4.34375zm-2.46875 0q0 -2.1875 -0.359375 -3.671875q-0.359375 -1.484375 -0.984375 -2.390625q-0.625 -0.90625 -1.4375 -1.296875q-0.8125 -0.390625 -1.6875 -0.390625q-0.875 0 -1.6875 0.390625q-0.8125 0.390625 -1.4375 1.296875q-0.609375 0.90625 -0.984375 2.390625q-0.359375 1.484375 -0.359375 3.671875q0 2.1875 0.359375 3.671875q0.375 1.484375 0.984375 2.390625q0.625 0.90625 1.4375 1.296875q0.8125 0.390625 1.6875 0.390625q0.875 0 1.6875 -0.390625q0.8125 -0.390625 1.4375 -1.296875q0.625 -0.90625 0.984375 -2.390625q0.359375 -1.484375 0.359375 -3.671875zm17.929321 0q0 2.515625 -0.546875 4.34375q-0.53125 1.828125 -1.46875 3.03125q-0.921875 1.203125 -2.203125 1.796875q-1.265625 0.578125 -2.71875 0.578125q-1.46875 0 -2.734375 -0.578125q-1.25 -0.59375 -2.1875 -1.796875q-0.9375 -1.203125 -1.46875 -3.03125q-0.53125 -1.828125 -0.53125 -4.34375q0 -2.5 0.53125 -4.34375q0.53125 -1.84375 1.46875 -3.046875q0.9375 -1.203125 2.1875 -1.78125q1.265625 -0.59375 2.734375 -0.59375q1.453125 0 2.71875 0.59375q1.28125 0.578125 2.203125 1.78125q0.9375 1.203125 1.46875 3.046875q0.546875 1.84375 0.546875 4.34375zm-2.46875 0q0 -2.1875 -0.359375 -3.671875q-0.359375 -1.484375 -0.984375 -2.390625q-0.625 -0.90625 -1.4375 -1.296875q-0.8125 -0.390625 -1.6875 -0.390625q-0.875 0 -1.6875 0.390625q-0.8125 0.390625 -1.4375 1.296875q-0.609375 0.90625 -0.984375 2.390625q-0.359375 1.484375 -0.359375 3.671875q0 2.1875 0.359375 3.671875q0.375 1.484375 0.984375 2.390625q0.625 0.90625 1.4375 1.296875q0.8125 0.390625 1.6875 0.390625q0.875 0 1.6875 -0.390625q0.8125 -0.390625 1.4375 -1.296875q0.625 -0.90625 0.984375 -2.390625q0.359375 -1.484375 0.359375 -3.671875z" fill-rule="nonzero"/><path fill="#000000" fill-opacity="0.0" d="m206.36356 201.56665l194.07874 0l0 64.62991l-194.07874 0z" fill-rule="evenodd"/><path fill="#b58900" d="m331.41046 234.03223q0 2.125 -0.46875 3.6875q-0.453125 1.5625 -1.25 2.578125q-0.796875 1.015625 -1.875 1.515625q-1.078125 0.5 -2.3125 0.5q-1.25 0 -2.328125 -0.5q-1.0625 -0.5 -1.859375 -1.515625q-0.78125 -1.015625 -1.234375 -2.578125q-0.453125 -1.5625 -0.453125 -3.6875q0 -2.125 0.453125 -3.6875q0.453125 -1.578125 1.234375 -2.59375q0.796875 -1.03125 1.859375 -1.53125q1.078125 -0.5 2.328125 -0.5q1.234375 0 2.3125 0.5q1.078125 0.5 1.875 1.53125q0.796875 1.015625 1.25 2.59375q0.46875 1.5625 0.46875 3.6875zm-2.109375 0q0 -1.859375 -0.3125 -3.125q-0.296875 -1.265625 -0.828125 -2.03125q-0.53125 -0.765625 -1.21875 -1.09375q-0.6875 -0.34375 -1.4375 -0.34375q-0.75 0 -1.453125 0.34375q-0.6875 0.328125 -1.203125 1.09375q-0.515625 0.765625 -0.828125 2.03125q-0.3125 1.265625 -0.3125 3.125q0 1.859375 0.3125 3.125q0.3125 1.25 0.828125 2.015625q0.515625 0.765625 1.203125 1.109375q0.703125 0.328125 1.453125 0.328125q0.75 0 1.4375 -0.328125q0.6875 -0.34375 1.21875 -1.109375q0.53125 -0.765625 0.828125 -2.015625q0.3125 -1.265625 0.3125 -3.125zm15.250092 0q0 2.125 -0.46875 3.6875q-0.453125 1.5625 -1.25 2.578125q-0.796875 1.015625 -1.875 1.515625q-1.078125 0.5 -2.3125 0.5q-1.25 0 -2.328125 -0.5q-1.0625 -0.5 -1.859375 -1.515625q-0.78125 -1.015625 -1.234375 -2.578125q-0.453125 -1.5625 -0.453125 -3.6875q0 -2.125 0.453125 -3.6875q0.453125 -1.578125 1.234375 -2.59375q0.796875 -1.03125 1.859375 -1.53125q1.078125 -0.5 2.328125 -0.5q1.234375 0 2.3125 0.5q1.078125 0.5 1.875 1.53125q0.796875 1.015625 1.25 2.59375q0.46875 1.5625 0.46875 3.6875zm-2.109375 0q0 -1.859375 -0.3125 -3.125q-0.296875 -1.265625 -0.828125 -2.03125q-0.53125 -0.765625 -1.21875 -1.09375q-0.6875 -0.34375 -1.4375 -0.34375q-0.75 0 -1.453125 0.34375q-0.6875 0.328125 -1.203125 1.09375q-0.515625 0.765625 -0.828125 2.03125q-0.3125 1.265625 -0.3125 3.125q0 1.859375 0.3125 3.125q0.3125 1.25 0.828125 2.015625q0.515625 0.765625 1.203125 1.109375q0.703125 0.328125 1.453125 0.328125q0.75 0 1.4375 -0.328125q0.6875 -0.34375 1.21875 -1.109375q0.53125 -0.765625 0.828125 -2.015625q0.3125 -1.265625 0.3125 -3.125zm15.250122 0q0 2.125 -0.46875 3.6875q-0.453125 1.5625 -1.25 2.578125q-0.796875 1.015625 -1.875 1.515625q-1.078125 0.5 -2.3125 0.5q-1.25 0 -2.328125 -0.5q-1.0625 -0.5 -1.859375 -1.515625q-0.78125 -1.015625 -1.234375 -2.578125q-0.453125 -1.5625 -0.453125 -3.6875q0 -2.125 0.453125 -3.6875q0.453125 -1.578125 1.234375 -2.59375q0.796875 -1.03125 1.859375 -1.53125q1.078125 -0.5 2.328125 -0.5q1.234375 0 2.3125 0.5q1.078125 0.5 1.875 1.53125q0.796875 1.015625 1.25 2.59375q0.46875 1.5625 0.46875 3.6875zm-2.109375 0q0 -1.859375 -0.3125 -3.125q-0.296875 -1.265625 -0.828125 -2.03125q-0.53125 -0.765625 -1.21875 -1.09375q-0.6875 -0.34375 -1.4375 -0.34375q-0.75 0 -1.453125 0.34375q-0.6875 0.328125 -1.203125 1.09375q-0.515625 0.765625 -0.828125 2.03125q-0.3125 1.265625 -0.3125 3.125q0 1.859375 0.3125 3.125q0.3125 1.25 0.828125 2.015625q0.515625 0.765625 1.203125 1.109375q0.703125 0.328125 1.453125 0.328125q0.75 0 1.4375 -0.328125q0.6875 -0.34375 1.21875 -1.109375q0.53125 -0.765625 0.828125 -2.015625q0.3125 -1.265625 0.3125 -3.125zm15.250092 0q0 2.125 -0.46875 3.6875q-0.453125 1.5625 -1.25 2.578125q-0.796875 1.015625 -1.875 1.515625q-1.078125 0.5 -2.3125 0.5q-1.25 0 -2.328125 -0.5q-1.0625 -0.5 -1.859375 -1.515625q-0.78125 -1.015625 -1.234375 -2.578125q-0.453125 -1.5625 -0.453125 -3.6875q0 -2.125 0.453125 -3.6875q0.453125 -1.578125 1.234375 -2.59375q0.796875 -1.03125 1.859375 -1.53125q1.078125 -0.5 2.328125 -0.5q1.234375 0 2.3125 0.5q1.078125 0.5 1.875 1.53125q0.796875 1.015625 1.25 2.59375q0.46875 1.5625 0.46875 3.6875zm-2.109375 0q0 -1.859375 -0.3125 -3.125q-0.296875 -1.265625 -0.828125 -2.03125q-0.53125 -0.765625 -1.21875 -1.09375q-0.6875 -0.34375 -1.4375 -0.34375q-0.75 0 -1.453125 0.34375q-0.6875 0.328125 -1.203125 1.09375q-0.515625 0.765625 -0.828125 2.03125q-0.3125 1.265625 -0.3125 3.125q0 1.859375 0.3125 3.125q0.3125 1.25 0.828125 2.015625q0.515625 0.765625 1.203125 1.109375q0.703125 0.328125 1.453125 0.328125q0.75 0 1.4375 -0.328125q0.6875 -0.34375 1.21875 -1.109375q0.53125 -0.765625 0.828125 -2.015625q0.3125 -1.265625 0.3125 -3.125z" fill-rule="nonzero"/><path fill="#000000" d="m373.81714 224.61035l2.171875 0l0 21.328125l-2.171875 0l0 -21.328125z" fill-rule="nonzero"/><path fill="#859900" d="m390.8797 233.9541q0 2.140625 -0.46875 3.71875q-0.453125 1.578125 -1.265625 2.609375q-0.8125 1.03125 -1.921875 1.546875q-1.09375 0.5 -2.375 0.5q-1.28125 0 -2.375 -0.5q-1.09375 -0.515625 -1.90625 -1.546875q-0.796875 -1.03125 -1.25 -2.609375q-0.453125 -1.578125 -0.453125 -3.71875q0 -2.15625 0.453125 -3.71875q0.453125 -1.578125 1.25 -2.609375q0.8125 -1.03125 1.90625 -1.53125q1.09375 -0.515625 2.375 -0.515625q1.28125 0 2.375 0.515625q1.109375 0.5 1.921875 1.53125q0.8125 1.03125 1.265625 2.609375q0.46875 1.5625 0.46875 3.71875zm-2.890625 0q0 -1.78125 -0.265625 -2.9375q-0.25 -1.171875 -0.6875 -1.859375q-0.4375 -0.703125 -1.015625 -0.96875q-0.5625 -0.28125 -1.171875 -0.28125q-0.59375 0 -1.15625 0.28125q-0.5625 0.265625 -1.0 0.96875q-0.421875 0.6875 -0.6875 1.859375q-0.25 1.15625 -0.25 2.9375q0 1.78125 0.25 2.953125q0.265625 1.15625 0.6875 1.84375q0.4375 0.6875 1.0 0.96875q0.5625 0.28125 1.15625 0.28125q0.609375 0 1.171875 -0.28125q0.578125 -0.28125 1.015625 -0.96875q0.4375 -0.6875 0.6875 -1.84375q0.265625 -1.171875 0.265625 -2.953125z" fill-rule="nonzero"/><path fill="#000000" fill-opacity="0.0" d="m82.64027 252.5965l194.07874 0l0 64.629944l-194.07874 0z" fill-rule="evenodd"/><path fill="#b58900" d="m194.54642 285.06207q0 2.125 -0.46875 3.6875q-0.453125 1.5625 -1.25 2.578125q-0.796875 1.015625 -1.875 1.515625q-1.078125 0.5 -2.3125 0.5q-1.25 0 -2.328125 -0.5q-1.0625 -0.5 -1.859375 -1.515625q-0.78125 -1.015625 -1.234375 -2.578125q-0.453125 -1.5625 -0.453125 -3.6875q0 -2.125 0.453125 -3.6875q0.453125 -1.578125 1.234375 -2.59375q0.796875 -1.03125 1.859375 -1.53125q1.078125 -0.5 2.328125 -0.5q1.234375 0 2.3125 0.5q1.078125 0.5 1.875 1.53125q0.796875 1.015625 1.25 2.59375q0.46875 1.5625 0.46875 3.6875zm-2.109375 0q0 -1.859375 -0.3125 -3.125q-0.296875 -1.265625 -0.828125 -2.03125q-0.53125 -0.765625 -1.21875 -1.09375q-0.6875 -0.34375 -1.4375 -0.34375q-0.75 0 -1.453125 0.34375q-0.6875 0.328125 -1.203125 1.09375q-0.515625 0.765625 -0.828125 2.03125q-0.3125 1.265625 -0.3125 3.125q0 1.859375 0.3125 3.125q0.3125 1.25 0.828125 2.015625q0.515625 0.765625 1.203125 1.109375q0.703125 0.328125 1.453125 0.328125q0.75 0 1.4375 -0.328125q0.6875 -0.34375 1.21875 -1.109375q0.53125 -0.765625 0.828125 -2.015625q0.3125 -1.265625 0.3125 -3.125zm15.250107 0q0 2.125 -0.46875 3.6875q-0.453125 1.5625 -1.25 2.578125q-0.796875 1.015625 -1.875 1.515625q-1.078125 0.5 -2.3125 0.5q-1.25 0 -2.328125 -0.5q-1.0625 -0.5 -1.859375 -1.515625q-0.78125 -1.015625 -1.234375 -2.578125q-0.453125 -1.5625 -0.453125 -3.6875q0 -2.125 0.453125 -3.6875q0.453125 -1.578125 1.234375 -2.59375q0.796875 -1.03125 1.859375 -1.53125q1.078125 -0.5 2.328125 -0.5q1.234375 0 2.3125 0.5q1.078125 0.5 1.875 1.53125q0.796875 1.015625 1.25 2.59375q0.46875 1.5625 0.46875 3.6875zm-2.109375 0q0 -1.859375 -0.3125 -3.125q-0.296875 -1.265625 -0.828125 -2.03125q-0.53125 -0.765625 -1.21875 -1.09375q-0.6875 -0.34375 -1.4375 -0.34375q-0.75 0 -1.453125 0.34375q-0.6875 0.328125 -1.203125 1.09375q-0.515625 0.765625 -0.828125 2.03125q-0.3125 1.265625 -0.3125 3.125q0 1.859375 0.3125 3.125q0.3125 1.25 0.828125 2.015625q0.515625 0.765625 1.203125 1.109375q0.703125 0.328125 1.453125 0.328125q0.75 0 1.4375 -0.328125q0.6875 -0.34375 1.21875 -1.109375q0.53125 -0.765625 0.828125 -2.015625q0.3125 -1.265625 0.3125 -3.125zm15.250107 0q0 2.125 -0.46875 3.6875q-0.453125 1.5625 -1.25 2.578125q-0.796875 1.015625 -1.875 1.515625q-1.078125 0.5 -2.3125 0.5q-1.25 0 -2.328125 -0.5q-1.0625 -0.5 -1.859375 -1.515625q-0.78125 -1.015625 -1.234375 -2.578125q-0.453125 -1.5625 -0.453125 -3.6875q0 -2.125 0.453125 -3.6875q0.453125 -1.578125 1.234375 -2.59375q0.796875 -1.03125 1.859375 -1.53125q1.078125 -0.5 2.328125 -0.5q1.234375 0 2.3125 0.5q1.078125 0.5 1.875 1.53125q0.796875 1.015625 1.25 2.59375q0.46875 1.5625 0.46875 3.6875zm-2.109375 0q0 -1.859375 -0.3125 -3.125q-0.296875 -1.265625 -0.828125 -2.03125q-0.53125 -0.765625 -1.21875 -1.09375q-0.6875 -0.34375 -1.4375 -0.34375q-0.75 0 -1.453125 0.34375q-0.6875 0.328125 -1.203125 1.09375q-0.515625 0.765625 -0.828125 2.03125q-0.3125 1.265625 -0.3125 3.125q0 1.859375 0.3125 3.125q0.3125 1.25 0.828125 2.015625q0.515625 0.765625 1.203125 1.109375q0.703125 0.328125 1.453125 0.328125q0.75 0 1.4375 -0.328125q0.6875 -0.34375 1.21875 -1.109375q0.53125 -0.765625 0.828125 -2.015625q0.3125 -1.265625 0.3125 -3.125zm15.250107 0q0 2.125 -0.46875 3.6875q-0.453125 1.5625 -1.25 2.578125q-0.796875 1.015625 -1.875 1.515625q-1.078125 0.5 -2.3125 0.5q-1.25 0 -2.328125 -0.5q-1.0625 -0.5 -1.859375 -1.515625q-0.78125 -1.015625 -1.234375 -2.578125q-0.453125 -1.5625 -0.453125 -3.6875q0 -2.125 0.453125 -3.6875q0.453125 -1.578125 1.234375 -2.59375q0.796875 -1.03125 1.859375 -1.53125q1.078125 -0.5 2.328125 -0.5q1.234375 0 2.3125 0.5q1.078125 0.5 1.875 1.53125q0.796875 1.015625 1.25 2.59375q0.46875 1.5625 0.46875 3.6875zm-2.109375 0q0 -1.859375 -0.3125 -3.125q-0.296875 -1.265625 -0.828125 -2.03125q-0.53125 -0.765625 -1.21875 -1.09375q-0.6875 -0.34375 -1.4375 -0.34375q-0.75 0 -1.453125 0.34375q-0.6875 0.328125 -1.203125 1.09375q-0.515625 0.765625 -0.828125 2.03125q-0.3125 1.265625 -0.3125 3.125q0 1.859375 0.3125 3.125q0.3125 1.25 0.828125 2.015625q0.515625 0.765625 1.203125 1.109375q0.703125 0.328125 1.453125 0.328125q0.75 0 1.4375 -0.328125q0.6875 -0.34375 1.21875 -1.109375q0.53125 -0.765625 0.828125 -2.015625q0.3125 -1.265625 0.3125 -3.125z" fill-rule="nonzero"/><path fill="#000000" d="m236.9531 275.6402l2.171875 0l0 21.328125l-2.171875 0l0 -21.328125z" fill-rule="nonzero"/><path fill="#859900" d="m254.01566 284.98395q0 2.140625 -0.46875 3.71875q-0.453125 1.578125 -1.265625 2.609375q-0.8125 1.03125 -1.921875 1.546875q-1.09375 0.5 -2.375 0.5q-1.28125 0 -2.375 -0.5q-1.09375 -0.515625 -1.90625 -1.546875q-0.796875 -1.03125 -1.25 -2.609375q-0.453125 -1.578125 -0.453125 -3.71875q0 -2.15625 0.453125 -3.71875q0.453125 -1.578125 1.25 -2.609375q0.8125 -1.03125 1.90625 -1.53125q1.09375 -0.515625 2.375 -0.515625q1.28125 0 2.375 0.515625q1.109375 0.5 1.921875 1.53125q0.8125 1.03125 1.265625 2.609375q0.46875 1.5625 0.46875 3.71875zm-2.890625 0q0 -1.78125 -0.265625 -2.9375q-0.25 -1.171875 -0.6875 -1.859375q-0.4375 -0.703125 -1.015625 -0.96875q-0.5625 -0.28125 -1.171875 -0.28125q-0.59375 0 -1.15625 0.28125q-0.5625 0.265625 -1.0 0.96875q-0.421875 0.6875 -0.6875 1.859375q-0.25 1.15625 -0.25 2.9375q0 1.78125 0.25 2.953125q0.265625 1.15625 0.6875 1.84375q0.4375 0.6875 1.0 0.96875q0.5625 0.28125 1.15625 0.28125q0.609375 0 1.171875 -0.28125q0.578125 -0.28125 1.015625 -0.96875q0.4375 -0.6875 0.6875 -1.84375q0.265625 -1.171875 0.265625 -2.953125zm16.031372 0q0 2.140625 -0.46875 3.71875q-0.453125 1.578125 -1.265625 2.609375q-0.8125 1.03125 -1.921875 1.546875q-1.09375 0.5 -2.375 0.5q-1.28125 0 -2.375 -0.5q-1.09375 -0.515625 -1.90625 -1.546875q-0.796875 -1.03125 -1.2500153 -2.609375q-0.453125 -1.578125 -0.453125 -3.71875q0 -2.15625 0.453125 -3.71875q0.45314026 -1.578125 1.2500153 -2.609375q0.8125 -1.03125 1.90625 -1.53125q1.09375 -0.515625 2.375 -0.515625q1.28125 0 2.375 0.515625q1.109375 0.5 1.921875 1.53125q0.8125 1.03125 1.265625 2.609375q0.46875 1.5625 0.46875 3.71875zm-2.890625 0q0 -1.78125 -0.265625 -2.9375q-0.25 -1.171875 -0.6875 -1.859375q-0.4375 -0.703125 -1.015625 -0.96875q-0.5625 -0.28125 -1.171875 -0.28125q-0.59375 0 -1.15625 0.28125q-0.5625 0.265625 -1.0 0.96875q-0.421875 0.6875 -0.6875 1.859375q-0.25 1.15625 -0.25 2.9375q0 1.78125 0.25 2.953125q0.265625 1.15625 0.6875 1.84375q0.4375 0.6875 1.0 0.96875q0.5625 0.28125 1.15625 0.28125q0.609375 0 1.171875 -0.28125q0.578125 -0.28125 1.015625 -0.96875q0.4375 -0.6875 0.6875 -1.84375q0.265625 -1.171875 0.265625 -2.953125z" fill-rule="nonzero"/><path fill="#000000" fill-opacity="0.0" d="m584.6626 252.5965l194.07874 0l0 64.629944l-194.07874 0z" fill-rule="evenodd"/><path fill="#b58900" d="m606.13135 285.06207q0 2.125 -0.46875 3.6875q-0.453125 1.5625 -1.25 2.578125q-0.796875 1.015625 -1.875 1.515625q-1.078125 0.5 -2.3125 0.5q-1.25 0 -2.328125 -0.5q-1.0625 -0.5 -1.859375 -1.515625q-0.78125 -1.015625 -1.234375 -2.578125q-0.453125 -1.5625 -0.453125 -3.6875q0 -2.125 0.453125 -3.6875q0.453125 -1.578125 1.234375 -2.59375q0.796875 -1.03125 1.859375 -1.53125q1.078125 -0.5 2.328125 -0.5q1.234375 0 2.3125 0.5q1.078125 0.5 1.875 1.53125q0.796875 1.015625 1.25 2.59375q0.46875 1.5625 0.46875 3.6875zm-2.109375 0q0 -1.859375 -0.3125 -3.125q-0.296875 -1.265625 -0.828125 -2.03125q-0.53125 -0.765625 -1.21875 -1.09375q-0.6875 -0.34375 -1.4375 -0.34375q-0.75 0 -1.453125 0.34375q-0.6875 0.328125 -1.203125 1.09375q-0.515625 0.765625 -0.828125 2.03125q-0.3125 1.265625 -0.3125 3.125q0 1.859375 0.3125 3.125q0.3125 1.25 0.828125 2.015625q0.515625 0.765625 1.203125 1.109375q0.703125 0.328125 1.453125 0.328125q0.75 0 1.4375 -0.328125q0.6875 -0.34375 1.21875 -1.109375q0.53125 -0.765625 0.828125 -2.015625q0.3125 -1.265625 0.3125 -3.125zm15.250122 0q0 2.125 -0.46875 3.6875q-0.453125 1.5625 -1.25 2.578125q-0.796875 1.015625 -1.875 1.515625q-1.078125 0.5 -2.3125 0.5q-1.25 0 -2.328125 -0.5q-1.0625 -0.5 -1.859375 -1.515625q-0.78125 -1.015625 -1.234375 -2.578125q-0.453125 -1.5625 -0.453125 -3.6875q0 -2.125 0.453125 -3.6875q0.453125 -1.578125 1.234375 -2.59375q0.796875 -1.03125 1.859375 -1.53125q1.078125 -0.5 2.328125 -0.5q1.234375 0 2.3125 0.5q1.078125 0.5 1.875 1.53125q0.796875 1.015625 1.25 2.59375q0.46875 1.5625 0.46875 3.6875zm-2.109375 0q0 -1.859375 -0.3125 -3.125q-0.296875 -1.265625 -0.828125 -2.03125q-0.53125 -0.765625 -1.21875 -1.09375q-0.6875 -0.34375 -1.4375 -0.34375q-0.75 0 -1.453125 0.34375q-0.6875 0.328125 -1.203125 1.09375q-0.515625 0.765625 -0.828125 2.03125q-0.3125 1.265625 -0.3125 3.125q0 1.859375 0.3125 3.125q0.3125 1.25 0.828125 2.015625q0.515625 0.765625 1.203125 1.109375q0.703125 0.328125 1.453125 0.328125q0.75 0 1.4375 -0.328125q0.6875 -0.34375 1.21875 -1.109375q0.53125 -0.765625 0.828125 -2.015625q0.3125 -1.265625 0.3125 -3.125zm15.250122 0q0 2.125 -0.46875 3.6875q-0.453125 1.5625 -1.25 2.578125q-0.796875 1.015625 -1.875 1.515625q-1.078125 0.5 -2.3125 0.5q-1.25 0 -2.328125 -0.5q-1.0625 -0.5 -1.859375 -1.515625q-0.78125 -1.015625 -1.234375 -2.578125q-0.453125 -1.5625 -0.453125 -3.6875q0 -2.125 0.453125 -3.6875q0.453125 -1.578125 1.234375 -2.59375q0.796875 -1.03125 1.859375 -1.53125q1.078125 -0.5 2.328125 -0.5q1.234375 0 2.3125 0.5q1.078125 0.5 1.875 1.53125q0.796875 1.015625 1.25 2.59375q0.46875 1.5625 0.46875 3.6875zm-2.109375 0q0 -1.859375 -0.3125 -3.125q-0.296875 -1.265625 -0.828125 -2.03125q-0.53125 -0.765625 -1.21875 -1.09375q-0.6875 -0.34375 -1.4375 -0.34375q-0.75 0 -1.453125 0.34375q-0.6875 0.328125 -1.203125 1.09375q-0.515625 0.765625 -0.828125 2.03125q-0.3125 1.265625 -0.3125 3.125q0 1.859375 0.3125 3.125q0.3125 1.25 0.828125 2.015625q0.515625 0.765625 1.203125 1.109375q0.703125 0.328125 1.453125 0.328125q0.75 0 1.4375 -0.328125q0.6875 -0.34375 1.21875 -1.109375q0.53125 -0.765625 0.828125 -2.015625q0.3125 -1.265625 0.3125 -3.125zm15.250061 0q0 2.125 -0.46875 3.6875q-0.453125 1.5625 -1.25 2.578125q-0.796875 1.015625 -1.875 1.515625q-1.078125 0.5 -2.3125 0.5q-1.25 0 -2.328125 -0.5q-1.0625 -0.5 -1.859375 -1.515625q-0.78125 -1.015625 -1.234375 -2.578125q-0.453125 -1.5625 -0.453125 -3.6875q0 -2.125 0.453125 -3.6875q0.453125 -1.578125 1.234375 -2.59375q0.796875 -1.03125 1.859375 -1.53125q1.078125 -0.5 2.328125 -0.5q1.234375 0 2.3125 0.5q1.078125 0.5 1.875 1.53125q0.796875 1.015625 1.25 2.59375q0.46875 1.5625 0.46875 3.6875zm-2.109375 0q0 -1.859375 -0.3125 -3.125q-0.296875 -1.265625 -0.828125 -2.03125q-0.53125 -0.765625 -1.21875 -1.09375q-0.6875 -0.34375 -1.4375 -0.34375q-0.75 0 -1.453125 0.34375q-0.6875 0.328125 -1.203125 1.09375q-0.515625 0.765625 -0.828125 2.03125q-0.3125 1.265625 -0.3125 3.125q0 1.859375 0.3125 3.125q0.3125 1.25 0.828125 2.015625q0.515625 0.765625 1.203125 1.109375q0.703125 0.328125 1.453125 0.328125q0.75 0 1.4375 -0.328125q0.6875 -0.34375 1.21875 -1.109375q0.53125 -0.765625 0.828125 -2.015625q0.3125 -1.265625 0.3125 -3.125z" fill-rule="nonzero"/><path fill="#000000" d="m648.538 275.6402l2.171875 0l0 21.328125l-2.171875 0l0 -21.328125z" fill-rule="nonzero"/><path fill="#dc322f" d="m665.6006 284.98395q0 2.140625 -0.46875 3.71875q-0.453125 1.578125 -1.265625 2.609375q-0.8125 1.03125 -1.921875 1.546875q-1.09375 0.5 -2.375 0.5q-1.28125 0 -2.375 -0.5q-1.09375 -0.515625 -1.90625 -1.546875q-0.796875 -1.03125 -1.25 -2.609375q-0.453125 -1.578125 -0.453125 -3.71875q0 -2.15625 0.453125 -3.71875q0.453125 -1.578125 1.25 -2.609375q0.8125 -1.03125 1.90625 -1.53125q1.09375 -0.515625 2.375 -0.515625q1.28125 0 2.375 0.515625q1.109375 0.5 1.921875 1.53125q0.8125 1.03125 1.265625 2.609375q0.46875 1.5625 0.46875 3.71875zm-2.890625 0q0 -1.78125 -0.265625 -2.9375q-0.25 -1.171875 -0.6875 -1.859375q-0.4375 -0.703125 -1.015625 -0.96875q-0.5625 -0.28125 -1.171875 -0.28125q-0.59375 0 -1.15625 0.28125q-0.5625 0.265625 -1.0 0.96875q-0.421875 0.6875 -0.6875 1.859375q-0.25 1.15625 -0.25 2.9375q0 1.78125 0.25 2.953125q0.265625 1.15625 0.6875 1.84375q0.4375 0.6875 1.0 0.96875q0.5625 0.28125 1.15625 0.28125q0.609375 0 1.171875 -0.28125q0.578125 -0.28125 1.015625 -0.96875q0.4375 -0.6875 0.6875 -1.84375q0.265625 -1.171875 0.265625 -2.953125zm6.500122 6.09375l3.3125 0l0 -9.546875q0 -0.5625 0.046875 -1.171875l-2.359375 1.96875q-0.15625 0.125 -0.3125 0.171875q-0.140625 0.046875 -0.296875 0.046875q-0.21875 0 -0.40625 -0.09375q-0.1875 -0.09375 -0.28125 -0.21875l-0.875 -1.21875l4.984375 -4.25l2.3125 0l0 14.3125l2.9375 0l0 2.09375l-9.0625 0l0 -2.09375z" fill-rule="nonzero"/><path fill="#000000" fill-opacity="0.0" d="m666.1533 201.56816l194.07874 0l0 64.62993l-194.07874 0z" fill-rule="evenodd"/><path fill="#b58900" d="m687.6221 234.03374q0 2.125 -0.46875 3.6875q-0.453125 1.5625 -1.25 2.578125q-0.796875 1.015625 -1.875 1.515625q-1.078125 0.5 -2.3125 0.5q-1.25 0 -2.328125 -0.5q-1.0625 -0.5 -1.859375 -1.515625q-0.78125 -1.015625 -1.234375 -2.578125q-0.453125 -1.5625 -0.453125 -3.6875q0 -2.125 0.453125 -3.6875q0.453125 -1.578125 1.234375 -2.59375q0.796875 -1.03125 1.859375 -1.53125q1.078125 -0.5 2.328125 -0.5q1.234375 0 2.3125 0.5q1.078125 0.5 1.875 1.53125q0.796875 1.015625 1.25 2.59375q0.46875 1.5625 0.46875 3.6875zm-2.109375 0q0 -1.859375 -0.3125 -3.125q-0.296875 -1.265625 -0.828125 -2.03125q-0.53125 -0.765625 -1.21875 -1.09375q-0.6875 -0.34375 -1.4375 -0.34375q-0.75 0 -1.453125 0.34375q-0.6875 0.328125 -1.203125 1.09375q-0.515625 0.765625 -0.828125 2.03125q-0.3125 1.265625 -0.3125 3.125q0 1.859375 0.3125 3.125q0.3125 1.25 0.828125 2.015625q0.515625 0.765625 1.203125 1.109375q0.703125 0.328125 1.453125 0.328125q0.75 0 1.4375 -0.328125q0.6875 -0.34375 1.21875 -1.109375q0.53125 -0.765625 0.828125 -2.015625q0.3125 -1.265625 0.3125 -3.125zm15.250061 0q0 2.125 -0.46875 3.6875q-0.453125 1.5625 -1.25 2.578125q-0.796875 1.015625 -1.875 1.515625q-1.078125 0.5 -2.3125 0.5q-1.25 0 -2.328125 -0.5q-1.0625 -0.5 -1.859375 -1.515625q-0.78125 -1.015625 -1.234375 -2.578125q-0.453125 -1.5625 -0.453125 -3.6875q0 -2.125 0.453125 -3.6875q0.453125 -1.578125 1.234375 -2.59375q0.796875 -1.03125 1.859375 -1.53125q1.078125 -0.5 2.328125 -0.5q1.234375 0 2.3125 0.5q1.078125 0.5 1.875 1.53125q0.796875 1.015625 1.25 2.59375q0.46875 1.5625 0.46875 3.6875zm-2.109375 0q0 -1.859375 -0.3125 -3.125q-0.296875 -1.265625 -0.828125 -2.03125q-0.53125 -0.765625 -1.21875 -1.09375q-0.6875 -0.34375 -1.4375 -0.34375q-0.75 0 -1.453125 0.34375q-0.6875 0.328125 -1.203125 1.09375q-0.515625 0.765625 -0.828125 2.03125q-0.3125 1.265625 -0.3125 3.125q0 1.859375 0.3125 3.125q0.3125 1.25 0.828125 2.015625q0.515625 0.765625 1.203125 1.109375q0.703125 0.328125 1.453125 0.328125q0.75 0 1.4375 -0.328125q0.6875 -0.34375 1.21875 -1.109375q0.53125 -0.765625 0.828125 -2.015625q0.3125 -1.265625 0.3125 -3.125zm15.250122 0q0 2.125 -0.46875 3.6875q-0.453125 1.5625 -1.25 2.578125q-0.796875 1.015625 -1.875 1.515625q-1.078125 0.5 -2.3125 0.5q-1.25 0 -2.328125 -0.5q-1.0625 -0.5 -1.859375 -1.515625q-0.78125 -1.015625 -1.234375 -2.578125q-0.453125 -1.5625 -0.453125 -3.6875q0 -2.125 0.453125 -3.6875q0.453125 -1.578125 1.234375 -2.59375q0.796875 -1.03125 1.859375 -1.53125q1.078125 -0.5 2.328125 -0.5q1.234375 0 2.3125 0.5q1.078125 0.5 1.875 1.53125q0.796875 1.015625 1.25 2.59375q0.46875 1.5625 0.46875 3.6875zm-2.109375 0q0 -1.859375 -0.3125 -3.125q-0.296875 -1.265625 -0.828125 -2.03125q-0.53125 -0.765625 -1.21875 -1.09375q-0.6875 -0.34375 -1.4375 -0.34375q-0.75 0 -1.453125 0.34375q-0.6875 0.328125 -1.203125 1.09375q-0.515625 0.765625 -0.828125 2.03125q-0.3125 1.265625 -0.3125 3.125q0 1.859375 0.3125 3.125q0.3125 1.25 0.828125 2.015625q0.515625 0.765625 1.203125 1.109375q0.703125 0.328125 1.453125 0.328125q0.75 0 1.4375 -0.328125q0.6875 -0.34375 1.21875 -1.109375q0.53125 -0.765625 0.828125 -2.015625q0.3125 -1.265625 0.3125 -3.125zm15.250122 0q0 2.125 -0.46875 3.6875q-0.453125 1.5625 -1.25 2.578125q-0.796875 1.015625 -1.875 1.515625q-1.078125 0.5 -2.3125 0.5q-1.25 0 -2.328125 -0.5q-1.0625 -0.5 -1.859375 -1.515625q-0.78125 -1.015625 -1.234375 -2.578125q-0.453125 -1.5625 -0.453125 -3.6875q0 -2.125 0.453125 -3.6875q0.453125 -1.578125 1.234375 -2.59375q0.796875 -1.03125 1.859375 -1.53125q1.078125 -0.5 2.328125 -0.5q1.234375 0 2.3125 0.5q1.078125 0.5 1.875 1.53125q0.796875 1.015625 1.25 2.59375q0.46875 1.5625 0.46875 3.6875zm-2.109375 0q0 -1.859375 -0.3125 -3.125q-0.296875 -1.265625 -0.828125 -2.03125q-0.53125 -0.765625 -1.21875 -1.09375q-0.6875 -0.34375 -1.4375 -0.34375q-0.75 0 -1.453125 0.34375q-0.6875 0.328125 -1.203125 1.09375q-0.515625 0.765625 -0.828125 2.03125q-0.3125 1.265625 -0.3125 3.125q0 1.859375 0.3125 3.125q0.3125 1.25 0.828125 2.015625q0.515625 0.765625 1.203125 1.109375q0.703125 0.328125 1.453125 0.328125q0.75 0 1.4375 -0.328125q0.6875 -0.34375 1.21875 -1.109375q0.53125 -0.765625 0.828125 -2.015625q0.3125 -1.265625 0.3125 -3.125z" fill-rule="nonzero"/><path fill="#000000" d="m730.02875 224.61186l2.171875 0l0 21.328125l-2.171875 0l0 -21.328125z" fill-rule="nonzero"/><path fill="#dc322f" d="m737.56006 240.04936l3.3125 0l0 -9.546875q0 -0.5625 0.046875 -1.171875l-2.359375 1.96875q-0.15625 0.125 -0.3125 0.171875q-0.140625 0.046875 -0.296875 0.046875q-0.21875 0 -0.40625 -0.09375q-0.1875 -0.09375 -0.28125 -0.21875l-0.875 -1.21875l4.984375 -4.25l2.3125 0l0 14.3125l2.9375 0l0 2.09375l-9.0625 0l0 -2.09375z" fill-rule="nonzero"/><path fill="#000000" fill-opacity="0.0" d="m173.74928 378.26346l41.574814 43.968506" fill-rule="evenodd"/><path stroke="#859900" stroke-width="2.0" stroke-linejoin="round" stroke-linecap="butt" d="m173.74928 378.26346l41.574814 43.968506" fill-rule="evenodd"/><path fill="#000000" fill-opacity="0.0" d="m331.1387 298.00842l126.236206 51.84253" fill-rule="evenodd"/><path stroke="#859900" stroke-width="2.0" stroke-linejoin="round" stroke-linecap="butt" d="m331.1387 298.00842l126.236206 51.84253" fill-rule="evenodd"/><path fill="#000000" fill-opacity="0.0" d="m527.8262 201.56158l-359.65356 148.31494" fill-rule="evenodd"/><path stroke="#859900" stroke-width="2.0" stroke-linejoin="round" stroke-linecap="butt" d="m527.8262 201.56158l-359.65356 148.31494" fill-rule="evenodd"/><path fill="#000000" fill-opacity="0.0" d="m77.26781 436.487l60.97638 -59.93701" fill-rule="evenodd"/><path stroke="#dc322f" stroke-width="3.0" stroke-linejoin="round" stroke-linecap="butt" stroke-dasharray="12.0,9.0" d="m77.26781 436.487l60.97638 -59.93701" fill-rule="evenodd"/><path fill="#dc322f" d="m52.279922 426.5168l6.0484657 -6.048462l15.167606 15.167603l15.16761 -15.167603l6.0484695 6.048462l-15.16761 15.167603l15.16761 15.167603l-6.0484695 6.048462l-15.16761 -15.167603l-15.167606 15.167603l-6.0484657 -6.048462l15.16761 -15.167603z" fill-rule="evenodd"/><path stroke="#dc322f" stroke-width="1.0" stroke-linejoin="round" stroke-linecap="butt" d="m52.279922 426.5168l6.0484657 -6.048462l15.167606 15.167603l15.16761 -15.167603l6.0484695 6.048462l-15.16761 15.167603l15.16761 15.167603l-6.0484695 6.048462l-15.16761 -15.167603l-15.167606 15.167603l-6.0484657 -6.048462l15.16761 -15.167603z" fill-rule="evenodd"/><path fill="#859900" d="m181.7658 358.92102l0 0c0 -15.107391 -12.253998 -27.35434 -27.370071 -27.35434l0 0c-7.2590027 0 -14.220688 2.881958 -19.353577 8.011902c-5.1328735 5.129944 -8.016502 12.087616 -8.016502 19.342438l0 0c0 15.107361 12.254005 27.35434 27.370079 27.35434l0 0c15.116074 0 27.370071 -12.246979 27.370071 -27.35434z" fill-rule="evenodd"/><path stroke="#859900" stroke-width="1.0" stroke-linejoin="round" stroke-linecap="butt" d="m181.7658 358.92102l0 0c0 -15.107391 -12.253998 -27.35434 -27.370071 -27.35434l0 0c-7.2590027 0 -14.220688 2.881958 -19.353577 8.011902c-5.1328735 5.129944 -8.016502 12.087616 -8.016502 19.342438l0 0c0 15.107361 12.254005 27.35434 27.370079 27.35434l0 0c15.116074 0 27.370071 -12.246979 27.370071 -27.35434z" fill-rule="evenodd"/><path fill="#b58900" d="m508.83118 194.74652l0 0c0 -15.107391 12.254028 -27.35434 27.370117 -27.35434l0 0c7.258972 0 14.220642 2.8819733 19.353516 8.011902c5.1329346 5.1299286 8.016541 12.087616 8.016541 19.342438l0 0c0 15.107376 -12.254028 27.354324 -27.370056 27.354324l0 0c-15.116089 0 -27.370117 -12.246948 -27.370117 -27.354324z" fill-rule="evenodd"/><path stroke="#b58900" stroke-width="1.0" stroke-linejoin="round" stroke-linecap="butt" d="m508.83118 194.74652l0 0c0 -15.107391 12.254028 -27.35434 27.370117 -27.35434l0 0c7.258972 0 14.220642 2.8819733 19.353516 8.011902c5.1329346 5.1299286 8.016541 12.087616 8.016541 19.342438l0 0c0 15.107376 -12.254028 27.354324 -27.370056 27.354324l0 0c-15.116089 0 -27.370117 -12.246948 -27.370117 -27.354324z" fill-rule="evenodd"/></g></svg>